<svg width="13" height="13" viewBox="0 0 13 13" fill="none" xmlns="http://www.w3.org/2000/svg">
<path opacity="0.87" fill-rule="evenodd" clip-rule="evenodd" d="M6.49997 0.304321C3.10867 0.304321 0.304321 3.10867 0.304321 6.49997C0.304321 9.89128 3.10867 12.6956 6.49997 12.6956C9.89128 12.6956 12.6956 9.89128 12.6956 6.49997C12.6956 3.10867 9.89128 0.304321 6.49997 0.304321ZM3.69563 4.21736L3.17389 4.67389L6.49997 10.0217L9.82606 4.67389L9.36954 4.28258L6.49997 8.78258L3.69563 4.21736ZM0.956495 6.49997C0.956495 9.56519 3.43476 12.0435 6.49997 12.0435C9.56519 12.0435 12.0435 9.56519 12.0435 6.49997C12.0435 3.43476 9.56519 0.956495 6.49997 0.956495C3.43476 0.956495 0.956495 3.43476 0.956495 6.49997Z" fill="white"/>
</svg>
