<?xml version="1.0" standalone="no"?>
<!DOCTYPE svg PUBLIC "-//W3C//DTD SVG 20010904//EN"
 "http://www.w3.org/TR/2001/REC-SVG-20010904/DTD/svg10.dtd">
<svg version="1.0" xmlns="http://www.w3.org/2000/svg"
 width="360.000000pt" height="360.000000pt" viewBox="0 0 360.000000 360.000000"
 preserveAspectRatio="xMidYMid meet">

<g transform="translate(0.000000,360.000000) scale(0.100000,-0.100000)"
fill="rgb(80, 82, 102)" stroke="none">
<path d="M1711 3321 c-57 -22 -68 -28 -120 -75 -36 -33 -91 -137 -91 -172 0
-28 -15 -39 -69 -54 -134 -36 -351 -159 -470 -267 l-55 -50 -44 14 c-150 45
-305 -19 -381 -157 -33 -59 -36 -72 -36 -145 0 -102 23 -164 86 -231 l48 -50
-20 -100 c-18 -85 -20 -123 -16 -269 3 -107 11 -194 21 -234 l16 -64 -46 -49
c-68 -73 -89 -126 -89 -228 0 -73 4 -92 28 -137 39 -75 78 -115 144 -148 71
-36 177 -46 245 -22 l43 14 55 -49 c121 -110 292 -209 452 -262 80 -27 77 -25
104 -110 23 -75 86 -145 162 -183 49 -24 69 -28 142 -28 98 0 152 20 218 80
46 41 102 143 102 186 0 25 5 29 55 44 155 45 335 145 470 262 70 59 70 60
105 47 57 -21 160 -17 226 8 68 26 138 92 174 164 20 40 25 64 25 134 0 74 -4
92 -28 140 -16 30 -46 73 -68 96 l-39 40 17 80 c25 112 25 398 0 508 l-17 79
46 49 c67 72 88 125 89 228 0 73 -4 92 -27 136 -37 70 -122 146 -188 167 -63
21 -141 22 -202 3 l-45 -13 -69 60 c-124 108 -285 200 -441 252 -77 25 -83 29
-83 54 0 43 -57 147 -102 185 -93 80 -220 106 -327 67z m237 -21 c58 -25 137
-101 129 -124 -4 -9 -1 -13 6 -10 14 5 53 -89 44 -104 -11 -16 9 -29 88 -56
122 -43 259 -112 348 -175 26 -19 47 -38 47 -43 0 -4 6 -8 14 -8 7 0 33 -21
56 -46 42 -46 43 -46 82 -35 21 7 44 9 50 5 7 -5 8 -3 3 5 -5 10 8 12 56 10
83 -3 105 -9 87 -21 -9 -6 -6 -7 9 -3 13 3 36 -1 55 -11 43 -22 45 -24 29 -33
-10 -6 -9 -10 4 -14 10 -5 14 -3 9 4 -4 7 -1 10 7 7 8 -3 13 -11 11 -17 -1 -7
2 -10 7 -7 12 8 55 -48 76 -96 51 -123 10 -286 -91 -363 -19 -14 -40 -23 -47
-20 -6 4 -4 0 6 -8 60 -49 75 -459 22 -634 -11 -35 -10 -43 3 -57 10 -10 12
-16 5 -16 -7 0 -15 4 -18 10 -3 5 -11 10 -18 10 -6 0 -1 -7 11 -16 12 -8 26
-12 32 -9 5 3 22 -8 37 -25 66 -73 93 -166 75 -261 -12 -68 -57 -153 -74 -143
-6 4 -8 3 -5 -3 11 -17 -70 -83 -86 -70 -2 1 -12 -6 -22 -16 -10 -10 -26 -16
-36 -14 -11 3 -22 1 -25 -4 -7 -13 -107 -11 -141 2 -34 13 -94 19 -88 9 7 -11
-20 -31 -30 -22 -5 4 -5 2 -2 -4 9 -15 -39 -58 -57 -51 -9 4 -13 1 -10 -6 5
-14 -51 -60 -73 -60 -7 0 -11 -3 -8 -5 6 -6 -56 -50 -76 -54 -8 -2 -19 -8 -27
-15 -7 -7 -20 -9 -29 -6 -10 4 -14 2 -10 -4 8 -13 -44 -38 -158 -75 -90 -30
-107 -41 -99 -63 13 -34 -76 -191 -102 -181 -8 3 -13 0 -11 -7 1 -7 -25 -25
-58 -42 -52 -26 -71 -30 -142 -30 -74 0 -84 2 -98 23 -9 12 -21 22 -27 22 -7
0 -3 -7 8 -15 31 -24 6 -17 -42 11 -46 27 -77 61 -68 76 3 5 0 7 -8 6 -15 -3
-68 95 -68 127 0 29 -31 62 -54 57 -13 -3 -16 0 -11 9 5 7 4 10 -3 5 -15 -9
-153 44 -146 56 4 6 1 8 -7 6 -28 -11 -257 126 -252 150 2 6 -3 9 -11 6 -7 -3
-27 11 -45 31 -17 20 -31 33 -31 29 0 -3 -14 6 -32 21 -30 25 -33 26 -45 9
-10 -14 -15 -15 -28 -4 -8 7 -18 10 -22 6 -3 -3 -1 -6 6 -6 7 0 9 -4 6 -10 -7
-11 -106 -13 -143 -3 -18 4 -21 8 -10 15 9 7 6 8 -11 4 -14 -3 -40 3 -60 14
-46 24 -105 86 -95 101 4 8 3 9 -4 5 -6 -3 -16 3 -22 14 -6 11 -7 20 -3 20 4
0 1 4 -6 9 -9 6 -15 25 -15 45 0 19 -4 32 -10 29 -14 -9 0 126 19 170 8 21 20
35 25 32 6 -4 7 1 3 11 -5 13 -3 15 7 9 8 -5 11 -4 6 3 -3 6 5 23 19 39 16 19
24 23 25 13 0 -8 7 -2 16 15 14 27 14 37 -3 115 -26 121 -25 393 1 508 l19 84
-30 24 c-48 37 -66 70 -53 97 10 21 10 21 -4 3 -14 -17 -16 -16 -31 20 -40 96
-26 218 35 302 36 49 108 105 127 97 8 -2 11 0 8 5 -18 30 158 33 251 5 17 -5
33 4 73 45 28 28 55 48 61 45 6 -4 9 -1 8 5 -2 7 6 17 17 23 10 7 25 18 33 24
22 20 136 86 150 86 6 0 12 4 12 7 0 7 55 34 70 35 3 0 15 7 28 14 13 7 30 10
38 7 8 -3 13 -2 10 3 -7 10 61 31 80 24 8 -3 14 0 14 6 0 6 5 11 11 11 5 0 7
-4 4 -10 -4 -6 1 -7 11 -3 11 4 13 8 6 11 -19 6 -14 59 12 115 25 56 101 141
116 132 6 -3 10 -1 10 5 0 11 32 26 85 41 46 13 149 2 203 -21z"/>
<path d="M1900 3260 c-8 -5 -10 -10 -5 -10 6 0 17 5 25 10 8 5 11 10 5 10 -5
0 -17 -5 -25 -10z"/>
<path d="M1616 3222 c-3 -4 4 -9 15 -9 23 -2 25 3 4 10 -8 4 -16 3 -19 -1z"/>
<path d="M1777 3216 c4 -5 -3 -7 -15 -4 -12 4 -20 3 -17 -1 2 -5 -7 -13 -21
-20 -34 -15 -43 -13 -20 4 22 16 10 20 -14 5 -8 -5 -11 -12 -7 -16 10 -10 -23
-45 -36 -37 -6 3 -7 1 -3 -5 4 -6 -1 -26 -10 -44 -16 -30 -18 -31 -25 -13 -6
16 -8 17 -8 3 -1 -9 6 -21 15 -26 25 -14 114 5 140 29 14 13 30 19 39 15 9 -3
13 -2 10 4 -12 20 31 9 69 -16 22 -15 59 -29 83 -32 23 -2 43 -9 43 -13 0 -5
4 -9 9 -9 17 0 4 49 -23 90 -14 22 -31 40 -37 40 -8 0 -7 6 2 18 11 14 11 15
0 5 -11 -9 -21 -8 -45 4 -35 19 -138 34 -129 19z m146 -42 c35 -23 77 -76 77
-98 0 -16 -79 4 -116 29 -20 14 -49 25 -64 25 -15 0 -44 -11 -64 -25 -46 -31
-116 -45 -116 -23 0 26 73 98 115 114 53 19 119 10 168 -22z"/>
<path d="M1594 3172 c3 -5 0 -13 -6 -15 -9 -4 -10 -6 -1 -6 17 -1 25 16 12 25
-7 4 -9 3 -5 -4z"/>
<path d="M1623 3165 c0 -8 4 -12 9 -9 5 3 6 10 3 15 -9 13 -12 11 -12 -6z"/>
<path d="M1740 3060 c-9 -6 -10 -10 -3 -10 6 0 15 5 18 10 8 12 4 12 -15 0z"/>
<path d="M1755 3040 c-3 -6 1 -7 9 -4 18 7 21 14 7 14 -6 0 -13 -4 -16 -10z"/>
<path d="M1540 3026 c0 -2 8 -10 18 -17 15 -13 16 -12 3 4 -13 16 -21 21 -21
13z"/>
<path d="M1759 2985 c5 -11 17 -29 26 -40 l16 -20 -10 20 c-5 11 -17 29 -26
40 l-16 20 10 -20z"/>
<path d="M1957 2989 c7 -7 15 -10 18 -7 3 3 -2 9 -12 12 -14 6 -15 5 -6 -5z"/>
<path d="M1710 2980 c-23 -7 -23 -8 -3 -9 12 -1 25 4 28 9 3 6 5 10 3 9 -2 -1
-14 -5 -28 -9z"/>
<path d="M1883 2965 c0 -8 4 -12 9 -9 5 3 6 10 3 15 -9 13 -12 11 -12 -6z"/>
<path d="M1897 2942 c-28 -29 -36 -82 -18 -111 7 -11 15 -10 44 8 19 12 40 28
47 36 7 8 16 13 20 10 5 -3 12 0 16 6 5 8 3 9 -6 4 -10 -6 -12 -4 -6 11 16 42
10 50 -36 47 -35 -2 -38 -1 -18 6 22 8 22 9 4 10 -11 1 -32 -12 -47 -27z m93
-14 c-1 -27 -83 -99 -96 -85 -10 9 -10 71 -1 85 5 6 29 12 53 12 29 0 44 -4
44 -12z"/>
<path d="M2208 2963 c7 -3 16 -2 19 1 4 3 -2 6 -13 5 -11 0 -14 -3 -6 -6z"/>
<path d="M1675 2953 c-56 -7 -58 -10 -31 -46 14 -19 23 -37 18 -42 -4 -5 -1
-5 6 -1 7 4 15 1 18 -8 3 -9 10 -14 14 -11 5 3 13 -3 19 -12 6 -10 11 -14 11
-9 0 5 7 3 15 -4 12 -10 15 -10 16 1 4 74 3 101 -4 106 -5 3 -3 10 4 15 11 8
10 9 -3 4 -10 -3 -20 -1 -23 4 -4 6 -12 9 -18 9 -7 -1 -25 -4 -42 -6z m73 -65
c4 -59 -9 -62 -61 -12 -52 51 -49 66 11 62 l47 -3 3 -47z"/>
<path d="M2016 2922 c-3 -5 1 -9 9 -9 8 0 12 4 9 9 -3 4 -7 8 -9 8 -2 0 -6 -4
-9 -8z"/>
<path d="M1440 2895 c-36 -14 -71 -23 -78 -20 -7 3 -10 0 -7 -5 9 -14 -8 -12
-25 3 -12 10 -12 9 -2 -4 10 -13 7 -18 -14 -28 -14 -6 -30 -8 -36 -5 -7 5 -8
2 -3 -6 6 -10 4 -12 -9 -7 -9 4 -15 3 -12 -2 9 -15 -40 -31 -55 -18 -11 10
-11 9 0 -5 15 -21 2 -24 -19 -5 -12 10 -12 9 -1 -5 10 -14 9 -18 -10 -29 -13
-6 -34 -22 -48 -35 -14 -13 -30 -24 -36 -24 -6 0 -16 -9 -23 -20 -7 -12 -18
-18 -24 -14 -7 4 -8 3 -4 -4 4 -7 1 -12 -9 -12 -9 0 -14 -4 -10 -9 3 -5 1 -12
-5 -16 -7 -4 -6 -14 2 -28 7 -12 11 -26 10 -30 -1 -5 2 -6 7 -3 8 5 18 -11 26
-44 1 -3 7 -18 14 -35 7 -16 11 -54 9 -83 -2 -28 1 -52 6 -52 5 0 6 34 4 75
-4 59 -12 88 -38 137 l-32 63 43 39 c117 104 308 208 435 236 25 6 31 4 27 -6
-14 -38 99 -153 179 -181 31 -12 48 -23 48 -34 0 -14 -14 -18 -82 -20 l-83 -4
-198 -115 c-151 -87 -203 -122 -214 -145 -53 -101 -87 -126 -95 -72 -3 22 -3
22 -10 -1 -5 -18 -1 -26 19 -35 21 -9 27 -8 38 6 6 9 15 13 19 9 4 -4 6 -2 5
3 -4 15 11 55 22 55 5 0 8 3 8 8 -3 20 2 25 12 12 8 -12 9 -10 4 7 -5 19 2 27
42 52 30 19 51 27 57 21 6 -6 15 -10 21 -10 5 0 4 4 -4 9 -19 12 -3 34 20 28
11 -3 17 -1 14 3 -8 12 114 82 128 74 7 -4 9 -3 4 1 -4 5 14 21 40 37 52 30
68 35 57 16 -4 -7 -3 -8 5 -4 6 4 9 11 7 15 -3 4 34 8 81 10 48 1 90 4 95 7 4
3 8 16 8 29 0 13 6 26 13 29 8 3 7 5 -3 4 -8 -1 -33 2 -54 6 -29 6 -36 10 -25
17 14 9 12 10 -27 14 -28 3 -94 53 -94 71 0 8 -4 14 -10 14 -12 0 -33 38 -34
64 -1 29 -21 29 -96 1z"/>
<path d="M2095 2906 c18 -13 18 -14 -2 -47 -11 -19 -25 -33 -31 -32 -7 2 -9
-4 -5 -14 5 -12 2 -15 -10 -10 -9 3 -19 1 -23 -5 -4 -7 -3 -8 4 -4 7 4 12 2
12 -3 0 -6 -4 -12 -10 -12 -5 -1 -14 -3 -20 -4 -5 -1 -16 -3 -22 -4 -10 -1
-10 -3 0 -10 10 -6 0 -14 -32 -30 -25 -11 -53 -21 -62 -21 -11 0 -14 -8 -12
-32 l3 -33 85 -3 c106 -3 117 -6 99 -29 -13 -15 -12 -15 6 -6 22 12 60 -1 50
-17 -4 -6 1 -7 11 -3 13 5 15 3 9 -7 -5 -8 -4 -11 2 -7 12 8 56 -12 63 -28 3
-5 9 -9 13 -7 4 1 21 -5 38 -14 21 -10 29 -20 25 -31 -5 -13 -4 -14 9 -3 10 8
15 9 15 1 0 -6 3 -10 8 -9 4 0 15 -2 25 -7 13 -5 15 -10 7 -15 -8 -5 -7 -9 5
-13 9 -4 13 -3 10 3 -10 16 3 12 45 -16 38 -25 45 -36 40 -59 -1 -5 2 -7 6 -3
4 5 20 -15 36 -42 16 -28 32 -50 37 -50 21 0 41 13 41 26 0 8 5 14 11 14 6 0
3 7 -5 16 -11 11 -16 34 -16 77 0 34 4 56 8 50 5 -8 8 1 8 21 0 21 12 54 32
86 31 50 41 77 23 66 -4 -3 -16 3 -26 14 -18 20 -8 29 11 10 7 -7 11 -6 11 4
0 8 -3 15 -6 14 -18 -2 -32 3 -27 10 2 4 0 14 -6 22 -8 12 -9 12 -4 -2 3 -10
1 -20 -3 -23 -12 -7 -33 20 -23 30 4 5 1 5 -5 1 -21 -12 -36 3 -21 22 10 14
10 15 -2 5 -8 -7 -18 -13 -23 -13 -4 0 -5 6 -1 13 4 6 4 9 0 6 -4 -4 -43 15
-88 42 -45 27 -85 49 -90 49 -5 0 -6 5 -2 12 4 7 3 8 -5 4 -6 -4 -17 -3 -24 2
-7 5 -25 12 -41 16 -24 6 -27 9 -15 18 11 8 10 9 -4 4 -21 -7 -69 3 -63 13 2
3 -9 6 -25 7 -16 1 -29 -4 -29 -9 0 -7 -4 -7 -12 1 -7 7 -16 12 -22 12 -5 0
-1 -6 9 -14z m128 -30 c112 -42 210 -98 304 -173 25 -20 48 -31 55 -27 7 4 10
3 5 -1 -4 -5 2 -18 13 -30 l20 -22 -32 -63 c-31 -59 -33 -70 -33 -164 -1 -128
-14 -135 -68 -38 l-39 69 -202 116 -203 117 -76 0 c-67 0 -77 2 -77 18 0 12
15 23 48 35 62 21 131 82 163 141 14 28 31 46 41 46 10 0 46 -11 81 -24z"/>
<path d="M2016 2883 c-6 -14 -5 -15 5 -6 7 7 10 15 7 18 -3 3 -9 -2 -12 -12z"/>
<path d="M2330 2876 c0 -2 7 -7 16 -10 8 -3 12 -2 9 4 -6 10 -25 14 -25 6z"/>
<path d="M1974 2816 c-16 -13 -17 -17 -5 -28 12 -11 13 -11 6 0 -4 8 0 19 11
27 11 8 16 15 13 15 -3 0 -14 -6 -25 -14z"/>
<path d="M1060 2795 c10 -12 10 -15 0 -15 -8 0 -11 -3 -7 -6 3 -3 10 -3 16 0
12 8 3 36 -11 36 -6 0 -5 -6 2 -15z"/>
<path d="M2475 2800 c3 -5 8 -10 11 -10 2 0 4 5 4 10 0 6 -5 10 -11 10 -5 0
-7 -4 -4 -10z"/>
<path d="M2536 2791 c-13 -14 -14 -21 -5 -27 8 -4 10 -3 5 4 -4 7 -3 12 2 12
6 0 12 7 16 15 7 20 3 19 -18 -4z"/>
<path d="M1005 2760 c-4 -6 1 -7 11 -3 14 5 16 3 10 -13 -5 -14 -4 -16 5 -7
12 12 5 33 -11 33 -5 0 -12 -4 -15 -10z"/>
<path d="M2868 2703 c7 -3 16 -2 19 1 4 3 -2 6 -13 5 -11 0 -14 -3 -6 -6z"/>
<path d="M2650 2651 c0 -6 4 -13 10 -16 6 -3 7 1 4 9 -7 18 -14 21 -14 7z"/>
<path d="M738 2643 c7 -3 16 -2 19 1 4 3 -2 6 -13 5 -11 0 -14 -3 -6 -6z"/>
<path d="M1648 2613 c7 -3 16 -2 19 1 4 3 -2 6 -13 5 -11 0 -14 -3 -6 -6z"/>
<path d="M1978 2613 c12 -2 32 -2 45 0 12 2 2 4 -23 4 -25 0 -35 -2 -22 -4z"/>
<path d="M2821 2607 c-7 -7 -3 -19 9 -35 11 -13 17 -29 13 -35 -3 -5 -1 -7 4
-4 6 4 13 1 16 -7 3 -8 20 -17 37 -21 21 -5 30 -11 26 -21 -3 -8 -1 -15 4 -15
6 -1 16 -2 23 -3 8 -1 12 -19 12 -56 0 -38 -4 -54 -12 -53 -7 2 -10 -4 -6 -13
5 -13 7 -13 14 -2 7 10 9 10 10 -2 1 -8 1 -21 0 -29 -2 -7 2 -10 7 -7 6 3 13
-5 16 -19 9 -35 22 -31 53 16 21 32 27 52 27 97 0 88 -6 107 -42 137 -18 15
-31 34 -28 41 3 8 0 11 -9 8 -7 -3 -23 0 -35 6 -32 17 -127 29 -139 17z m136
-28 c24 -12 54 -34 65 -50 12 -15 26 -25 31 -22 6 3 7 1 3 -5 -3 -6 -2 -31 5
-55 12 -51 0 -111 -30 -148 l-18 -23 -17 33 c-12 23 -16 44 -11 71 10 59 -15
107 -67 130 -37 16 -88 66 -88 85 0 14 88 3 127 -16z"/>
<path d="M693 2595 c-17 -7 -34 -11 -37 -8 -3 4 -6 1 -6 -7 0 -10 -3 -10 -14
-1 -12 10 -16 8 -22 -11 -4 -13 -8 -27 -9 -31 0 -4 -7 -12 -15 -17 -8 -5 -12
-10 -8 -10 4 0 0 -16 -8 -35 -19 -46 -17 -101 5 -150 16 -37 48 -73 54 -64 18
25 36 95 35 137 0 37 5 59 17 72 17 19 19 19 32 2 13 -15 13 -15 4 5 -8 16 -7
22 5 27 28 11 37 7 24 -9 -10 -13 -11 -18 -1 -28 10 -9 11 -9 6 4 -3 9 1 22
10 29 8 7 15 18 15 25 0 7 11 24 25 39 14 15 23 32 20 37 -9 14 -96 10 -132
-6z m110 -1 c12 -12 -39 -66 -81 -84 -50 -23 -77 -73 -68 -126 6 -31 -18 -104
-34 -104 -4 0 -16 19 -26 42 -24 54 -24 132 1 178 11 19 18 38 17 43 -1 4 1 6
5 6 21 -3 26 2 13 12 -13 10 -13 10 0 6 8 -2 33 4 55 14 40 17 106 25 118 13z"/>
<path d="M2776 2571 c-3 -5 1 -11 9 -14 9 -4 12 -1 8 9 -6 16 -10 17 -17 5z"/>
<path d="M2800 2576 c0 -2 8 -10 18 -17 15 -13 16 -12 3 4 -13 16 -21 21 -21
13z"/>
<path d="M496 2555 c-9 -26 -7 -32 5 -12 6 10 9 21 6 23 -2 3 -7 -2 -11 -11z"/>
<path d="M3049 2553 c-13 -16 -12 -17 4 -4 16 13 21 21 13 21 -2 0 -10 -8 -17
-17z"/>
<path d="M1555 2551 c-3 -5 0 -13 6 -17 7 -4 9 -3 5 4 -3 5 0 13 6 15 9 4 10
6 1 6 -6 1 -14 -3 -18 -8z"/>
<path d="M1590 2519 c-24 -16 -51 -27 -58 -24 -7 2 -10 1 -7 -5 6 -9 -22 -28
-40 -28 -10 1 -13 -4 -53 -80 -20 -38 -25 -42 -40 -31 -14 11 -15 11 -4 -1 15
-18 16 -34 0 -24 -7 4 -8 3 -4 -4 7 -12 -36 -95 -49 -92 -3 1 -10 -2 -13 -6
-4 -4 -1 -4 7 1 7 4 12 4 9 -1 -22 -48 -34 -70 -41 -75 -5 -4 2 -6 16 -6 13 0
45 -13 71 -28 43 -25 45 -28 29 -42 -17 -13 -16 -13 4 -4 22 11 53 5 53 -10 0
-5 3 -8 8 -8 20 3 23 -3 11 -18 -11 -15 -11 -16 1 -5 18 15 34 16 24 0 -4 -7
-3 -8 4 -4 15 9 73 -24 65 -37 -3 -6 -1 -7 5 -3 14 8 74 -28 64 -39 -4 -5 -2
-5 5 -2 15 9 45 -2 37 -14 -3 -5 4 -9 15 -9 11 0 27 -7 35 -16 9 -9 16 -11 16
-4 0 6 4 9 9 6 5 -3 14 1 20 8 9 11 9 16 0 22 -7 4 -9 3 -5 -4 3 -6 2 -13 -4
-17 -7 -4 -11 83 -12 262 -3 358 -3 354 -18 363 -13 8 -37 6 -98 -6 -15 -3
-21 -1 -17 6 8 14 7 13 -45 -21z m160 -299 c0 -165 -2 -300 -4 -300 -4 0 -416
237 -422 243 -3 3 30 65 74 138 76 129 81 135 147 177 64 39 75 42 137 42 l68
0 0 -300z"/>
<path d="M3065 2541 c-3 -5 -2 -12 3 -15 5 -3 9 1 9 9 0 17 -3 19 -12 6z"/>
<path d="M1026 2527 c3 -10 9 -15 12 -12 3 3 0 11 -7 18 -10 9 -11 8 -5 -6z"/>
<path d="M1888 2529 c-16 -9 -18 -33 -18 -273 0 -274 6 -360 23 -349 5 3 18 6
28 7 11 1 20 6 21 11 0 6 14 18 30 28 25 15 33 16 46 5 15 -11 15 -11 5 2 -10
13 3 24 85 70 53 30 103 53 111 52 8 -2 10 1 5 9 -5 9 -2 10 12 5 10 -4 15 -4
11 0 -10 10 31 36 45 28 7 -5 8 -3 4 5 -6 8 -2 11 10 9 11 -2 18 2 16 10 -1 6
2 12 8 12 5 0 10 -5 10 -12 0 -6 3 -8 7 -5 3 4 -4 18 -16 31 -16 17 -21 31
-16 48 4 16 3 19 -3 9 -12 -16 -27 3 -16 21 4 6 3 8 -3 5 -7 -4 -35 35 -68 93
-31 55 -61 100 -66 100 -6 0 -7 5 -4 11 4 6 13 8 21 5 21 -8 17 2 -6 14 -11 6
-20 7 -19 3 4 -22 -3 -23 -22 -2 -11 13 -17 18 -13 10 7 -15 7 -15 -48 14 -21
10 -38 22 -38 27 0 12 -122 9 -142 -3z m177 -35 c25 -14 50 -22 56 -18 7 4 9
3 5 -4 -3 -6 2 -16 14 -22 17 -9 49 -59 154 -241 l26 -46 -28 -14 c-15 -8 -62
-35 -105 -61 -43 -27 -80 -48 -82 -48 -15 0 -184 -109 -173 -113 7 -2 1 -4
-14 -3 l-28 1 0 298 0 297 66 0 c52 0 74 -5 109 -26z"/>
<path d="M2689 2495 c-16 -34 -23 -64 -21 -91 3 -37 6 -42 27 -40 12 0 21 5
18 9 -3 4 9 13 25 19 36 14 47 51 26 83 -8 12 -11 25 -7 29 5 4 3 6 -4 4 -6
-1 -18 6 -26 17 -14 18 -16 17 -38 -30z m55 -12 c29 -43 24 -60 -29 -92 l-35
-20 0 34 c0 31 26 115 36 115 2 0 14 -16 28 -37z"/>
<path d="M910 2519 c0 -5 -6 -7 -12 -3 -7 4 -10 4 -6 -1 4 -4 -1 -20 -12 -35
-11 -16 -17 -35 -14 -45 4 -9 -1 -22 -12 -31 -18 -14 -18 -15 2 -5 11 5 26 6
33 2 11 -7 11 -10 0 -15 -8 -3 -3 -3 10 0 13 4 21 2 18 -3 -4 -5 -1 -10 6 -11
7 0 22 -3 34 -6 13 -2 26 0 29 6 4 7 2 8 -4 4 -7 -4 -12 -1 -12 9 0 10 6 15
13 12 8 -3 14 1 14 8 0 8 -7 11 -15 7 -11 -4 -14 0 -10 16 3 11 -1 30 -9 42
-8 12 -13 24 -9 27 7 7 -19 33 -33 33 -6 0 -11 -5 -11 -11z m50 -106 c0 -38
-1 -38 -41 -17 -45 23 -52 52 -20 92 l26 33 17 -38 c10 -21 18 -53 18 -70z"/>
<path d="M1490 2526 c0 -2 7 -7 16 -10 8 -3 12 -2 9 4 -6 10 -25 14 -25 6z"/>
<path d="M845 2510 c-3 -6 1 -7 9 -4 18 7 21 14 7 14 -6 0 -13 -4 -16 -10z"/>
<path d="M1393 2455 c0 -8 4 -12 9 -9 5 3 6 10 3 15 -9 13 -12 11 -12 -6z"/>
<path d="M2848 2453 c6 -2 18 -2 25 0 6 3 1 5 -13 5 -14 0 -19 -2 -12 -5z"/>
<path d="M1220 2380 c-6 -11 -8 -20 -6 -20 3 0 10 9 16 20 6 11 8 20 6 20 -3
0 -10 -9 -16 -20z"/>
<path d="M850 2380 c-9 -6 -10 -10 -3 -10 6 0 15 5 18 10 8 12 4 12 -15 0z"/>
<path d="M2253 2355 c0 -8 4 -12 9 -9 5 3 6 10 3 15 -9 13 -12 11 -12 -6z"/>
<path d="M546 2347 c3 -10 9 -15 12 -12 3 3 0 11 -7 18 -10 9 -11 8 -5 -6z"/>
<path d="M763 2326 c-3 -5 -1 -6 5 -2 16 10 15 -6 -1 -38 -8 -14 -17 -23 -21
-19 -4 4 -4 0 0 -10 3 -9 2 -17 -4 -17 -6 0 -9 -8 -7 -17 5 -36 149 -7 162 33
2 6 -12 19 -31 29 -36 20 -42 35 -16 47 13 6 13 7 -1 7 -9 1 -22 -6 -29 -14
-7 -8 -17 -15 -22 -15 -7 0 -7 5 0 13 8 10 6 13 -9 13 -11 0 -23 -5 -26 -10z
m86 -43 c17 -10 31 -21 31 -25 0 -12 -52 -36 -93 -43 -44 -8 -47 3 -17 53 23
37 36 39 79 15z"/>
<path d="M1025 2330 c3 -5 8 -10 11 -10 2 0 4 5 4 10 0 6 -5 10 -11 10 -5 0
-7 -4 -4 -10z"/>
<path d="M2769 2313 c-13 -16 -12 -17 4 -4 12 9 21 11 28 4 6 -6 -9 -19 -43
-36 -29 -15 -45 -27 -37 -27 17 0 90 -36 84 -41 -2 -2 22 -5 54 -5 l57 -2 -23
47 c-17 33 -34 51 -61 63 -47 21 -47 21 -63 1z m95 -35 c8 -13 16 -32 18 -43
3 -17 -2 -20 -30 -17 -18 1 -49 10 -69 20 l-35 19 33 21 c43 28 65 28 83 0z"/>
<path d="M1005 2310 c3 -5 8 -10 11 -10 2 0 4 5 4 10 0 6 -5 10 -11 10 -5 0
-7 -4 -4 -10z"/>
<path d="M2895 2310 c-3 -5 -1 -10 4 -10 6 0 11 5 11 10 0 6 -2 10 -4 10 -3 0
-8 -4 -11 -10z"/>
<path d="M1336 2278 c3 -5 10 -6 15 -3 13 9 11 12 -6 12 -8 0 -12 -4 -9 -9z"/>
<path d="M3105 2269 c-4 -6 -4 -13 -1 -16 3 -4 6 -1 6 6 0 7 5 9 12 5 7 -4 8
-3 4 4 -9 15 -13 15 -21 1z"/>
<path d="M607 2249 c7 -7 15 -10 18 -7 3 3 -2 9 -12 12 -14 6 -15 5 -6 -5z"/>
<path d="M700 2250 c-9 -6 -10 -10 -3 -10 6 0 15 5 18 10 8 12 4 12 -15 0z"/>
<path d="M2736 2227 c3 -10 9 -15 12 -12 3 3 0 11 -7 18 -10 9 -11 8 -5 -6z"/>
<path d="M706 2213 c-6 -14 -5 -15 5 -6 7 7 10 15 7 18 -3 3 -9 -2 -12 -12z"/>
<path d="M904 2213 c2 -9 8 -19 14 -21 7 -2 9 -9 6 -14 -5 -7 -2 -8 6 -3 10 6
10 11 -3 20 -9 7 -14 14 -11 17 3 4 1 9 -4 12 -6 3 -9 -2 -8 -11z"/>
<path d="M2679 2193 c-13 -16 -12 -17 4 -4 16 13 21 21 13 21 -2 0 -10 -8 -17
-17z"/>
<path d="M556 2187 c3 -10 9 -15 12 -12 3 3 0 11 -7 18 -10 9 -11 8 -5 -6z"/>
<path d="M984 2179 c-9 -10 -21 -16 -27 -12 -5 3 -7 1 -4 -4 6 -9 -5 -18 -33
-28 -3 -1 -22 -9 -42 -18 -45 -20 -154 -35 -145 -20 4 6 0 14 -9 17 -8 3 -13
2 -10 -3 3 -5 0 -11 -8 -14 -36 -14 -60 -336 -35 -472 10 -53 16 -95 18 -117
1 -5 8 -8 17 -8 8 0 12 -4 9 -10 -3 -6 1 -7 9 -4 9 3 16 11 16 16 0 15 97 -1
152 -24 26 -11 47 -23 46 -27 -2 -12 14 -41 24 -41 6 0 5 6 -2 15 -8 10 -9 15
-2 15 6 0 15 -7 20 -17 5 -9 24 -17 41 -18 17 -1 29 0 26 3 -2 3 3 11 13 19 9
8 12 12 6 9 -14 -7 -57 70 -48 86 4 7 3 8 -5 4 -7 -5 -17 5 -26 28 -22 52 -22
454 0 497 9 17 21 27 27 23 6 -4 8 -3 4 4 -7 12 13 62 26 62 4 0 7 12 6 28 -2
33 -38 40 -64 11z m44 -2 c8 -9 1 -30 -29 -81 l-39 -67 0 -229 0 -228 40 -70
c22 -38 40 -71 40 -74 0 -3 -7 -9 -16 -12 -10 -4 -30 6 -52 25 -54 48 -117 72
-197 75 l-70 3 -13 48 c-19 66 -21 357 -4 444 l14 66 71 5 c84 6 162 36 203
79 31 33 37 34 52 16z"/>
<path d="M2570 2192 c-5 -2 -10 -8 -10 -14 0 -6 7 -4 17 3 15 12 16 12 10 -3
-3 -10 -2 -20 4 -23 5 -4 7 -11 4 -16 -4 -5 -1 -9 5 -9 6 0 8 -5 4 -12 -4 -7
-3 -8 4 -4 12 7 16 -5 13 -33 -2 -8 2 -10 10 -5 9 5 10 2 6 -9 -4 -10 -2 -16
6 -14 7 1 11 -4 10 -10 -2 -7 2 -13 7 -13 6 0 10 -83 10 -230 0 -155 -3 -230
-11 -230 -5 0 -8 -3 -5 -8 2 -4 -2 -16 -10 -27 -13 -17 -16 -18 -24 -5 -6 9
-10 10 -10 3 0 -6 4 -14 9 -18 6 -3 3 -18 -7 -34 -9 -16 -19 -28 -22 -26 -3 2
-5 -9 -5 -23 -1 -22 4 -27 27 -29 15 -1 30 2 33 8 4 5 11 7 16 3 5 -3 8 0 7 8
-2 7 5 12 14 12 10 -1 17 1 16 5 -2 19 4 24 13 11 9 -13 10 -12 5 3 -5 15 -2
17 17 12 14 -4 18 -3 9 3 -27 18 129 49 171 33 25 -10 27 -8 36 27 35 129 41
324 15 467 -9 50 -17 95 -17 102 0 9 -6 9 -20 1 -36 -19 -212 14 -190 36 4 4
-1 4 -12 1 -19 -6 -19 -6 -2 8 16 13 16 15 2 21 -9 3 -13 2 -10 -3 3 -5 1 -12
-5 -16 -5 -3 -10 -1 -10 6 0 7 -3 10 -6 6 -3 -3 -17 4 -31 16 -22 20 -65 28
-93 19z m170 -79 c41 -20 73 -28 125 -29 l70 -3 14 -58 c18 -79 18 -378 -1
-453 l-13 -55 -38 3 c-43 4 -128 -13 -169 -35 -15 -7 -43 -27 -62 -43 -21 -19
-40 -28 -50 -24 -23 9 -21 16 24 89 l40 65 0 228 0 227 -40 69 c-22 37 -40 72
-40 76 0 19 27 16 55 -7 17 -13 55 -36 85 -50z"/>
<path d="M1055 2109 c-4 -6 -5 -12 -2 -15 2 -3 7 2 10 11 7 17 1 20 -8 4z"/>
<path d="M2970 2101 c0 -6 4 -13 10 -16 6 -3 7 1 4 9 -7 18 -14 21 -14 7z"/>
<path d="M2269 2073 c-1 -5 -1 -11 0 -15 2 -12 -14 -9 -27 4 -9 9 -15 9 -24
-1 -11 -11 -10 -12 0 -7 7 4 20 2 28 -5 8 -6 18 -9 21 -5 8 8 13 36 7 36 -2 0
-5 -3 -5 -7z"/>
<path d="M2986 2053 c-6 -14 -5 -15 5 -6 7 7 10 15 7 18 -3 3 -9 -2 -12 -12z"/>
<path d="M1235 2040 c-4 -11 -11 -18 -16 -14 -5 3 -9 2 -8 -3 3 -19 -2 -34
-10 -29 -5 3 -8 -2 -7 -12 0 -9 -5 -16 -12 -14 -8 1 -11 -2 -7 -8 9 -14 -36
-91 -48 -83 -6 3 -7 1 -3 -6 4 -6 1 -23 -8 -36 -22 -34 -21 -39 21 -108 20
-33 37 -70 39 -81 1 -12 7 -20 14 -18 8 2 10 -3 6 -13 -3 -10 -2 -14 5 -10 6
4 9 1 8 -6 -2 -8 8 -26 21 -40 l23 -26 63 39 c36 23 68 37 75 32 7 -4 9 -3 6
2 -3 6 18 24 47 41 59 36 82 43 79 26 -2 -7 4 -10 12 -6 13 5 13 7 -2 20 -17
14 -17 14 0 9 9 -3 17 -1 17 3 0 14 70 52 82 45 7 -4 8 -2 4 4 -4 7 -1 12 7
12 8 0 20 7 27 15 7 9 18 14 25 11 7 -2 11 5 10 17 -2 16 -8 21 -24 20 -11 -2
-21 2 -21 7 0 6 -7 10 -16 10 -10 0 -14 6 -11 15 4 8 1 17 -5 21 -6 4 -8 3 -4
-4 13 -21 -10 -20 -47 2 -20 13 -34 26 -29 30 4 4 2 6 -3 5 -17 -5 -55 12 -55
23 0 6 -3 9 -6 5 -3 -3 -24 5 -45 19 -21 13 -43 24 -49 24 -6 0 -9 4 -6 8 3 5
0 9 -7 9 -7 0 -36 14 -65 32 -62 37 -69 37 -77 11z m231 -114 c146 -84 207
-114 220 -109 17 6 18 5 3 -9 -12 -13 -332 -202 -416 -246 -20 -11 -26 -5 -93
113 l-71 125 71 125 c39 69 75 124 78 121 4 -2 98 -56 208 -120z"/>
<path d="M1328 2053 c7 -3 16 -2 19 1 4 3 -2 6 -13 5 -11 0 -14 -3 -6 -6z"/>
<path d="M2365 2051 c-6 -4 -35 -22 -65 -38 -30 -17 -80 -45 -110 -63 -30 -18
-60 -33 -67 -33 -7 0 -10 -3 -8 -7 6 -9 -126 -75 -144 -72 -13 2 -13 1 -2 -6
11 -8 9 -11 -8 -17 -24 -7 -28 -23 -6 -31 8 -4 12 -10 9 -16 -3 -5 1 -8 9 -6
21 4 188 -93 180 -105 -3 -6 -1 -7 5 -3 18 11 95 -35 80 -47 -10 -7 -9 -8 2
-4 23 7 62 -11 54 -24 -4 -8 -3 -9 4 -5 7 4 30 -3 52 -15 22 -12 41 -21 43
-18 17 24 62 95 62 99 0 3 14 28 30 57 26 45 31 49 42 35 12 -16 13 -16 7 1
-6 18 11 24 19 7 3 -6 4 -5 3 2 -2 7 -11 12 -20 12 -19 -2 -20 0 -4 26 10 16
10 24 0 40 -15 24 -16 33 -2 25 6 -3 7 1 3 10 -4 13 -8 14 -13 4 -5 -8 -17 6
-34 39 -15 29 -26 54 -26 57 1 3 -10 19 -24 35 -13 17 -27 39 -31 50 -7 21
-24 26 -40 11z m104 -143 l63 -107 -73 -126 -72 -125 -46 26 c-142 79 -381
220 -381 224 0 3 96 60 212 127 189 108 213 120 224 105 6 -9 39 -65 73 -124z"/>
<path d="M2040 1925 c-11 -13 -11 -18 0 -28 10 -10 11 -9 5 2 -5 9 -1 19 10
28 11 7 14 13 8 13 -6 0 -16 -7 -23 -15z"/>
<path d="M2555 1870 c-3 -5 -2 -18 4 -27 7 -14 9 -12 8 10 -2 30 -3 31 -12 17z"/>
<path d="M2580 1865 c0 -5 5 -17 10 -25 5 -8 10 -10 10 -5 0 6 -5 17 -10 25
-5 8 -10 11 -10 5z"/>
<path d="M2610 1859 c0 -5 5 -7 10 -4 6 3 10 8 10 11 0 2 -4 4 -10 4 -5 0 -10
-5 -10 -11z"/>
<path d="M1892 1790 c0 -14 2 -19 5 -12 2 6 2 18 0 25 -3 6 -5 1 -5 -13z"/>
<path d="M1660 1740 c8 -5 20 -10 25 -10 6 0 3 5 -5 10 -8 5 -19 10 -25 10 -5
0 -3 -5 5 -10z"/>
<path d="M1970 1740 c0 -5 5 -10 11 -10 5 0 7 5 4 10 -3 6 -8 10 -11 10 -2 0
-4 -4 -4 -10z"/>
<path d="M2640 1730 c0 -5 5 -10 11 -10 5 0 7 5 4 10 -3 6 -8 10 -11 10 -2 0
-4 -4 -4 -10z"/>
<path d="M2008 1708 c5 -5 16 -8 23 -6 8 3 3 7 -10 11 -17 4 -21 3 -13 -5z"/>
<path d="M1731 1684 c-10 -7 -21 -10 -25 -7 -3 3 -6 1 -6 -5 0 -7 -10 -11 -22
-9 -13 1 -23 -4 -23 -11 0 -18 -27 -32 -50 -26 -16 4 -17 3 -5 -5 13 -10 13
-11 0 -12 -8 -1 -19 -1 -23 0 -5 1 -6 -2 -3 -7 7 -12 -42 -34 -56 -26 -6 4 -8
2 -4 -4 8 -14 -50 -43 -72 -36 -13 5 -14 4 -3 -4 16 -12 -3 -27 -21 -16 -7 4
-8 3 -4 -4 4 -7 1 -12 -7 -12 -8 0 -20 -7 -27 -15 -7 -9 -19 -14 -26 -11 -21
8 -47 -30 -38 -56 9 -24 11 -33 13 -58 1 -13 2 -13 11 0 9 14 10 12 10 -15 0
-3 9 -14 21 -26 11 -11 18 -27 15 -35 -3 -9 -1 -12 4 -9 14 9 12 -8 -2 -25
-11 -12 -10 -12 4 -1 14 11 19 8 32 -17 14 -26 14 -31 1 -36 -8 -3 -15 -11
-14 -18 0 -10 2 -10 6 0 2 6 11 12 19 12 9 0 13 -4 10 -9 -4 -5 59 -10 149
-10 86 -1 163 -4 173 -7 10 -4 13 -2 7 3 -13 10 -19 43 -8 43 4 0 6 103 3 230
-5 226 -5 230 15 224 18 -4 18 -4 2 6 -9 6 -15 15 -13 19 8 13 -23 9 -43 -5z
m19 -254 l0 -250 -142 0 -143 0 -73 127 c-62 107 -71 128 -57 135 8 5 12 14 9
20 -4 7 -2 8 4 4 6 -4 84 34 173 85 118 67 158 94 148 101 -10 7 -8 8 7 4 11
-4 29 1 40 9 10 8 22 15 27 15 4 0 7 -112 7 -250z"/>
<path d="M1880 1693 c0 -6 11 -15 24 -21 19 -9 405 -230 414 -237 3 -2 -125
-224 -140 -242 -8 -9 -50 -13 -149 -13 l-139 0 0 245 c0 157 -4 245 -10 245
-11 0 -15 -457 -4 -485 6 -14 27 -16 166 -14 88 0 157 3 154 6 -7 8 42 103 54
103 6 0 10 -8 11 -17 0 -13 3 -11 10 6 5 13 7 26 4 29 -3 3 -5 0 -5 -7 0 -7
-5 -9 -10 -6 -7 4 -3 19 10 40 12 19 28 48 36 65 9 16 20 30 26 30 7 0 7 4 -1
13 -6 8 -7 17 -3 21 4 4 3 6 -3 4 -5 -1 -24 3 -42 11 -31 12 -31 14 -17 36 12
19 13 25 2 31 -7 4 -10 4 -6 -1 9 -10 -9 -45 -23 -45 -6 0 -7 6 -3 13 4 6 4 9
-1 5 -11 -10 -86 33 -78 45 4 6 1 7 -7 2 -8 -5 -17 -2 -24 7 -11 15 -17 18
-37 18 -5 0 -7 5 -3 12 5 7 3 8 -5 4 -15 -10 -53 23 -44 38 4 7 1 6 -8 -1 -12
-10 -19 -10 -35 1 -50 34 -114 67 -114 59z"/>
<path d="M571 1644 c0 -11 3 -14 6 -6 3 7 2 16 -1 19 -3 4 -6 -2 -5 -13z"/>
<path d="M1370 1580 c-9 -6 -10 -10 -3 -10 6 0 15 5 18 10 8 12 4 12 -15 0z"/>
<path d="M2972 1570 c0 -14 2 -19 5 -12 2 6 2 18 0 25 -3 6 -5 1 -5 -13z"/>
<path d="M1046 1493 c-6 -14 -5 -15 5 -6 7 7 10 15 7 18 -3 3 -9 -2 -12 -12z"/>
<path d="M2347 1473 c-4 -3 -7 -13 -7 -21 0 -18 13 -7 16 13 2 17 1 18 -9 8z"/>
<path d="M1280 1433 c0 -6 8 -17 18 -24 16 -13 16 -13 2 6 -8 11 -16 22 -17
24 -2 2 -3 0 -3 -6z"/>
<path d="M2526 1417 c3 -10 9 -15 12 -12 3 3 0 11 -7 18 -10 9 -11 8 -5 -6z"/>
<path d="M865 1410 c3 -5 8 -10 11 -10 2 0 4 5 4 10 0 6 -5 10 -11 10 -5 0 -7
-4 -4 -10z"/>
<path d="M753 1342 c15 -30 25 -62 22 -71 -4 -13 -3 -13 8 1 9 11 23 16 37 13
12 -2 20 -2 17 2 -8 8 42 35 53 28 4 -2 7 5 6 17 -1 12 -14 27 -33 38 -18 9
-31 19 -29 21 3 2 -21 4 -53 5 l-57 0 29 -54z m100 21 c34 -17 34 -25 -2 -46
-46 -27 -69 -22 -86 19 -8 20 -15 41 -15 46 0 12 66 0 103 -19z"/>
<path d="M2823 1390 c-38 -9 -83 -36 -83 -50 0 -6 11 -15 25 -22 13 -6 22 -15
18 -21 -4 -6 -1 -7 6 -3 7 5 21 0 33 -11 12 -10 18 -12 13 -4 -6 11 -2 13 21
8 16 -3 23 -4 16 -1 -10 5 -10 9 -1 20 6 8 15 12 19 9 5 -3 12 -1 15 5 4 6 3
9 -2 8 -9 -3 -13 5 -13 23 0 8 6 7 18 -2 14 -11 15 -11 5 1 -7 8 -13 22 -13
32 0 20 -21 22 -77 8z m59 -26 c-6 -30 -31 -64 -49 -64 -8 0 -31 10 -51 22
l-34 21 28 15 c32 17 84 31 99 27 6 -1 9 -11 7 -21z"/>
<path d="M3054 1380 c0 -13 4 -16 10 -10 7 7 7 13 0 20 -6 6 -10 3 -10 -10z"/>
<path d="M716 1367 c3 -10 9 -15 12 -12 3 3 0 11 -7 18 -10 9 -11 8 -5 -6z"/>
<path d="M2341 1354 c0 -11 3 -14 6 -6 3 7 2 16 -1 19 -3 4 -6 -2 -5 -13z"/>
<path d="M607 1322 c-25 -28 -47 -88 -47 -130 0 -35 44 -143 61 -150 4 -2 5
-10 2 -18 -5 -13 -7 -13 -15 -2 -8 10 -9 10 -6 -1 6 -21 28 -26 28 -7 0 20 -2
20 45 -4 48 -25 140 -28 149 -5 3 8 1 15 -4 15 -5 0 -17 13 -27 30 -10 17 -32
35 -50 41 -19 6 -30 15 -27 21 4 6 2 8 -3 5 -24 -15 -43 30 -47 108 -3 44 -10
81 -15 83 -6 2 -11 10 -11 18 0 19 -14 18 -33 -4z m48 -103 c-13 -58 38 -139
88 -139 13 0 67 -60 67 -74 0 -13 -88 -4 -125 13 -84 38 -127 125 -106 216 6
27 19 57 28 68 16 17 18 17 36 -18 12 -24 16 -46 12 -66z"/>
<path d="M2991 1301 c-14 -26 -21 -59 -21 -94 0 -40 -6 -61 -21 -81 -11 -14
-25 -24 -30 -21 -5 4 -9 1 -9 -4 0 -6 -9 -11 -20 -11 -11 0 -23 -7 -26 -15 -4
-8 -11 -12 -17 -8 -5 3 -7 1 -4 -4 4 -6 -2 -22 -14 -34 -15 -18 -19 -19 -15
-6 7 24 -1 21 -15 -4 -7 -13 -7 -19 -1 -15 6 3 13 2 17 -4 9 -15 91 -12 132 5
42 18 46 18 38 5 -3 -6 1 -7 10 -3 13 5 14 7 3 14 -13 9 -13 9 24 13 7 0 13 8
14 16 0 22 15 51 23 46 20 -13 19 142 -1 183 -10 18 -15 39 -11 45 3 6 3 8 -2
4 -4 -4 -14 -3 -21 3 -10 8 -18 1 -33 -30z m53 -19 c23 -46 27 -95 11 -148
-16 -56 -52 -95 -107 -118 -36 -16 -118 -22 -118 -10 0 17 57 70 92 86 46 21
72 71 63 122 -7 37 18 111 35 101 6 -3 16 -18 24 -33z"/>
<path d="M1081 1311 c-8 -5 -21 -7 -30 -4 -14 5 -14 4 0 -8 9 -8 19 -21 22
-29 4 -10 6 -8 6 6 1 12 8 24 16 28 15 5 41 -27 78 -101 12 -23 43 -46 109
-84 51 -28 95 -56 96 -60 2 -5 8 -9 13 -9 5 0 53 -25 107 -55 96 -53 101 -55
175 -55 67 0 77 -2 77 -18 0 -12 -15 -23 -49 -35 -62 -22 -143 -94 -171 -152
l-21 -44 -72 26 c-109 39 -214 95 -302 160 -123 92 -121 88 -84 161 26 50 32
75 34 134 1 40 1 53 -1 28 -5 -57 -24 -130 -34 -130 -4 0 -7 -8 -6 -17 0 -11
-5 -17 -14 -15 -8 2 -12 0 -7 -4 4 -4 1 -17 -7 -29 -13 -20 -13 -25 0 -43 9
-13 11 -23 4 -27 -5 -3 -10 -1 -10 6 0 7 -3 10 -6 6 -3 -3 -3 -11 1 -17 5 -8
11 -7 22 2 12 10 18 8 31 -8 10 -11 30 -28 45 -38 16 -9 25 -22 21 -28 -4 -6
-3 -9 2 -5 10 6 85 -36 87 -49 1 -5 8 -8 15 -6 9 2 11 -1 6 -9 -4 -7 -3 -10 3
-6 11 7 94 -31 105 -47 4 -6 13 -11 20 -12 7 0 21 -2 31 -2 10 -1 16 -6 13
-11 -4 -5 4 -7 16 -4 19 4 20 3 8 -6 -16 -12 -15 -12 48 -15 42 -2 44 -1 59
36 9 21 27 45 42 53 14 8 20 14 12 15 -11 0 -10 5 4 20 14 15 21 17 32 9 11
-9 12 -9 8 4 -7 17 7 29 39 32 36 4 37 5 32 14 -7 11 31 22 59 17 11 -2 15 -1
9 1 -6 2 -8 17 -6 33 l4 30 -90 0 c-50 0 -94 5 -97 10 -3 6 0 10 7 10 9 0 9 3
-2 10 -8 5 -19 10 -25 10 -5 0 -3 -5 5 -10 10 -6 11 -10 2 -10 -21 0 -103 56
-95 65 5 4 0 5 -10 2 -11 -4 -20 -1 -23 8 -4 8 -9 13 -13 10 -8 -4 -81 31 -91
44 -3 3 -27 18 -55 33 -27 15 -49 32 -48 37 2 6 -4 8 -12 5 -14 -6 -60 56 -88
118 -12 29 -31 35 -56 19z"/>
<path d="M2500 1293 c-14 -14 -24 -33 -22 -41 2 -8 -1 -11 -8 -7 -6 3 -10 3
-9 -2 4 -22 -3 -32 -18 -27 -14 5 -15 4 -4 -4 7 -5 11 -15 7 -21 -13 -20 -95
-63 -107 -55 -7 4 -9 3 -5 -4 8 -13 -23 -31 -42 -25 -7 3 -11 0 -10 -7 4 -15
-120 -82 -134 -73 -7 3 -8 1 -4 -5 8 -14 -30 -36 -46 -26 -7 4 -8 3 -4 -4 13
-22 -50 -42 -134 -42 l-80 0 0 -30 c0 -24 4 -30 23 -30 18 0 19 -2 7 -11 -12
-8 -10 -9 9 -4 16 5 21 4 17 -4 -5 -7 -1 -8 10 -4 10 4 15 2 11 -3 -3 -6 -1
-16 5 -24 8 -12 9 -12 4 3 -6 18 2 22 19 9 17 -12 15 -44 -2 -37 -13 5 -14 3
-3 -10 12 -15 14 -15 22 -1 5 9 6 22 2 29 -5 9 -3 8 7 -1 8 -7 14 -18 14 -25
0 -7 9 -11 19 -9 14 3 17 -1 12 -13 -3 -9 -2 -14 3 -11 13 8 34 -21 25 -35 -5
-8 -3 -9 6 -4 10 6 12 4 7 -9 -4 -9 -3 -14 2 -11 5 3 13 -4 16 -16 6 -17 12
-19 33 -13 15 4 35 7 44 8 9 0 14 4 12 8 -3 4 1 8 8 8 7 0 42 14 76 30 35 17
69 27 74 23 6 -3 8 -1 5 4 -8 12 16 24 36 19 6 -1 8 -1 4 2 -12 6 105 81 118
75 7 -2 18 3 25 12 7 8 9 15 5 15 -4 0 -2 7 5 15 7 8 16 12 21 9 5 -3 8 0 7 7
-2 6 3 14 11 17 10 3 11 0 5 -9 -7 -12 -5 -12 9 0 14 11 18 11 23 -3 3 -9 11
-16 17 -16 5 0 2 9 -8 20 -10 11 -22 17 -26 14 -5 -3 -9 0 -9 5 0 6 5 11 10
11 23 0 20 30 -4 57 -15 15 -24 34 -21 41 3 7 1 11 -3 8 -4 -3 -14 15 -21 39
-16 55 -11 157 8 163 9 3 11 0 6 -8 -6 -9 -4 -11 5 -5 10 6 10 11 -3 20 -10 7
-17 19 -17 26 0 25 -44 20 -70 -8z m45 9 c6 -4 10 -52 10 -107 0 -95 2 -103
34 -160 l34 -59 -54 -48 c-30 -27 -45 -45 -35 -42 14 5 17 4 12 -5 -5 -7 -15
-10 -23 -7 -8 3 -40 -11 -71 -33 -73 -49 -158 -92 -249 -124 l-72 -26 -30 53
c-37 66 -98 119 -162 142 -34 13 -49 23 -49 36 0 16 9 18 77 18 l78 0 203 116
202 117 38 68 c38 71 40 74 57 61z"/>
<path d="M2765 1271 c-3 -5 -2 -12 3 -15 5 -3 9 1 9 9 0 17 -3 19 -12 6z"/>
<path d="M2890 1270 c-9 -6 -10 -10 -3 -10 6 0 15 5 18 10 8 12 4 12 -15 0z"/>
<path d="M490 1259 c0 -5 5 -7 10 -4 6 3 10 8 10 11 0 2 -4 4 -10 4 -5 0 -10
-5 -10 -11z"/>
<path d="M2946 1253 c-6 -14 -5 -15 5 -6 7 7 10 15 7 18 -3 3 -9 -2 -12 -12z"/>
<path d="M936 1229 c5 -8 1 -10 -36 -13 -8 -1 -14 -8 -12 -15 2 -8 -3 -11 -12
-8 -11 4 -13 1 -9 -10 4 -11 2 -14 -5 -9 -15 9 -5 -20 20 -56 10 -14 18 -31
18 -36 0 -20 18 -22 36 -5 17 17 17 17 11 -5 -3 -13 -3 -21 1 -17 4 4 8 21 9
38 3 45 20 145 22 129 0 -7 6 -10 12 -7 15 10 3 19 -31 21 -17 1 -27 -2 -24
-7z m24 -31 c0 -36 -20 -98 -31 -98 -6 0 -7 -6 -3 -12 4 -7 -7 3 -23 22 -35
40 -32 61 12 90 39 25 45 24 45 -2z"/>
<path d="M2670 1193 c0 -27 9 -68 20 -92 19 -40 21 -42 41 -30 11 8 20 18 19
22 -1 4 5 18 13 31 18 26 11 76 -10 76 -8 0 -11 5 -7 12 5 7 2 9 -7 6 -8 -3
-23 0 -34 8 -30 22 -35 17 -35 -33z m55 7 c41 -25 50 -48 30 -70 -9 -10 -15
-23 -13 -30 2 -7 -5 -14 -14 -15 -20 -4 -48 59 -48 105 0 36 3 36 45 10z"/>
<path d="M736 1125 c20 -30 24 -31 17 -6 -3 11 -11 22 -19 25 -11 4 -11 0 2
-19z"/>
<path d="M2928 1143 c7 -3 16 -2 19 1 4 3 -2 6 -13 5 -11 0 -14 -3 -6 -6z"/>
<path d="M1370 1136 c0 -2 7 -7 16 -10 8 -3 12 -2 9 4 -6 10 -25 14 -25 6z"/>
<path d="M2785 1130 c-3 -5 -1 -10 4 -10 6 0 11 5 11 10 0 6 -2 10 -4 10 -3 0
-8 -4 -11 -10z"/>
<path d="M2795 1100 c-3 -6 1 -7 9 -4 18 7 21 14 7 14 -6 0 -13 -4 -16 -10z"/>
<path d="M999 1087 c6 -8 7 -18 3 -22 -4 -5 -1 -5 6 -1 10 6 10 11 1 22 -6 8
-14 14 -16 14 -3 0 0 -6 6 -13z"/>
<path d="M976 1077 c3 -10 9 -15 12 -12 3 3 0 11 -7 18 -10 9 -11 8 -5 -6z"/>
<path d="M3086 1072 c-3 -5 1 -9 9 -9 8 0 12 4 9 9 -3 4 -7 8 -9 8 -2 0 -6 -4
-9 -8z"/>
<path d="M1457 1059 c7 -7 15 -10 18 -7 3 3 -2 9 -12 12 -14 6 -15 5 -6 -5z"/>
<path d="M2735 1020 c-3 -5 -1 -10 4 -10 6 0 11 5 11 10 0 6 -2 10 -4 10 -3 0
-8 -4 -11 -10z"/>
<path d="M2775 1019 c-4 -6 -5 -12 -2 -15 2 -3 7 2 10 11 7 17 1 20 -8 4z"/>
<path d="M3076 993 c-6 -14 -5 -15 5 -6 7 7 10 15 7 18 -3 3 -9 -2 -12 -12z"/>
<path d="M3052 974 c10 -10 20 -16 22 -13 3 3 -5 11 -17 18 -21 13 -21 12 -5
-5z"/>
<path d="M575 969 c-4 -6 -5 -12 -2 -15 2 -3 7 2 10 11 7 17 1 20 -8 4z"/>
<path d="M718 973 c7 -3 16 -2 19 1 4 3 -2 6 -13 5 -11 0 -14 -3 -6 -6z"/>
<path d="M953 910 c-13 -5 -23 -11 -23 -14 0 -8 30 0 42 12 14 14 11 14 -19 2z"/>
<path d="M1020 881 c0 -5 5 -13 10 -16 6 -3 10 -2 10 4 0 5 -4 13 -10 16 -5 3
-10 2 -10 -4z"/>
<path d="M1750 820 c-8 -5 -10 -10 -5 -10 6 0 17 5 25 10 8 5 11 10 5 10 -5 0
-17 -5 -25 -10z"/>
<path d="M1626 773 c-6 -14 -5 -15 5 -6 7 7 10 15 7 18 -3 3 -9 -2 -12 -12z"/>
<path d="M1780 781 c-8 -6 -18 -8 -22 -5 -4 3 -18 -1 -30 -8 -13 -7 -30 -13
-38 -13 -8 0 -15 -5 -16 -10 -2 -23 -17 -44 -27 -38 -5 3 -7 1 -3 -5 3 -6 2
-13 -4 -17 -23 -14 -10 -35 23 -36 39 -1 69 -11 68 -24 -1 -6 9 -11 21 -11
l22 -1 -20 16 c-17 14 -18 19 -8 29 7 7 16 35 20 62 4 27 10 47 14 45 4 -3 10
2 14 10 6 17 6 18 -14 6z m-30 -65 c0 -53 -12 -63 -67 -56 l-43 5 19 29 c18
27 67 66 84 66 4 0 7 -20 7 -44z"/>
<path d="M1876 764 c-11 -28 -6 -79 9 -100 8 -12 12 -24 9 -27 -3 -3 5 -3 18
0 16 3 19 2 10 -5 -11 -7 -11 -10 3 -15 9 -4 13 -3 10 3 -3 6 -1 10 5 10 6 0
8 5 4 11 -5 8 3 10 25 7 17 -2 31 -1 31 4 0 5 5 6 12 2 6 -4 -3 14 -21 39 -18
27 -27 48 -21 52 5 3 10 12 10 18 0 9 -2 9 -8 0 -9 -14 -28 -12 -59 5 -28 15
-30 15 -37 -4z m62 -17 c6 0 10 -2 7 -5 -2 -3 7 -18 20 -34 14 -16 25 -33 25
-38 0 -12 -80 -17 -90 -5 -8 10 -13 44 -11 79 1 13 6 16 19 11 9 -4 23 -8 30
-8z"/>
<path d="M1938 773 c7 -3 16 -2 19 1 4 3 -2 6 -13 5 -11 0 -14 -3 -6 -6z"/>
<path d="M2450 730 c0 -5 5 -10 11 -10 5 0 7 5 4 10 -3 6 -8 10 -11 10 -2 0
-4 -4 -4 -10z"/>
<path d="M1769 663 c-13 -16 -12 -17 4 -4 16 13 21 21 13 21 -2 0 -10 -8 -17
-17z"/>
<path d="M1615 590 c-3 -5 -1 -10 4 -10 6 0 11 5 11 10 0 6 -2 10 -4 10 -3 0
-8 -4 -11 -10z"/>
<path d="M1980 569 c0 -5 5 -7 10 -4 6 3 10 8 10 11 0 2 -4 4 -10 4 -5 0 -10
-5 -10 -11z"/>
<path d="M1760 566 c0 -4 7 -14 15 -22 8 -9 15 -11 15 -6 0 5 -7 15 -15 22 -8
7 -15 9 -15 6z"/>
<path d="M1538 553 c13 -3 19 -9 16 -15 -4 -7 -2 -8 5 -4 17 11 3 26 -22 25
-22 -2 -22 -2 1 -6z"/>
<path d="M1624 553 c5 -9 1 -13 -11 -13 -16 -1 -16 -2 -2 -10 9 -5 22 -24 30
-42 7 -18 21 -39 31 -46 10 -7 15 -19 11 -29 -5 -12 -2 -15 9 -11 9 4 35 0 59
-9 28 -9 61 -13 91 -10 26 3 49 3 51 -1 2 -4 2 -1 0 7 -2 8 2 11 12 7 8 -3 15
-1 15 4 0 6 7 10 16 10 9 0 12 -5 8 -12 -4 -7 -3 -8 5 -4 9 6 9 11 1 21 -8 9
-6 15 7 20 10 5 22 7 28 6 5 -2 7 1 3 4 -4 4 2 25 13 47 11 22 18 42 15 46 -9
9 -76 9 -76 0 0 -4 -7 -8 -15 -8 -9 0 -26 -9 -38 -20 -26 -25 -61 -35 -84 -25
-10 5 -25 9 -33 11 -8 2 -19 10 -26 18 -6 8 -31 18 -55 22 -24 4 -50 12 -58
18 -11 8 -13 8 -7 -1z m131 -58 c48 -32 82 -32 129 0 47 32 116 45 116 22 0
-26 -61 -88 -105 -108 -22 -10 -55 -19 -73 -19 -66 0 -146 50 -179 114 l-15
29 45 -6 c25 -4 62 -18 82 -32z"/>
<path d="M2070 469 c0 -5 5 -7 10 -4 6 3 10 8 10 11 0 2 -4 4 -10 4 -5 0 -10
-5 -10 -11z"/>
<path d="M1575 440 c-3 -6 1 -7 10 -4 11 5 14 2 9 -12 -5 -15 -4 -16 4 -4 11
15 7 30 -8 30 -5 0 -12 -4 -15 -10z"/>
<path d="M2051 398 c-14 -23 -14 -23 8 -4 22 20 25 26 13 26 -4 0 -13 -10 -21
-22z"/>
</g>
</svg>
