<?xml version="1.0" encoding="UTF-8" standalone="no"?>
<!DOCTYPE svg PUBLIC "-//W3C//DTD SVG 1.1//EN" "http://www.w3.org/Graphics/SVG/1.1/DTD/svg11.dtd">
<svg version="1.1" xmlns="http://www.w3.org/2000/svg" xmlns:xlink="http://www.w3.org/1999/xlink" preserveAspectRatio="xMidYMid meet" viewBox="0 0 256 256" width="256" height="256"><defs><path d="M-401.43 655.6L984.93 655.6L984.93 1657.12L-401.43 1657.12L-401.43 655.6Z" id="j3g40VMbiZ"></path><path d="M133.21 62.65L135.85 62.92L138.46 63.29L141.03 63.76L143.57 64.34L146.07 65.01L148.53 65.77L150.95 66.63L153.32 67.58L155.64 68.61L157.92 69.74L160.15 70.95L162.32 72.24L164.43 73.61L166.49 75.06L168.5 76.59L170.43 78.19L172.31 79.86L174.12 81.6L175.86 83.41L177.53 85.29L179.14 87.23L180.66 89.23L182.11 91.29L183.48 93.4L184.77 95.58L185.98 97.8L187.11 100.08L188.15 102.4L189.09 104.77L189.95 107.19L190.72 109.65L191.39 112.15L191.96 114.69L192.43 117.26L192.8 119.87L193.07 122.51L193.23 125.18L193.29 127.88L193.23 130.57L193.07 133.24L192.8 135.88L192.43 138.49L191.96 141.06L191.39 143.6L190.72 146.1L189.95 148.56L189.09 150.98L188.15 153.35L187.11 155.67L185.98 157.95L184.77 160.17L183.48 162.35L182.11 164.46L180.66 166.52L179.14 168.52L177.53 170.46L175.86 172.34L174.12 174.15L172.31 175.89L170.43 177.56L168.5 179.16L166.49 180.69L164.43 182.14L162.32 183.51L160.15 184.8L157.92 186.01L155.64 187.14L153.32 188.17L150.95 189.12L148.53 189.98L146.07 190.75L143.57 191.41L141.03 191.99L138.46 192.46L135.85 192.83L133.21 193.1L130.54 193.26L127.84 193.32L125.15 193.26L122.48 193.1L119.84 192.83L117.23 192.46L114.65 191.99L112.12 191.41L109.62 190.75L107.16 189.98L104.74 189.12L102.37 188.17L100.05 187.14L97.77 186.01L95.54 184.8L93.37 183.51L91.25 182.14L89.19 180.69L87.19 179.16L85.25 177.56L83.38 175.89L81.57 174.15L79.83 172.34L78.15 170.46L76.55 168.52L75.03 166.52L73.58 164.46L72.2 162.35L70.91 160.17L69.7 157.95L68.58 155.67L67.54 153.35L66.59 150.98L65.74 148.56L64.97 146.1L64.3 143.6L63.73 141.06L63.26 138.49L62.88 135.88L62.62 133.24L62.45 130.57L62.4 127.88L62.45 125.18L62.62 122.51L62.88 119.87L63.26 117.26L63.73 114.69L64.3 112.15L64.97 109.65L65.74 107.19L66.59 104.77L67.54 102.4L68.58 100.08L69.7 97.8L70.91 95.58L72.2 93.4L73.58 91.29L75.03 89.23L76.55 87.23L78.15 85.29L79.83 83.41L81.57 81.6L83.38 79.86L85.25 78.19L87.19 76.59L89.19 75.06L91.25 73.61L93.37 72.24L95.54 70.95L97.77 69.74L100.05 68.61L102.37 67.58L104.74 66.63L107.16 65.77L109.62 65.01L112.12 64.34L114.65 63.76L117.23 63.29L119.84 62.92L122.48 62.65L125.15 62.49L127.84 62.43L130.54 62.49L133.21 62.65ZM129.3 71.51L128.94 71.51L128.63 71.52L128.38 71.53L128.17 71.54L128.02 71.55L127.93 71.55L127.9 71.55L127.87 71.55L127.78 71.55L127.62 71.54L127.42 71.53L127.15 71.52L126.84 71.51L126.47 71.51L126.06 71.5L125.61 71.5L125.11 71.51L124.57 71.52L124 71.53L123.39 71.55L122.75 71.58L122.08 71.62L121.39 71.67L120.67 71.73L119.92 71.8L119.16 71.89L118.38 71.99L117.59 72.1L116.78 72.23L115.97 72.37L115.15 72.54L114.32 72.72L113.49 72.92L112.66 73.14L111.83 73.38L111.01 73.64L110.2 73.93L109.39 74.24L108.6 74.58L107.83 74.94L107.07 75.32L106.33 75.74L105.61 76.18L104.92 76.66L104.26 77.16L103.62 77.7L103.02 78.26L102.39 78.92L101.72 79.65L101.04 80.45L100.33 81.31L99.59 82.23L98.84 83.21L98.07 84.24L97.29 85.31L96.49 86.44L95.68 87.6L94.85 88.81L94.02 90.05L93.18 91.32L92.33 92.61L91.48 93.93L90.63 95.28L89.77 96.64L88.92 98.01L88.06 99.39L87.21 100.78L86.37 102.17L85.54 103.56L84.71 104.94L83.89 106.32L83.09 107.69L82.3 109.04L81.53 110.37L80.77 111.67L80.03 112.96L79.31 114.21L78.62 115.43L77.95 116.61L77.3 117.75L76.69 118.85L76.1 119.9L75.54 120.9L75.02 121.84L74.53 122.73L74.07 123.55L73.66 124.31L73.57 124.47L73.5 124.62L73.42 124.78L73.35 124.94L73.29 125.09L73.23 125.25L73.17 125.42L73.12 125.58L73.07 125.74L73.03 125.91L72.99 126.07L72.96 126.24L72.93 126.4L72.9 126.57L72.88 126.74L72.86 126.91L72.85 127.08L72.84 127.24L72.84 127.41L72.83 127.58L72.84 127.75L72.85 127.92L72.86 128.09L72.88 128.25L72.9 128.42L72.92 128.59L72.95 128.76L72.99 128.92L73.03 129.09L73.07 129.25L73.11 129.41L73.17 129.58L73.22 129.74L73.28 129.9L73.34 130.06L73.41 130.21L73.49 130.37L73.56 130.53L73.64 130.68L73.73 130.83L98.51 173.65L98.6 173.81L98.69 173.95L98.79 174.1L98.89 174.24L99 174.38L99.11 174.52L99.22 174.65L99.33 174.78L99.45 174.91L99.57 175.03L99.7 175.16L99.83 175.27L99.96 175.39L100.09 175.5L100.22 175.6L100.36 175.7L100.5 175.8L100.65 175.9L100.79 175.99L100.94 176.08L101.09 176.16L101.24 176.24L101.39 176.32L101.55 176.39L101.71 176.46L101.87 176.52L102.03 176.58L102.19 176.64L102.36 176.69L102.52 176.74L102.69 176.78L102.86 176.82L103.03 176.85L103.2 176.88L103.37 176.91L103.55 176.93L103.72 176.95L103.9 176.96L104.08 176.96L104.25 176.97L151.12 176.97L151.3 176.96L151.48 176.96L151.65 176.95L151.83 176.93L152 176.91L152.18 176.88L152.35 176.85L152.52 176.82L152.69 176.78L152.86 176.74L153.02 176.69L153.19 176.64L153.35 176.58L153.52 176.52L153.68 176.46L153.83 176.39L153.99 176.31L154.14 176.24L154.3 176.16L154.45 176.07L154.6 175.98L154.74 175.89L154.88 175.8L155.02 175.7L155.16 175.59L155.3 175.49L155.43 175.38L155.56 175.26L155.69 175.15L155.81 175.03L155.93 174.9L156.05 174.77L156.17 174.64L156.28 174.51L156.39 174.37L156.49 174.23L156.6 174.09L156.69 173.94L156.79 173.79L156.88 173.64L181.53 130.77L181.61 130.62L181.69 130.47L181.77 130.32L181.84 130.16L181.91 130L181.97 129.84L182.03 129.68L182.09 129.52L182.14 129.36L182.19 129.2L182.23 129.04L182.27 128.87L182.3 128.71L182.33 128.54L182.35 128.37L182.38 128.21L182.39 128.04L182.41 127.87L182.41 127.71L182.42 127.54L182.42 127.37L182.41 127.2L182.4 127.03L182.39 126.87L182.37 126.7L182.35 126.53L182.33 126.37L182.3 126.2L182.26 126.03L182.23 125.87L182.18 125.71L182.14 125.54L182.08 125.38L182.03 125.22L181.97 125.06L181.91 124.9L181.84 124.74L181.76 124.59L181.69 124.43L181.61 124.28L181.19 123.52L180.74 122.7L180.25 121.81L179.73 120.87L179.18 119.87L178.6 118.82L177.98 117.72L177.34 116.58L176.68 115.4L175.98 114.18L175.27 112.93L174.54 111.65L173.79 110.34L173.02 109.01L172.23 107.66L171.43 106.3L170.62 104.92L169.8 103.54L168.97 102.15L168.13 100.76L167.28 99.37L166.43 97.99L165.58 96.62L164.73 95.26L163.88 93.92L163.03 92.6L162.19 91.3L161.35 90.03L160.52 88.79L159.7 87.59L158.89 86.43L158.09 85.3L157.31 84.23L156.54 83.2L155.79 82.22L155.06 81.31L154.35 80.45L153.66 79.65L153 78.92L152.37 78.26L151.76 77.7L151.13 77.16L150.47 76.66L149.79 76.18L149.08 75.74L148.35 75.32L147.6 74.94L146.83 74.58L146.05 74.24L145.26 73.93L144.45 73.64L143.65 73.38L142.83 73.14L142.02 72.92L141.2 72.72L140.39 72.54L139.58 72.37L138.78 72.23L137.99 72.1L137.21 71.99L136.45 71.89L135.7 71.8L134.97 71.73L134.27 71.67L133.59 71.62L132.93 71.58L132.31 71.55L131.71 71.53L131.15 71.52L130.63 71.51L130.14 71.5L129.7 71.5L129.3 71.51Z" id="i9nhFOkRN"></path><path d="M127.98 34.95C76.65 34.95 35.04 76.56 35.04 127.89C35.04 179.22 76.65 220.83 127.98 220.83C179.31 220.83 220.93 179.22 220.93 127.89C220.93 76.56 179.31 34.95 127.98 34.95Z" id="a2uJWuruEC"></path><path d="M208.25 174.45L47.75 80.96" id="a3aej7bijN"></path><path d="M47.75 61.21C36.84 61.21 28 70.05 28 80.96C28 91.87 36.84 100.71 47.75 100.71C58.66 100.71 67.51 91.87 67.51 80.96C67.51 70.05 58.66 61.21 47.75 61.21Z" id="b3HG3klKWj"></path><path d="M47.5 72.46C42.84 72.46 39.06 76.24 39.06 80.9C39.06 85.56 42.84 89.34 47.5 89.34C52.16 89.34 55.94 85.56 55.94 80.9C55.94 76.24 52.16 72.46 47.5 72.46Z" id="a10UtMmqSf"></path><path d="M208.25 166.01C203.59 166.01 199.81 169.79 199.81 174.45C199.81 179.11 203.59 182.89 208.25 182.89C212.91 182.89 216.69 179.11 216.69 174.45C216.69 169.79 212.91 166.01 208.25 166.01Z" id="a1GRGmgObS"></path><path d="M208.25 154.7C197.34 154.7 188.49 163.54 188.49 174.45C188.49 185.36 197.34 194.2 208.25 194.2C219.16 194.2 228 185.36 228 174.45C228 163.54 219.16 154.7 208.25 154.7Z" id="b1nytwWhsN"></path><path d="M208.25 80.96L47.75 174.45" id="bNf4Dd4Kr"></path><path d="M47.75 166.01C43.09 166.01 39.31 169.79 39.31 174.45C39.31 179.11 43.09 182.89 47.75 182.89C52.41 182.89 56.19 179.11 56.19 174.45C56.19 169.79 52.41 166.01 47.75 166.01Z" id="ejqETMd"></path><path d="M47.75 154.7C36.84 154.7 28 163.54 28 174.45C28 185.36 36.84 194.2 47.75 194.2C58.66 194.2 67.51 185.36 67.51 174.45C67.51 163.54 58.66 154.7 47.75 154.7Z" id="f3OgCBOnWB"></path><path d="M208.25 72.52C203.59 72.52 199.81 76.3 199.81 80.96C199.81 85.62 203.59 89.4 208.25 89.4C212.91 89.4 216.69 85.62 216.69 80.96C216.69 76.3 212.91 72.52 208.25 72.52Z" id="a1KgSqMsXG"></path><path d="M208.25 61.21C197.34 61.21 188.49 70.05 188.49 80.96C188.49 91.87 197.34 100.71 208.25 100.71C219.16 100.71 228 91.87 228 80.96C228 70.05 219.16 61.21 208.25 61.21Z" id="e4AvU8GlpZ"></path><path d="M127.96 35.03L127.96 220.97" id="a3m2Fterlj"></path><path d="M127.96 201.22C117.05 201.22 108.21 210.06 108.21 220.97C108.21 231.88 117.05 240.72 127.96 240.72C138.87 240.72 147.72 231.88 147.72 220.97C147.72 210.06 138.87 201.22 127.96 201.22Z" id="aa55RdZ7b"></path><path d="M127.94 212.55C123.28 212.55 119.5 216.33 119.5 220.99C119.5 225.66 123.28 229.43 127.94 229.43C132.6 229.43 136.38 225.66 136.38 220.99C136.38 216.33 132.6 212.55 127.94 212.55Z" id="bdTRLBJDP"></path><path d="M127.96 26.59C123.3 26.59 119.52 30.37 119.52 35.03C119.52 39.69 123.3 43.47 127.96 43.47C132.63 43.47 136.4 39.69 136.4 35.03C136.4 30.37 132.63 26.59 127.96 26.59Z" id="a1YCbNVR6v"></path><path d="M127.96 15.28C117.05 15.28 108.21 24.12 108.21 35.03C108.21 45.94 117.05 54.78 127.96 54.78C138.87 54.78 147.72 45.94 147.72 35.03C147.72 24.12 138.87 15.28 127.96 15.28Z" id="m6JVTXx2C"></path><path d="M803.53 93.41C804.28 94.02 804.39 95.11 803.79 95.85C803.74 95.91 803.69 95.97 803.63 96.03C802.9 96.78 797.08 102.84 796.35 103.6C795.72 104.24 794.68 104.25 794.04 103.62C794.03 103.61 794.02 103.61 794.01 103.6C790.53 100.53 786.05 98.84 781.41 98.84C770.87 98.84 763.12 107.61 763.12 118.07C763.12 128.43 770.96 137.01 781.52 137.01C785.91 137.01 790.67 135.43 794.03 132.53C794.68 131.97 795.89 131.97 796.45 132.63C797.18 133.4 803 139.6 803.73 140.37C804.39 141.03 804.29 142.24 803.64 142.89C797.29 149.05 789.27 151.95 780.97 151.95C762.31 151.95 747.28 137.11 747.28 118.44C747.23 99.87 762.24 84.78 780.81 84.73C780.85 84.73 780.9 84.73 780.95 84.73C790.28 84.73 797.19 87.63 803.53 93.41Z" id="acUSLrdkB"></path><path d="M833.49 87.44C833.52 86.47 834.3 85.7 835.27 85.67C836.38 85.67 845.26 85.67 846.37 85.67C847.35 85.67 848.15 86.46 848.15 87.44C848.15 89.01 848.15 96.85 848.15 110.96L874.84 110.96C874.84 96.85 874.84 89.01 874.84 87.44C874.84 86.46 875.63 85.67 876.61 85.67C876.61 85.67 876.61 85.67 876.61 85.67C877.72 85.67 886.61 85.67 887.72 85.67C888.68 85.7 889.46 86.47 889.49 87.44C889.49 93.62 889.49 143.05 889.49 149.23C889.46 150.19 888.68 150.97 887.72 151C886.61 151 877.72 151 876.61 151C875.63 151 874.84 150.21 874.84 149.23C874.84 149.23 874.84 149.23 874.84 149.23C874.84 147.59 874.84 139.41 874.84 124.68L848.15 124.68C848.15 139.41 848.15 147.59 848.15 149.23C848.15 150.21 847.35 151 846.37 151C845.26 151 836.38 151 835.27 151C834.3 150.97 833.52 150.19 833.49 149.23C833.49 136.87 833.49 99.8 833.49 87.44Z" id="c252p0ssse"></path><path d="M924.21 87.44C924.24 86.47 925.02 85.7 925.99 85.67C927.11 85.67 936.07 85.67 937.19 85.67C938.15 85.7 938.93 86.47 938.96 87.44C938.96 93.62 938.96 143.05 938.96 149.23C938.93 150.19 938.15 150.97 937.19 151C936.07 151 927.11 151 925.99 151C925.02 150.97 924.24 150.19 924.21 149.23C924.21 136.87 924.21 99.8 924.21 87.44Z" id="k2JGuqNGP7"></path><path d="M973.58 86.41C973.62 85.47 974.41 84.72 975.36 84.73C975.51 84.73 976.29 84.73 977.69 84.73L1014.93 120.57L1015.02 120.57C1015.02 100.69 1015.02 89.65 1015.02 87.44C1015.02 86.46 1015.82 85.67 1016.8 85.67C1016.8 85.67 1016.8 85.67 1016.8 85.67C1017.92 85.67 1026.88 85.67 1028 85.67C1028.96 85.7 1029.74 86.47 1029.77 87.44C1029.77 93.72 1029.77 143.98 1029.77 150.27C1029.73 151.21 1028.94 151.96 1028 151.95C1027.85 151.95 1026.65 151.95 1026.5 151.95C1026.07 151.89 1025.65 151.73 1025.29 151.48C1022.83 149.01 1010.54 136.65 988.42 114.41L988.33 114.41C988.33 135.3 988.33 146.91 988.33 149.23C988.33 150.21 987.54 151 986.56 151C986.56 151 986.56 151 986.56 151C985.45 151 976.56 151 975.45 151C974.48 150.97 973.71 150.19 973.68 149.23C973.66 136.66 973.6 98.98 973.58 86.41Z" id="a6EfYTNQs"></path><path d="M1072.89 99.39C1064.89 99.39 1060.44 99.39 1059.56 99.39C1058.58 99.39 1057.78 98.59 1057.78 97.61C1057.78 97.61 1057.78 97.61 1057.78 97.61C1057.78 96.6 1057.78 88.46 1057.78 87.44C1057.78 86.46 1058.58 85.67 1059.56 85.67C1059.56 85.67 1059.56 85.67 1059.56 85.67C1063.7 85.67 1096.85 85.67 1101 85.67C1101.98 85.67 1102.77 86.46 1102.77 87.44C1102.77 87.44 1102.77 87.44 1102.77 87.44C1102.77 88.46 1102.77 96.6 1102.77 97.61C1102.77 98.59 1101.98 99.39 1101 99.39C1101 99.39 1101 99.39 1101 99.39C1100.11 99.39 1095.66 99.39 1087.65 99.39C1087.65 129.29 1087.65 145.9 1087.65 149.23C1087.62 150.19 1086.84 150.97 1085.88 151C1084.76 151 1075.8 151 1074.68 151C1073.71 150.97 1072.93 150.19 1072.9 149.23C1072.9 142.58 1072.9 125.97 1072.89 99.39Z" id="ao0l7Y76d"></path><path d="M1150.84 84.74L1150.89 84.75L1150.94 84.75L1150.99 84.76L1151.04 84.77L1151.09 84.78L1151.14 84.8L1151.18 84.81L1151.23 84.82L1151.28 84.84L1151.32 84.86L1151.37 84.88L1151.41 84.89L1151.46 84.92L1151.5 84.94L1151.55 84.96L1151.59 84.98L1151.63 85.01L1151.67 85.03L1151.71 85.06L1151.75 85.09L1151.79 85.12L1151.83 85.15L1151.87 85.18L1151.91 85.21L1151.94 85.25L1151.98 85.28L1152.01 85.32L1152.05 85.35L1152.08 85.39L1152.11 85.43L1152.14 85.46L1152.17 85.5L1152.2 85.55L1152.23 85.59L1152.25 85.63L1152.28 85.67L1152.31 85.72L1152.33 85.76L1181.54 148.57L1181.58 148.66L1181.62 148.76L1181.65 148.85L1181.67 148.94L1181.69 149.03L1181.71 149.12L1181.72 149.2L1181.73 149.29L1181.73 149.38L1181.73 149.46L1181.72 149.55L1181.71 149.63L1181.7 149.71L1181.68 149.8L1181.65 149.87L1181.63 149.95L1181.6 150.03L1181.56 150.1L1181.52 150.17L1181.48 150.24L1181.44 150.31L1181.39 150.37L1181.33 150.44L1181.28 150.5L1181.22 150.55L1181.15 150.61L1181.09 150.66L1181.02 150.71L1180.94 150.75L1180.87 150.79L1180.79 150.83L1180.71 150.86L1180.62 150.9L1180.53 150.92L1180.44 150.95L1180.35 150.96L1180.25 150.98L1180.15 150.99L1180.05 151L1179.94 151L1169.58 151L1169.46 151L1169.34 151L1169.22 150.99L1169.11 150.98L1168.99 150.97L1168.89 150.96L1168.78 150.95L1168.68 150.93L1168.58 150.91L1168.48 150.88L1168.39 150.86L1168.29 150.83L1168.2 150.8L1168.12 150.77L1168.03 150.73L1167.95 150.69L1167.87 150.65L1167.79 150.6L1167.71 150.55L1167.63 150.5L1167.56 150.44L1167.49 150.38L1167.41 150.32L1167.34 150.25L1167.28 150.18L1167.21 150.11L1167.14 150.03L1167.07 149.95L1167.01 149.87L1166.94 149.78L1166.88 149.69L1166.82 149.59L1166.75 149.49L1166.69 149.38L1166.63 149.28L1166.57 149.16L1166.5 149.05L1166.44 148.92L1166.38 148.8L1166.32 148.67L1162.95 141.29L1137.56 141.29L1134.2 148.76L1134.16 148.86L1134.11 148.96L1134.07 149.06L1134.02 149.16L1133.96 149.26L1133.91 149.35L1133.85 149.44L1133.79 149.53L1133.73 149.62L1133.66 149.7L1133.59 149.79L1133.52 149.87L1133.45 149.94L1133.37 150.02L1133.3 150.09L1133.22 150.16L1133.13 150.23L1133.05 150.3L1132.97 150.36L1132.88 150.42L1132.79 150.48L1132.7 150.53L1132.61 150.58L1132.51 150.63L1132.42 150.68L1132.32 150.72L1132.22 150.76L1132.12 150.8L1132.02 150.84L1131.92 150.87L1131.81 150.89L1131.71 150.92L1131.6 150.94L1131.49 150.96L1131.39 150.98L1131.28 150.99L1131.17 151L1131.06 151L1130.95 151L1130.84 151L1120.57 151L1120.47 151L1120.37 150.99L1120.27 150.98L1120.17 150.96L1120.08 150.95L1119.99 150.92L1119.9 150.9L1119.82 150.86L1119.74 150.83L1119.66 150.79L1119.59 150.75L1119.51 150.71L1119.44 150.66L1119.38 150.61L1119.31 150.55L1119.26 150.5L1119.2 150.44L1119.15 150.37L1119.1 150.31L1119.05 150.24L1119.01 150.17L1118.97 150.1L1118.94 150.03L1118.91 149.95L1118.88 149.87L1118.86 149.8L1118.84 149.71L1118.83 149.63L1118.82 149.55L1118.81 149.46L1118.81 149.38L1118.81 149.29L1118.82 149.2L1118.83 149.12L1118.85 149.03L1118.87 148.94L1118.89 148.85L1118.92 148.76L1118.96 148.66L1119 148.57L1148.21 85.76L1148.23 85.72L1148.26 85.67L1148.28 85.63L1148.31 85.59L1148.34 85.54L1148.37 85.5L1148.4 85.46L1148.43 85.42L1148.46 85.39L1148.49 85.35L1148.53 85.31L1148.56 85.28L1148.6 85.24L1148.64 85.21L1148.67 85.18L1148.71 85.15L1148.75 85.12L1148.79 85.09L1148.83 85.06L1148.87 85.03L1148.91 85.01L1148.96 84.98L1149 84.96L1149.04 84.93L1149.09 84.91L1149.13 84.89L1149.18 84.87L1149.22 84.85L1149.27 84.84L1149.32 84.82L1149.36 84.81L1149.41 84.79L1149.46 84.78L1149.51 84.77L1149.56 84.76L1149.61 84.75L1149.66 84.75L1149.71 84.74L1149.76 84.74L1149.81 84.73L1150.74 84.73L1150.79 84.74L1150.84 84.74ZM1143.17 128.6L1157.35 128.6L1150.26 113.2L1150.17 113.2L1143.17 128.6Z" id="a2JeBH2JR2"></path><path d="M1207.85 87.44C1207.88 86.47 1208.65 85.7 1209.62 85.67C1210.74 85.67 1219.7 85.67 1220.82 85.67C1221.79 85.7 1222.56 86.47 1222.59 87.44C1222.59 93.62 1222.59 143.05 1222.59 149.23C1222.56 150.19 1221.79 150.97 1220.82 151C1219.7 151 1210.74 151 1209.62 151C1208.65 150.97 1207.88 150.19 1207.85 149.23C1207.85 136.87 1207.85 99.8 1207.85 87.44Z" id="c1CGCRUyDY"></path></defs><g><g><g><use xlink:href="#j3g40VMbiZ" opacity="1" fill="#88ba0a" fill-opacity="1"></use></g><g><use xlink:href="#i9nhFOkRN" opacity="1" fill="#0f8ef0" fill-opacity="1"></use><g><use xlink:href="#i9nhFOkRN" opacity="1" fill-opacity="0" stroke="#0f8ef0" stroke-width="6" stroke-opacity="0"></use></g></g><g><use xlink:href="#a2uJWuruEC" opacity="1" fill="#08125a" fill-opacity="0"></use><g><use xlink:href="#a2uJWuruEC" opacity="1" fill-opacity="0" stroke="#0f8ef0" stroke-width="6" stroke-opacity="1"></use></g></g><g><use xlink:href="#a3aej7bijN" opacity="1" fill="#091a5a" fill-opacity="0"></use><g><use xlink:href="#a3aej7bijN" opacity="1" fill-opacity="0" stroke="#0f8ef0" stroke-width="6" stroke-opacity="1"></use></g></g><g><use xlink:href="#b3HG3klKWj" opacity="1" fill="#091a5a" fill-opacity="0"></use><g><use xlink:href="#b3HG3klKWj" opacity="1" fill-opacity="0" stroke="#0f8ef0" stroke-width="6" stroke-opacity="1"></use></g></g><g><use xlink:href="#a10UtMmqSf" opacity="1" fill="#0f8ef0" fill-opacity="1"></use><g><use xlink:href="#a10UtMmqSf" opacity="1" fill-opacity="0" stroke="#0f8ef0" stroke-width="1" stroke-opacity="1"></use></g></g><g><use xlink:href="#a1GRGmgObS" opacity="1" fill="#0f8ef0" fill-opacity="1"></use><g><use xlink:href="#a1GRGmgObS" opacity="1" fill-opacity="0" stroke="#0f8ef0" stroke-width="1" stroke-opacity="1"></use></g></g><g><use xlink:href="#b1nytwWhsN" opacity="1" fill="#091a5a" fill-opacity="0"></use><g><use xlink:href="#b1nytwWhsN" opacity="1" fill-opacity="0" stroke="#0f8ef0" stroke-width="6" stroke-opacity="1"></use></g></g><g><use xlink:href="#bNf4Dd4Kr" opacity="1" fill="#091a5a" fill-opacity="0"></use><g><use xlink:href="#bNf4Dd4Kr" opacity="1" fill-opacity="0" stroke="#0f8ef0" stroke-width="6" stroke-opacity="1"></use></g></g><g><use xlink:href="#ejqETMd" opacity="1" fill="#0f8ef0" fill-opacity="1"></use><g><use xlink:href="#ejqETMd" opacity="1" fill-opacity="0" stroke="#0f8ef0" stroke-width="1" stroke-opacity="1"></use></g></g><g><use xlink:href="#f3OgCBOnWB" opacity="1" fill="#091a5a" fill-opacity="0"></use><g><use xlink:href="#f3OgCBOnWB" opacity="1" fill-opacity="0" stroke="#0f8ef0" stroke-width="6" stroke-opacity="1"></use></g></g><g><use xlink:href="#a1KgSqMsXG" opacity="1" fill="#0f8ef0" fill-opacity="1"></use><g><use xlink:href="#a1KgSqMsXG" opacity="1" fill-opacity="0" stroke="#0f8ef0" stroke-width="1" stroke-opacity="1"></use></g></g><g><use xlink:href="#e4AvU8GlpZ" opacity="1" fill="#091a5a" fill-opacity="0"></use><g><use xlink:href="#e4AvU8GlpZ" opacity="1" fill-opacity="0" stroke="#0f8ef0" stroke-width="6" stroke-opacity="1"></use></g></g><g><use xlink:href="#a3m2Fterlj" opacity="1" fill="#091a5a" fill-opacity="0"></use><g><use xlink:href="#a3m2Fterlj" opacity="1" fill-opacity="0" stroke="#0f8ef0" stroke-width="6" stroke-opacity="1"></use></g></g><g><use xlink:href="#aa55RdZ7b" opacity="1" fill="#091a5a" fill-opacity="0"></use><g><use xlink:href="#aa55RdZ7b" opacity="1" fill-opacity="0" stroke="#0f8ef0" stroke-width="6" stroke-opacity="1"></use></g></g><g><use xlink:href="#bdTRLBJDP" opacity="1" fill="#0f8ef0" fill-opacity="1"></use><g><use xlink:href="#bdTRLBJDP" opacity="1" fill-opacity="0" stroke="#0f8ef0" stroke-width="1" stroke-opacity="1"></use></g></g><g><use xlink:href="#a1YCbNVR6v" opacity="1" fill="#0f8ef0" fill-opacity="1"></use><g><use xlink:href="#a1YCbNVR6v" opacity="1" fill-opacity="0" stroke="#0f8ef0" stroke-width="1" stroke-opacity="1"></use></g></g><g><use xlink:href="#m6JVTXx2C" opacity="1" fill="#091a5a" fill-opacity="0"></use><g><use xlink:href="#m6JVTXx2C" opacity="1" fill-opacity="0" stroke="#0f8ef0" stroke-width="6" stroke-opacity="1"></use></g></g><g><use xlink:href="#acUSLrdkB" opacity="1" fill="#0f8ef0fff" fill-opacity="0.24"></use><g><use xlink:href="#acUSLrdkB" opacity="1" fill-opacity="0" stroke="#000000" stroke-width="1" stroke-opacity="0.9"></use></g></g><g><use xlink:href="#c252p0ssse" opacity="1" fill="#0f8ef0fff" fill-opacity="0.24"></use><g><use xlink:href="#c252p0ssse" opacity="1" fill-opacity="0" stroke="#000000" stroke-width="1" stroke-opacity="0.9"></use></g></g><g><use xlink:href="#k2JGuqNGP7" opacity="1" fill="#0f8ef0fff" fill-opacity="0.24"></use><g><use xlink:href="#k2JGuqNGP7" opacity="1" fill-opacity="0" stroke="#000000" stroke-width="1" stroke-opacity="0.9"></use></g></g><g><use xlink:href="#a6EfYTNQs" opacity="1" fill="#0f8ef0fff" fill-opacity="0.24"></use><g><use xlink:href="#a6EfYTNQs" opacity="1" fill-opacity="0" stroke="#000000" stroke-width="1" stroke-opacity="0.9"></use></g></g><g><use xlink:href="#ao0l7Y76d" opacity="1" fill="#0f8ef0fff" fill-opacity="0.24"></use><g><use xlink:href="#ao0l7Y76d" opacity="1" fill-opacity="0" stroke="#000000" stroke-width="1" stroke-opacity="0.9"></use></g></g><g><use xlink:href="#a2JeBH2JR2" opacity="1" fill="#0f8ef0fff" fill-opacity="0.24"></use><g><use xlink:href="#a2JeBH2JR2" opacity="1" fill-opacity="0" stroke="#000000" stroke-width="1" stroke-opacity="0.9"></use></g></g><g><use xlink:href="#c1CGCRUyDY" opacity="1" fill="#0f8ef0fff" fill-opacity="0.24"></use><g><use xlink:href="#c1CGCRUyDY" opacity="1" fill-opacity="0" stroke="#000000" stroke-width="1" stroke-opacity="0.9"></use></g></g></g></g></svg>