<svg width="254" height="91" viewBox="0 0 254 91" fill="none" xmlns="http://www.w3.org/2000/svg">
<path d="M22.3574 49.5121C19.5887 49.5121 16.8821 50.3677 14.58 51.9707C12.2779 53.5738 10.4836 55.8523 9.42402 58.518C8.36446 61.1838 8.08724 64.1171 8.62739 66.9471C9.16755 69.777 10.5008 72.3765 12.4586 74.4168C14.4164 76.4571 16.9108 77.8465 19.6264 78.4094C22.3419 78.9723 25.1566 78.6834 27.7146 77.5792C30.2726 76.475 32.459 74.6052 33.9972 72.206C35.5354 69.8069 36.3564 66.9863 36.3564 64.1009C36.3564 60.2317 34.8815 56.521 32.2562 53.7851C29.6309 51.0491 26.0702 49.5121 22.3574 49.5121ZM28.5681 74.3027C28.4435 74.5281 28.2641 74.7154 28.048 74.8456C27.8319 74.9759 27.5867 75.0446 27.3371 75.0448H17.3111C17.0622 75.0446 16.8177 74.9762 16.602 74.8466C16.3864 74.7169 16.2072 74.5306 16.0823 74.3061L10.7816 64.7597C10.659 64.5394 10.5932 64.2899 10.5905 64.0353C10.5878 63.7807 10.6482 63.5297 10.766 63.3066C11.9004 61.153 15.2724 54.8914 17.0478 53.0412C18.7143 51.3044 22.3696 51.5453 22.3696 51.5453C22.3696 51.5453 25.9361 51.3044 27.6026 53.0412C29.3803 54.888 32.7311 61.1461 33.8577 63.2997C33.9743 63.5222 34.034 63.7721 34.0311 64.0256C34.0282 64.2791 33.9627 64.5275 33.8411 64.747L28.5681 74.3027Z" fill="#303742"/>
<path d="M22.3872 84.8229C33.3671 84.8229 42.268 75.5469 42.268 64.1044C42.268 52.662 33.3671 43.386 22.3872 43.386C11.4073 43.386 2.50635 52.662 2.50635 64.1044C2.50635 75.5469 11.4073 84.8229 22.3872 84.8229Z" stroke="#303742" stroke-width="2" stroke-miterlimit="10"/>
<path d="M39.556 74.4831L5.2251 53.642" stroke="#303742" stroke-width="2" stroke-miterlimit="10"/>
<path d="M5.22526 58.0453C7.55881 58.0453 9.45052 56.0739 9.45052 53.642C9.45052 51.2102 7.55881 49.2388 5.22526 49.2388C2.89171 49.2388 1 51.2102 1 53.642C1 56.0739 2.89171 58.0453 5.22526 58.0453Z" stroke="#303742" stroke-width="2" stroke-miterlimit="10"/>
<path d="M5.17213 55.5108C6.16924 55.5108 6.97756 54.6684 6.97756 53.6293C6.97756 52.5902 6.16924 51.7478 5.17213 51.7478C4.17502 51.7478 3.3667 52.5902 3.3667 53.6293C3.3667 54.6684 4.17502 55.5108 5.17213 55.5108Z" fill="#303742"/>
<path d="M39.5559 76.3648C40.553 76.3648 41.3613 75.5224 41.3613 74.4833C41.3613 73.4442 40.553 72.6018 39.5559 72.6018C38.5588 72.6018 37.7505 73.4442 37.7505 74.4833C37.7505 75.5224 38.5588 76.3648 39.5559 76.3648Z" fill="#303742"/>
<path d="M39.5563 78.8865C41.8899 78.8865 43.7816 76.9151 43.7816 74.4832C43.7816 72.0514 41.8899 70.08 39.5563 70.08C37.2228 70.08 35.3311 72.0514 35.3311 74.4832C35.3311 76.9151 37.2228 78.8865 39.5563 78.8865Z" stroke="#303742" stroke-width="2" stroke-miterlimit="10"/>
<path d="M39.556 53.642L5.2251 74.4831" stroke="#303742" stroke-width="2" stroke-miterlimit="10"/>
<path d="M5.22535 76.3648C6.22246 76.3648 7.03078 75.5224 7.03078 74.4833C7.03078 73.4442 6.22246 72.6018 5.22535 72.6018C4.22824 72.6018 3.41992 73.4442 3.41992 74.4833C3.41992 75.5224 4.22824 76.3648 5.22535 76.3648Z" fill="#303742"/>
<path d="M5.22526 78.8865C7.55881 78.8865 9.45052 76.9151 9.45052 74.4832C9.45052 72.0514 7.55881 70.08 5.22526 70.08C2.89171 70.08 1 72.0514 1 74.4832C1 76.9151 2.89171 78.8865 5.22526 78.8865Z" stroke="#303742" stroke-width="2" stroke-miterlimit="10"/>
<path d="M39.5559 55.5236C40.553 55.5236 41.3613 54.6812 41.3613 53.6421C41.3613 52.603 40.553 51.7606 39.5559 51.7606C38.5588 51.7606 37.7505 52.603 37.7505 53.6421C37.7505 54.6812 38.5588 55.5236 39.5559 55.5236Z" fill="#303742"/>
<path d="M39.5563 58.0453C41.8899 58.0453 43.7816 56.0739 43.7816 53.642C43.7816 51.2102 41.8899 49.2388 39.5563 49.2388C37.2228 49.2388 35.3311 51.2102 35.3311 53.642C35.3311 56.0739 37.2228 58.0453 39.5563 58.0453Z" stroke="#303742" stroke-width="2" stroke-miterlimit="10"/>
<path d="M22.3828 43.4032V84.854" stroke="#303742" stroke-width="2" stroke-miterlimit="10"/>
<path d="M22.383 89.2574C24.7165 89.2574 26.6082 87.2859 26.6082 84.8541C26.6082 82.4222 24.7165 80.4508 22.383 80.4508C20.0494 80.4508 18.1577 82.4222 18.1577 84.8541C18.1577 87.2859 20.0494 89.2574 22.383 89.2574Z" stroke="#303742" stroke-width="2" stroke-miterlimit="10"/>
<path d="M22.3787 86.7414C23.3758 86.7414 24.1841 85.899 24.1841 84.8599C24.1841 83.8208 23.3758 82.9784 22.3787 82.9784C21.3816 82.9784 20.5732 83.8208 20.5732 84.8599C20.5732 85.899 21.3816 86.7414 22.3787 86.7414Z" fill="#303742"/>
<path d="M22.3831 45.2848C23.3802 45.2848 24.1885 44.4425 24.1885 43.4033C24.1885 42.3642 23.3802 41.5219 22.3831 41.5219C21.386 41.5219 20.5776 42.3642 20.5776 43.4033C20.5776 44.4425 21.386 45.2848 22.3831 45.2848Z" fill="#303742"/>
<path d="M22.384 47.8066C24.7175 47.8066 26.6092 45.8351 26.6092 43.4033C26.6092 40.9714 24.7175 39 22.384 39C20.0504 39 18.1587 40.9714 18.1587 43.4033C18.1587 45.8351 20.0504 47.8066 22.384 47.8066Z" stroke="#303742" stroke-width="2" stroke-miterlimit="10"/>
<path d="M69.9939 49.6212C73.8825 49.6212 76.7601 50.8775 79.4044 53.39C79.4846 53.4577 79.55 53.5426 79.5961 53.6388C79.6423 53.7351 79.668 53.8406 79.6717 53.9481C79.6754 54.0557 79.6569 54.1628 79.6175 54.2622C79.5781 54.3617 79.5187 54.4512 79.4432 54.5247L76.4101 57.813C76.3467 57.8803 76.2711 57.9338 76.1876 57.9703C76.1042 58.0068 76.0146 58.0256 75.924 58.0256C75.8335 58.0256 75.7439 58.0068 75.6605 57.9703C75.577 57.9338 75.5014 57.8803 75.438 57.813C73.9876 56.4814 72.1212 55.7466 70.1883 55.7462C65.7931 55.7462 62.5655 59.5555 62.5655 64.0943C62.5655 68.5925 65.832 72.3208 70.2317 72.3208C72.0593 72.3208 74.0425 71.6318 75.4424 70.3756C75.7146 70.1324 76.2201 70.1324 76.4535 70.4161L79.4866 73.7796C79.7588 74.0633 79.7199 74.5901 79.4477 74.8738C76.8034 77.5484 73.4592 78.8047 70.0039 78.8047C62.2267 78.8047 55.9649 72.3613 55.9649 64.2564C55.9601 62.3343 56.3195 60.4302 57.0227 58.6533C57.7258 56.8764 58.7588 55.2617 60.0622 53.9019C61.3657 52.5421 62.9141 51.4639 64.6184 50.7293C66.3228 49.9948 68.1496 49.6182 69.9939 49.6212Z" fill="#303742"/>
<path d="M91.8857 50.7961C91.8921 50.594 91.972 50.402 92.1092 50.259C92.2464 50.116 92.4307 50.0328 92.6246 50.0261H97.252C97.448 50.0261 97.6359 50.1072 97.7745 50.2516C97.913 50.396 97.9909 50.5919 97.9909 50.7961V61.0083H109.112V50.7961C109.112 50.5919 109.19 50.396 109.329 50.2516C109.467 50.1072 109.655 50.0261 109.851 50.0261H114.479C114.673 50.0328 114.857 50.116 114.994 50.259C115.131 50.402 115.211 50.594 115.217 50.7961V77.6233C115.211 77.8254 115.131 78.0174 114.994 78.1604C114.857 78.3034 114.673 78.3866 114.479 78.3933H109.851C109.655 78.3933 109.467 78.3122 109.329 78.1678C109.19 78.0234 109.112 77.8275 109.112 77.6233V66.9654H97.9909V77.6233C97.9909 77.8275 97.913 78.0234 97.7745 78.1678C97.6359 78.3122 97.448 78.3933 97.252 78.3933H92.6246C92.4307 78.3866 92.2464 78.3034 92.1092 78.1604C91.972 78.0174 91.8921 77.8254 91.8857 77.6233V50.7961Z" fill="#303742"/>
<path d="M129.683 50.7961C129.689 50.594 129.769 50.402 129.907 50.259C130.044 50.116 130.228 50.0328 130.422 50.0261H135.088C135.282 50.0328 135.466 50.116 135.604 50.259C135.741 50.402 135.821 50.594 135.827 50.7961V77.6233C135.821 77.8254 135.741 78.0174 135.604 78.1604C135.466 78.3034 135.282 78.3866 135.088 78.3933H130.422C130.228 78.3866 130.044 78.3034 129.907 78.1604C129.769 78.0174 129.689 77.8254 129.683 77.6233V50.7961Z" fill="#303742"/>
<path d="M150.252 50.3503C150.261 50.1525 150.342 49.9658 150.48 49.8296C150.618 49.6935 150.801 49.6186 150.991 49.6209H151.963L167.479 65.1823H167.518V50.7961C167.518 50.695 167.537 50.5949 167.574 50.5015C167.611 50.408 167.666 50.3232 167.734 50.2517C167.803 50.1802 167.884 50.1235 167.974 50.0848C168.064 50.0461 168.16 50.0261 168.257 50.0261H172.923C173.117 50.0328 173.301 50.1161 173.438 50.259C173.576 50.402 173.656 50.594 173.662 50.7961V78.0749C173.654 78.2727 173.572 78.4594 173.434 78.5956C173.296 78.7318 173.113 78.8066 172.923 78.8043H172.301C172.119 78.7799 171.946 78.7104 171.795 78.6017L156.435 62.5077H156.396V77.6233C156.396 77.8275 156.319 78.0234 156.18 78.1678C156.041 78.3122 155.854 78.3933 155.658 78.3933H151.03C150.836 78.3867 150.652 78.3034 150.515 78.1604C150.378 78.0174 150.298 77.8254 150.291 77.6233L150.252 50.3503Z" fill="#303742"/>
<path d="M191.628 55.9832H186.072C185.876 55.9832 185.688 55.9021 185.55 55.7577C185.411 55.6133 185.333 55.4175 185.333 55.2133V50.7961C185.333 50.5919 185.411 50.396 185.55 50.2516C185.688 50.1072 185.876 50.0261 186.072 50.0261H203.338C203.534 50.0261 203.722 50.1072 203.86 50.2516C203.999 50.396 204.077 50.5919 204.077 50.7961V55.2133C204.077 55.4175 203.999 55.6133 203.86 55.7577C203.722 55.9021 203.534 55.9832 203.338 55.9832H197.777V77.6233C197.771 77.8254 197.691 78.0174 197.554 78.1604C197.416 78.3034 197.232 78.3866 197.038 78.3933H192.372C192.178 78.3866 191.994 78.3034 191.857 78.1604C191.719 78.0174 191.639 77.8254 191.633 77.6233L191.628 55.9832Z" fill="#303742"/>
<path d="M210.837 77.3397L223.009 50.0667C223.072 49.9379 223.167 49.8288 223.284 49.7505C223.402 49.6722 223.536 49.6275 223.675 49.621H224.064C224.202 49.6285 224.336 49.6737 224.452 49.7519C224.568 49.8301 224.662 49.9387 224.725 50.0667L236.897 77.3397C237.13 77.8666 236.819 78.3934 236.23 78.3934H231.914C231.214 78.3934 230.903 78.1502 230.553 77.3803L229.148 74.1788H218.571L217.171 77.4208C217.065 77.715 216.872 77.967 216.621 78.1414C216.37 78.3159 216.073 78.404 215.771 78.3934H211.494C210.915 78.3934 210.604 77.8666 210.837 77.3397ZM226.815 68.6675L223.864 61.9809H223.825L220.909 68.6675H226.815Z" fill="#303742"/>
<path d="M247.856 50.7961C247.862 50.594 247.942 50.402 248.079 50.259C248.217 50.116 248.401 50.0328 248.595 50.0261H253.261C253.455 50.0328 253.639 50.116 253.777 50.259C253.914 50.402 253.994 50.594 254 50.7961V77.6233C253.994 77.8254 253.914 78.0174 253.777 78.1604C253.639 78.3034 253.455 78.3866 253.261 78.3933H248.595C248.401 78.3866 248.217 78.3034 248.079 78.1604C247.942 78.0174 247.862 77.8254 247.856 77.6233V50.7961Z" fill="#303742"/>
<path d="M5.128 19.832H7.432C9.256 19.832 10.752 19.4 11.92 18.536C13.088 17.656 13.68 16.368 13.696 14.672C13.696 12.96 13.152 11.704 12.064 10.904C10.976 10.088 9.512 9.68 7.672 9.68H3.232V26H5.128V19.832ZM7.696 11.288C9.024 11.288 10.032 11.552 10.72 12.08C11.408 12.592 11.752 13.48 11.752 14.744C11.72 15.928 11.32 16.808 10.552 17.384C9.784 17.944 8.768 18.224 7.504 18.224H5.128V11.288H7.696ZM26.5726 20.216C26.5726 21.4 26.3326 22.456 25.8526 23.384C25.3886 24.296 24.7166 25.016 23.8366 25.544C22.9566 26.056 21.9326 26.312 20.7646 26.312C19.6446 26.312 18.6686 26.056 17.8366 25.544C17.0046 25.016 16.3646 24.288 15.9166 23.36C15.4846 22.416 15.2686 21.344 15.2686 20.144C15.2846 18.96 15.5166 17.912 15.9646 17C16.4286 16.072 17.0926 15.352 17.9566 14.84C18.8206 14.312 19.8286 14.048 20.9806 14.048C22.7246 14.048 24.0926 14.608 25.0846 15.728C26.0766 16.832 26.5726 18.328 26.5726 20.216ZM20.8606 24.704C22.0126 24.704 22.9246 24.288 23.5966 23.456C24.2686 22.608 24.6126 21.536 24.6286 20.24C24.6286 18.864 24.3086 17.76 23.6686 16.928C23.0286 16.08 22.1246 15.656 20.9566 15.656C19.8046 15.656 18.8926 16.08 18.2206 16.928C17.5486 17.76 17.2046 18.824 17.1886 20.12C17.1886 21.48 17.5086 22.584 18.1486 23.432C18.7886 24.28 19.6926 24.704 20.8606 24.704ZM39.7998 26L43.2318 14.36H41.3118L38.8638 23.288L36.2718 14.36H34.3518L31.9038 23.288L29.3118 14L27.5838 14.72L30.9678 26H32.8158L35.2878 17.144L37.9278 26H39.7998ZM54.6528 20.48C54.6528 18.56 54.2448 17.008 53.4288 15.824C52.6288 14.64 51.3808 14.048 49.6848 14.048C48.5648 14.048 47.5888 14.312 46.7568 14.84C45.9408 15.352 45.3168 16.072 44.8848 17C44.4688 17.912 44.2607 18.96 44.2607 20.144C44.2607 22.016 44.7808 23.512 45.8208 24.632C46.8608 25.752 48.3728 26.312 50.3568 26.312C51.1568 26.312 51.8848 26.208 52.5408 26C53.1968 25.776 53.8528 25.48 54.5088 25.112L53.9088 23.72C53.1888 24.072 52.5648 24.328 52.0368 24.488C51.5248 24.648 50.9568 24.728 50.3328 24.728C48.9568 24.728 47.9328 24.352 47.2608 23.6C46.6048 22.832 46.2528 21.792 46.2048 20.48H54.6528ZM46.2528 19.184C46.3648 18.096 46.7008 17.24 47.2608 16.616C47.8368 15.976 48.6208 15.656 49.6128 15.656C51.4528 15.656 52.5088 16.832 52.7808 19.184H46.2528ZM58.8533 17.984C59.3973 17.424 60.0613 16.936 60.8453 16.52C61.6293 16.088 62.3413 15.872 62.9813 15.872L62.5253 14.36C61.9653 14.36 61.3173 14.56 60.5813 14.96C59.8453 15.36 59.2133 15.784 58.6853 16.232L58.0853 14.36H56.9573V26H58.8533V17.984ZM74.4106 20.48C74.4106 18.56 74.0026 17.008 73.1866 15.824C72.3866 14.64 71.1386 14.048 69.4426 14.048C68.3226 14.048 67.3466 14.312 66.5146 14.84C65.6986 15.352 65.0746 16.072 64.6426 17C64.2266 17.912 64.0186 18.96 64.0186 20.144C64.0186 22.016 64.5386 23.512 65.5786 24.632C66.6186 25.752 68.1306 26.312 70.1146 26.312C70.9146 26.312 71.6426 26.208 72.2986 26C72.9546 25.776 73.6106 25.48 74.2666 25.112L73.6666 23.72C72.9466 24.072 72.3226 24.328 71.7946 24.488C71.2826 24.648 70.7146 24.728 70.0906 24.728C68.7146 24.728 67.6906 24.352 67.0186 23.6C66.3626 22.832 66.0106 21.792 65.9626 20.48H74.4106ZM66.0106 19.184C66.1226 18.096 66.4586 17.24 67.0186 16.616C67.5946 15.976 68.3786 15.656 69.3706 15.656C71.2106 15.656 72.2666 16.832 72.5386 19.184H66.0106ZM86.1951 9.08V26H85.0431L84.6831 25.112C84.2031 25.496 83.6831 25.792 83.1231 26C82.5631 26.208 82.0351 26.312 81.5391 26.312C79.8111 26.312 78.4511 25.752 77.4591 24.632C76.4831 23.496 75.9951 21.992 75.9951 20.12C75.9951 18.936 76.2191 17.888 76.6671 16.976C77.1311 16.048 77.7791 15.328 78.6111 14.816C79.4591 14.304 80.4511 14.048 81.5871 14.048C82.0031 14.048 82.4431 14.128 82.9071 14.288C83.3871 14.448 83.8431 14.664 84.2751 14.936V9.296L86.1951 9.08ZM81.5151 24.704C82.0911 24.704 82.5951 24.616 83.0271 24.44C83.4751 24.248 83.8911 23.96 84.2751 23.576V16.688C83.5071 16 82.5951 15.656 81.5391 15.656C80.3871 15.656 79.4991 16.072 78.8751 16.904C78.2511 17.72 77.9311 18.784 77.9151 20.096C77.9151 21.488 78.2191 22.608 78.8271 23.456C79.4511 24.288 80.3471 24.704 81.5151 24.704ZM99.8913 14.048C101.619 14.048 102.971 14.616 103.947 15.752C104.939 16.872 105.435 18.36 105.435 20.216C105.435 21.4 105.203 22.456 104.739 23.384C104.291 24.296 103.643 25.016 102.795 25.544C101.963 26.056 100.979 26.312 99.8433 26.312C99.3633 26.312 98.8513 26.208 98.3073 26C97.7793 25.808 97.2833 25.528 96.8193 25.16L96.4113 26H95.2833V9.296L97.1793 9.056V14.936C97.6113 14.648 98.0673 14.432 98.5473 14.288C99.0273 14.128 99.4753 14.048 99.8913 14.048ZM99.8913 24.704C101.043 24.704 101.931 24.288 102.555 23.456C103.179 22.624 103.499 21.552 103.515 20.24C103.515 18.864 103.203 17.76 102.579 16.928C101.971 16.08 101.083 15.656 99.9153 15.656C99.3393 15.656 98.8353 15.744 98.4033 15.92C97.9713 16.096 97.5633 16.368 97.1793 16.736V23.672C97.5633 24.008 97.9713 24.264 98.4033 24.44C98.8353 24.616 99.3313 24.704 99.8913 24.704ZM110.074 27.92C109.898 28.4 109.626 28.76 109.258 29C108.906 29.256 108.354 29.56 107.602 29.912L108.178 31.28C109.026 31.104 109.77 30.76 110.41 30.248C111.066 29.736 111.53 29.12 111.802 28.4L116.938 14.36H115.018L111.682 23.36L108.154 14L106.474 14.72L110.794 25.928L110.074 27.92Z" fill="#303742"/>
</svg>
