<?xml version="1.0" encoding="utf-8"?>
<svg id="master-artboard" viewBox="0 0 500 480" version="1.1" xmlns="http://www.w3.org/2000/svg" x="0px" y="0px" style="enable-background:new 0 0 2800 1800;" width="500px" height="480px"><rect id="ee-background" x="0" y="0" width="500" height="480" style="fill: white; fill-opacity: 0; pointer-events: none;"/>









<g transform="matrix(1, 0, 0, 1, -337.2599334716797, -386.7876281738281)">
		<path class="st0" d="M487.2,687.1c-0.2,0-0.5,0-0.7,0c-45.1-5.7-79.2-44.4-79.2-90c0-49.4,39.7-89.6,88.8-90.6&#10;&#9;&#9;&#9;c11.5-38.2,46.5-64.4,86.7-64.4c22.4,0,43.6,8.1,60.2,23c6.8-3.3,14.2-5,21.8-5c27.9,0,50.6,22.7,50.6,50.6c0,2.9-0.3,5.9-0.8,8.8&#10;&#9;&#9;&#9;c27.1,16.4,43.8,45.7,43.8,77.6c0,43.1-30.7,80.5-72.9,88.9c-3.1,0.6-6.2-1.4-6.9-4.6c-0.6-3.2,1.4-6.2,4.6-6.9&#10;&#9;&#9;&#9;c36.8-7.3,63.5-39.9,63.5-77.5c0-29.1-15.9-55.7-41.5-69.5c-2.4-1.3-3.6-4-2.9-6.7c0.9-3.4,1.4-6.9,1.4-10.2&#10;&#9;&#9;&#9;c0-21.5-17.5-38.9-38.9-38.9c-6.9,0-13.7,1.9-19.7,5.4c-2.3,1.3-5.2,1-7.1-0.9c-14.9-14.6-34.5-22.6-55.2-22.6&#10;&#9;&#9;&#9;c-36.4,0-67.9,24.7-76.6,60.1c-0.7,2.7-3.2,4.5-5.8,4.4l-1.4-0.1c-0.3,0-0.7-0.1-1-0.1c-43.6,0-79,35.4-79,79&#10;&#9;&#9;&#9;c0,39.7,29.7,73.4,69,78.4c3.2,0.4,5.5,3.3,5.1,6.5C492.6,685,490.1,687.1,487.2,687.1z" style="fill: #198ee8;"/>
	</g><path class="st0" d="M556.1,625.9c-12.7,0-23.1-10.4-23.1-23.1c0-12.7,10.3-23.1,23.1-23.1c12.7,0,23.1,10.3,23.1,23.1&#10;&#9;&#9;&#9;C579.2,615.5,568.8,625.9,556.1,625.9z M556.1,591.4c-6.3,0-11.4,5.1-11.4,11.4c0,6.3,5.1,11.4,11.4,11.4&#10;&#9;&#9;&#9;c6.3,0,11.4-5.1,11.4-11.4C567.5,596.5,562.4,591.4,556.1,591.4z" style="fill: #198ee8;" transform="matrix(1, 0, 0, 1, -337.2599334716797, -386.7876281738281)"/><path class="st0" d="M470.4,625.9c-12.7,0-23.1-10.4-23.1-23.1c0-12.7,10.3-23.1,23.1-23.1s23.1,10.3,23.1,23.1&#10;&#9;&#9;&#9;C493.4,615.5,483.1,625.9,470.4,625.9z M470.4,591.4c-6.3,0-11.4,5.1-11.4,11.4c0,6.3,5.1,11.4,11.4,11.4&#10;&#9;&#9;&#9;c6.3,0,11.4-5.1,11.4-11.4C481.8,596.5,476.6,591.4,470.4,591.4z" style="fill: #198ee8;" transform="matrix(1, 0, 0, 1, -337.2599334716797, -386.7876281738281)"/><path class="st0" d="M556.1,737.9c-12.7,0-23.1-10.4-23.1-23.1c0-12.7,10.3-23.1,23.1-23.1c12.7,0,23.1,10.4,23.1,23.1&#10;&#9;&#9;&#9;C579.2,727.6,568.8,737.9,556.1,737.9z M556.1,703.5c-6.3,0-11.4,5.1-11.4,11.4c0,6.3,5.1,11.4,11.4,11.4&#10;&#9;&#9;&#9;c6.3,0,11.4-5.1,11.4-11.4C567.5,708.6,562.4,703.5,556.1,703.5z" style="fill: #198ee8;" transform="matrix(1, 0, 0, 1, -337.2599334716797, -386.7876281738281)"/><path class="st0" d="M616,737.9c-12.7,0-23.1-10.4-23.1-23.1c0-12.7,10.3-23.1,23.1-23.1c12.7,0,23.1,10.4,23.1,23.1&#10;&#9;&#9;&#9;C639.1,727.6,628.8,737.9,616,737.9z M616,703.5c-6.3,0-11.4,5.1-11.4,11.4c0,6.3,5.1,11.4,11.4,11.4c6.3,0,11.4-5.1,11.4-11.4&#10;&#9;&#9;&#9;C627.5,708.6,622.3,703.5,616,703.5z" style="fill: #198ee8;" transform="matrix(1, 0, 0, 1, -337.2599334716797, -386.7876281738281)"/><path class="st0" d="M556.1,703.5c-3.2,0-5.8-2.6-5.8-5.8V620c0-3.2,2.6-5.8,5.8-5.8c3.2,0,5.8,2.6,5.8,5.8v77.6&#10;&#9;&#9;&#9;C561.9,700.8,559.3,703.5,556.1,703.5z" style="fill: #198ee8;" transform="matrix(1, 0, 0, 1, -337.2599334716797, -386.7876281738281)"/><path class="st0" d="M538.9,608.6h-51.3c-3.2,0-5.8-2.6-5.8-5.8c0-3.2,2.6-5.8,5.8-5.8h51.3c3.2,0,5.8,2.6,5.8,5.8&#10;&#9;&#9;&#9;C544.7,606,542.1,608.6,538.9,608.6z" style="fill: #198ee8;" transform="matrix(1, 0, 0, 1, -337.2599334716797, -386.7876281738281)"/><path class="st0" d="M616.1,625.9c-12.7,0-23.1-10.4-23.1-23.1c0-12.7,10.4-23.1,23.1-23.1c12.7,0,23.1,10.3,23.1,23.1&#10;&#9;&#9;&#9;C639.1,615.5,628.8,625.9,616.1,625.9z M616.1,591.4c-6.3,0-11.4,5.1-11.4,11.4c0,6.3,5.1,11.4,11.4,11.4&#10;&#9;&#9;&#9;c6.3,0,11.4-5.1,11.4-11.4C627.5,596.5,622.3,591.4,616.1,591.4z" style="fill: #198ee8;" transform="matrix(1, 0, 0, 1, -337.2599334716797, -386.7876281738281)"/><path class="st0" d="M701.8,625.9c-12.7,0-23.1-10.4-23.1-23.1c0-12.7,10.4-23.1,23.1-23.1c12.7,0,23.1,10.3,23.1,23.1&#10;&#9;&#9;&#9;C724.9,615.5,714.5,625.9,701.8,625.9z M701.8,591.4c-6.3,0-11.4,5.1-11.4,11.4c0,6.3,5.1,11.4,11.4,11.4&#10;&#9;&#9;&#9;c6.3,0,11.4-5.1,11.4-11.4C713.2,596.5,708.1,591.4,701.8,591.4z" style="fill: #198ee8;" transform="matrix(1, 0, 0, 1, -337.2599334716797, -386.7876281738281)"/><path class="st0" d="M616.1,703.5c-3.2,0-5.8-2.6-5.8-5.8V620c0-3.2,2.6-5.8,5.8-5.8c3.2,0,5.8,2.6,5.8,5.8v77.6&#10;&#9;&#9;&#9;C621.9,700.8,619.3,703.5,616.1,703.5z" style="fill: #198ee8;" transform="matrix(1, 0, 0, 1, -337.2599334716797, -386.7876281738281)"/><path class="st0" d="M684.6,608.6h-51.3c-3.2,0-5.8-2.6-5.8-5.8c0-3.2,2.6-5.8,5.8-5.8h51.3c3.2,0,5.8,2.6,5.8,5.8&#10;&#9;&#9;&#9;C690.4,606,687.8,608.6,684.6,608.6z" style="fill: #198ee8;" transform="matrix(1, 0, 0, 1, -337.2599334716797, -386.7876281738281)"/><path class="st0" d="M556.1,591.4c-3.2,0-5.8-2.6-5.8-5.8v-40.4c0-3.2,2.6-5.8,5.8-5.8c3.2,0,5.8,2.6,5.8,5.8v40.4&#10;&#9;&#9;&#9;C561.9,588.8,559.3,591.4,556.1,591.4z" style="fill: #198ee8;" transform="matrix(1, 0, 0, 1, -337.2599334716797, -386.7876281738281)"/><path class="st0" d="M616.1,591.4c-3.2,0-5.8-2.6-5.8-5.8v-40.4c0-3.2,2.6-5.8,5.8-5.8c3.2,0,5.8,2.6,5.8,5.8v40.4&#10;&#9;&#9;&#9;C621.9,588.8,619.3,591.4,616.1,591.4z" style="fill: #198ee8;" transform="matrix(1, 0, 0, 1, -337.2599334716797, -386.7876281738281)"/><path class="st0" d="M636.1,549.5h-99.9c-3.2,0-5.8-2.6-5.8-5.8c0-3.2,2.6-5.8,5.8-5.8h99.9c3.2,0,5.8,2.6,5.8,5.8&#10;&#9;&#9;&#9;C641.9,546.9,639.3,549.5,636.1,549.5z" style="fill: #198ee8;" transform="matrix(1, 0, 0, 1, -337.2599334716797, -386.7876281738281)"/></svg>