<svg id="Layer_1" data-name="Layer 1" xmlns="http://www.w3.org/2000/svg" viewBox="0 0 2400 500"><defs><style>.cls-1{fill:#0d78ca;}.cls-2{fill:none;stroke:#0d78ca;stroke-miterlimit:10;stroke-width:16px;}</style></defs><title>Artboard 1</title><path id="Center_shape" data-name="Center shape" class="cls-1" d="M249.75,124.31a126,126,0,1,0,126,126A126,126,0,0,0,249.75,124.31Zm55.9,214.11a12.8,12.8,0,0,1-11.08,6.41H204.33a12.8,12.8,0,0,1-11.06-6.38L145.56,256a12.76,12.76,0,0,1-.14-12.55c10.21-18.6,40.56-72.68,56.54-88.66,15-15,47.9-12.92,47.9-12.92s32.1-2.08,47.1,12.92c16,15.95,46.16,70,56.3,88.6a12.76,12.76,0,0,1-.15,12.5Z"/><circle id="Bounding_circle" data-name="Bounding circle" class="cls-2" cx="250.02" cy="250.34" r="178.94"/><g id="Spoke_120deg" data-name="Spoke 120deg"><line id="Connector" class="cls-2" x1="404.55" y1="339.98" x2="95.55" y2="159.98"/><circle id="Top_left_circle" data-name="Top left circle" class="cls-2" cx="95.55" cy="159.98" r="38.03"/><circle id="Top_left_circle_inner" data-name="Top left circle inner" class="cls-1" cx="95.07" cy="159.87" r="16.25"/><circle id="Bottom_right_circle_inner" data-name="Bottom right circle inner" class="cls-1" cx="404.55" cy="339.98" r="16.25"/><circle id="Bottom_right_circle" data-name="Bottom right circle" class="cls-2" cx="404.55" cy="339.98" r="38.03"/></g><g id="Spoke_60deg" data-name="Spoke 60deg"><line id="Connector-2" data-name="Connector" class="cls-2" x1="404.55" y1="159.98" x2="95.55" y2="339.98"/><circle id="Bottom_left_circle_inner" data-name="Bottom left circle inner" class="cls-1" cx="95.55" cy="339.98" r="16.25"/><circle id="Bottom_left_circle" data-name="Bottom left circle" class="cls-2" cx="95.55" cy="339.98" r="38.03"/><circle id="Top_right_circle_inner" data-name="Top right circle inner" class="cls-1" cx="404.55" cy="159.98" r="16.25"/><circle id="Top_right_circle" data-name="Top right circle" class="cls-2" cx="404.55" cy="159.98" r="38.03"/></g><g id="Spoke_0deg" data-name="Spoke 0deg"><line id="Connector-3" data-name="Connector" class="cls-2" x1="249.98" y1="71.55" x2="249.98" y2="429.55"/><circle id="Bottom_circle" data-name="Bottom circle" class="cls-2" cx="249.98" cy="429.55" r="38.03"/><circle id="Bottom_circle_inner" data-name="Bottom circle inner" class="cls-1" cx="249.94" cy="429.6" r="16.25"/><circle id="Top_circle_inner" data-name="Top circle inner" class="cls-1" cx="249.98" cy="71.55" r="16.25"/><circle id="Top_circle" data-name="Top circle" class="cls-2" cx="249.98" cy="71.55" r="38.03"/></g><path class="cls-1" d="M678.51,125.25c35,0,60.9,10.85,84.7,32.55a6.5,6.5,0,0,1,.35,9.8L736.26,196a6.13,6.13,0,0,1-8.75,0,71.5,71.5,0,0,0-47.25-17.85c-39.56,0-68.61,32.9-68.61,72.1,0,38.85,29.4,71.05,69,71.05,16.45,0,34.3-5.95,46.9-16.8,2.45-2.1,7-2.1,9.1.35l27.3,29.05c2.45,2.45,2.1,7-.35,9.45-23.8,23.1-53.9,33.95-85,33.95-70,0-126.36-55.65-126.36-125.65A126.07,126.07,0,0,1,678.51,125.25Z"/><path class="cls-1" d="M875.55,135.4a6.88,6.88,0,0,1,6.65-6.65h41.65a6.65,6.65,0,0,1,6.65,6.65v88.2h100.1V135.4a6.65,6.65,0,0,1,6.65-6.65h41.65a6.88,6.88,0,0,1,6.65,6.65V367.1a6.88,6.88,0,0,1-6.65,6.65h-41.65a6.65,6.65,0,0,1-6.65-6.65V275.05H930.5V367.1a6.65,6.65,0,0,1-6.65,6.65H882.2a6.88,6.88,0,0,1-6.65-6.65Z"/><path class="cls-1" d="M1215.75,135.4a6.88,6.88,0,0,1,6.65-6.65h42a6.88,6.88,0,0,1,6.65,6.65V367.1a6.88,6.88,0,0,1-6.65,6.65h-42a6.88,6.88,0,0,1-6.65-6.65Z"/><path class="cls-1" d="M1400.89,131.55a6.58,6.58,0,0,1,6.65-6.3h8.75l139.65,134.4h.35V135.4a6.65,6.65,0,0,1,6.65-6.65h42a6.88,6.88,0,0,1,6.65,6.65V371a6.58,6.58,0,0,1-6.65,6.3h-5.6a10.31,10.31,0,0,1-4.55-1.75L1456.54,236.55h-.35V367.1a6.65,6.65,0,0,1-6.65,6.65h-41.65a6.88,6.88,0,0,1-6.65-6.65Z"/><path class="cls-1" d="M1773.29,180.2h-50a6.65,6.65,0,0,1-6.65-6.65V135.4a6.65,6.65,0,0,1,6.65-6.65h155.4a6.65,6.65,0,0,1,6.65,6.65v38.15a6.65,6.65,0,0,1-6.65,6.65h-50.05V367.1a6.88,6.88,0,0,1-6.65,6.65h-42a6.88,6.88,0,0,1-6.65-6.65Z"/><path class="cls-1" d="M1946.19,364.65,2055.74,129.1a7.11,7.11,0,0,1,6-3.85h3.5a7.11,7.11,0,0,1,5.95,3.85l109.55,235.55c2.1,4.55-.7,9.1-6,9.1h-38.85c-6.3,0-9.1-2.1-12.25-8.75L2111,337.35h-95.2l-12.6,28a13,13,0,0,1-12.6,8.4h-38.5C1946.89,373.75,1944.09,369.2,1946.19,364.65ZM2090,289.75,2063.44,232h-.35l-26.25,57.75Z"/><path class="cls-1" d="M2279.38,135.4a6.88,6.88,0,0,1,6.65-6.65h42a6.88,6.88,0,0,1,6.65,6.65V367.1a6.88,6.88,0,0,1-6.65,6.65h-42a6.88,6.88,0,0,1-6.65-6.65Z"/></svg>