<svg id="Layer_1" data-name="Layer 1" xmlns="http://www.w3.org/2000/svg" xmlns:xlink="http://www.w3.org/1999/xlink" viewBox="0 0 500 1000"><defs><style>.cls-1{fill:url(#linear-gradient);}.cls-2{fill:url(#linear-gradient-2);}.cls-3{fill:url(#linear-gradient-3);}.cls-4{fill:url(#linear-gradient-4);}.cls-5{fill:url(#linear-gradient-5);}.cls-6{fill:url(#linear-gradient-6);}.cls-7{fill:url(#linear-gradient-7);}.cls-8{fill:url(#linear-gradient-8);}.cls-9{fill:url(#linear-gradient-9);}.cls-10{fill:url(#linear-gradient-10);}.cls-11{fill:url(#linear-gradient-11);}.cls-12{fill:url(#linear-gradient-12);}.cls-13{fill:url(#linear-gradient-13);}.cls-14{fill:url(#linear-gradient-14);}.cls-15{fill:url(#linear-gradient-15);}.cls-16{fill:url(#linear-gradient-16);}.cls-17{fill:url(#linear-gradient-17);}.cls-18{fill:url(#linear-gradient-18);}.cls-19{fill:url(#linear-gradient-19);}.cls-20{fill:url(#linear-gradient-20);}.cls-21{fill:url(#linear-gradient-21);}.cls-22{fill:url(#linear-gradient-22);}.cls-23{fill:url(#linear-gradient-23);}.cls-24{fill:url(#linear-gradient-24);}.cls-25{fill:url(#linear-gradient-25);}.cls-26{fill:url(#linear-gradient-26);}.cls-27{fill:url(#linear-gradient-27);}.cls-28{fill:url(#linear-gradient-28);}.cls-29{fill:url(#linear-gradient-29);}.cls-30{fill:url(#linear-gradient-30);}.cls-31{fill:url(#linear-gradient-31);}.cls-32{fill:url(#linear-gradient-32);}.cls-33{fill:url(#linear-gradient-33);}</style><linearGradient id="linear-gradient" x1="17.88" y1="226.36" x2="26.12" y2="269.69" gradientUnits="userSpaceOnUse"><stop offset="0" stop-color="#c8d7e9"/><stop offset="1" stop-color="#f6fafe"/></linearGradient><linearGradient id="linear-gradient-2" x1="20.97" y1="263.62" x2="36.03" y2="315.95" xlink:href="#linear-gradient"/><linearGradient id="linear-gradient-3" x1="32.2" y1="340.74" x2="44.81" y2="386.58" xlink:href="#linear-gradient"/><linearGradient id="linear-gradient-4" x1="84.98" y1="416.89" x2="85.83" y2="449.74" xlink:href="#linear-gradient"/><linearGradient id="linear-gradient-5" x1="143.1" y1="441.52" x2="148.37" y2="472.54" xlink:href="#linear-gradient"/><linearGradient id="linear-gradient-6" x1="230.12" y1="466.79" x2="229.69" y2="496.89" xlink:href="#linear-gradient"/><linearGradient id="linear-gradient-7" x1="323.59" y1="469.39" x2="320.57" y2="506.21" xlink:href="#linear-gradient"/><linearGradient id="linear-gradient-8" x1="413.23" y1="463.86" x2="400.72" y2="527.09" xlink:href="#linear-gradient"/><linearGradient id="linear-gradient-9" x1="476.2" y1="451.53" x2="485.13" y2="511.32" xlink:href="#linear-gradient"/><linearGradient id="linear-gradient-10" x1="-3.84" y1="259.88" x2="10.33" y2="300.31" xlink:href="#linear-gradient"/><linearGradient id="linear-gradient-11" x1="11.23" y1="318.36" x2="22.34" y2="352.32" xlink:href="#linear-gradient"/><linearGradient id="linear-gradient-12" x1="22.86" y1="363.77" x2="38.65" y2="405.55" xlink:href="#linear-gradient"/><linearGradient id="linear-gradient-13" x1="-9.23" y1="382.22" x2="9.16" y2="444.83" xlink:href="#linear-gradient"/><linearGradient id="linear-gradient-14" x1="41.82" y1="412.42" x2="65.96" y2="446.92" xlink:href="#linear-gradient"/><linearGradient id="linear-gradient-15" x1="14.8" y1="417.61" x2="21.68" y2="464.57" xlink:href="#linear-gradient"/><linearGradient id="linear-gradient-16" x1="90.68" y1="447.62" x2="124.86" y2="498.09" xlink:href="#linear-gradient"/><linearGradient id="linear-gradient-17" x1="35.27" y1="458.53" x2="46.45" y2="495.88" xlink:href="#linear-gradient"/><linearGradient id="linear-gradient-18" x1="9.28" y1="481.35" x2="20.47" y2="521.7" xlink:href="#linear-gradient"/><linearGradient id="linear-gradient-19" x1="79.12" y1="479.6" x2="80.2" y2="513.94" xlink:href="#linear-gradient"/><linearGradient id="linear-gradient-20" x1="148.39" y1="468.23" x2="151.2" y2="506.23" xlink:href="#linear-gradient"/><linearGradient id="linear-gradient-21" x1="193.54" y1="471.53" x2="197.93" y2="511.5" xlink:href="#linear-gradient"/><linearGradient id="linear-gradient-22" x1="268.53" y1="468.54" x2="267.36" y2="509.8" xlink:href="#linear-gradient"/><linearGradient id="linear-gradient-23" x1="363.22" y1="479.97" x2="357.26" y2="521.76" xlink:href="#linear-gradient"/><linearGradient id="linear-gradient-24" x1="449.87" y1="474.36" x2="453.39" y2="535.95" xlink:href="#linear-gradient"/><linearGradient id="linear-gradient-25" x1="477.53" y1="492.22" x2="488.64" y2="560.6" xlink:href="#linear-gradient"/><linearGradient id="linear-gradient-26" x1="-6.27" y1="214.23" x2="14.62" y2="241.79" xlink:href="#linear-gradient"/><linearGradient id="linear-gradient-27" x1="12.2" y1="192.78" x2="16.56" y2="215.71" xlink:href="#linear-gradient"/><linearGradient id="linear-gradient-28" x1="4.48" y1="160.98" x2="9.21" y2="185.83" xlink:href="#linear-gradient"/><linearGradient id="linear-gradient-29" x1="460.02" y1="519.71" x2="450.75" y2="569.25" xlink:href="#linear-gradient"/><linearGradient id="linear-gradient-30" x1="480.97" y1="560.15" x2="468.25" y2="607.76" xlink:href="#linear-gradient"/><linearGradient id="linear-gradient-31" x1="508.77" y1="560.92" x2="489.95" y2="665.3" xlink:href="#linear-gradient"/><linearGradient id="linear-gradient-32" x1="48.55" y1="503.99" x2="57.34" y2="536.9" xlink:href="#linear-gradient"/><linearGradient id="linear-gradient-33" x1="7.74" y1="515.42" x2="25.13" y2="575.11" xlink:href="#linear-gradient"/></defs><title>Artboard 1</title><polygon class="cls-1" points="30 220 40 280 10 255 15 215 30 220"/><polygon class="cls-2" points="40 325.19 40 280 10 255 20 310 40 325.19"/><polygon class="cls-3" points="60 400.19 55 360 40 325.19 20 360 60 400.19"/><polygon class="cls-4" points="110 435.19 60 400.19 75 455.19 110 435.19"/><polygon class="cls-5" points="180 470.19 130 475.19 110 435.19 155 445 180 470.19"/><polygon class="cls-6" points="180 470.19 245 470.19 280 480.19 225 500.19 180 470.19"/><polygon class="cls-7" points="365 485.19 280 480.19 310 510.19 365 485.19"/><polygon class="cls-8" points="455 475.19 410 470.19 365 485.19 405 530 455 475.19"/><polygon class="cls-9" points="500 445.31 455 475.19 500 510.74 500 445.31"/><polygon class="cls-10" points="0 250 10 255 20 310 0 315.19 0 250"/><polygon class="cls-11" points="0 365.14 20 360 40 325.19 20 310 0 315.19 0 365.14"/><polygon class="cls-12" points="20 410.19 60 400.19 20 360 0 365.14 20 410.19"/><polygon class="cls-13" points="0 365.14 20 410.19 0 485.19 0 365.14"/><polygon class="cls-14" points="45 455.19 75 455.19 60 400.19 20 410.19 45 455.19"/><polygon class="cls-15" points="0 485.19 45 455.19 20 410.19 0 485.19"/><polygon class="cls-16" points="75 455.19 85 480.19 120 510.19 130 475.19 110 435.19 75 455.19"/><polygon class="cls-17" points="45 455.19 75 455.19 85 480.19 40 505 0 485.19 45 455.19"/><polygon class="cls-18" points="40 505 0 535 0 485.19 40 505"/><polygon class="cls-19" points="40 505 85 520 120 510 85 480 40 505"/><polygon class="cls-20" points="170 515 180 470 130 475 120 510 170 515"/><polygon class="cls-21" points="170 515 225 500.19 180 470.19 170 515"/><polygon class="cls-22" points="225 500 280 515 310 510 280 480 225 500"/><polygon class="cls-23" points="405 530 310 510.19 365 485.19 405 530"/><polygon class="cls-24" points="465 535 405 530 455 475.19 500 510.74 465 535"/><polygon class="cls-25" points="500 590 500 510.55 465 535.08 500 590"/><polygon class="cls-26" points="0 195 15 215 10 255 0 250 0 195"/><polygon class="cls-27" points="0 195 20 185 30 220 15 215 0 195"/><polygon class="cls-28" points="0 155 10 165 20 185 0 195 0 155"/><polygon class="cls-29" points="405 529.81 450 575 500 590 465 534.81 405 529.81"/><polygon class="cls-30" points="480 625 460 600 450 575 500 590 480 625"/><polyline class="cls-31" points="500 705 480 625 500 590 500 705"/><polygon class="cls-32" points="85 520 30 555 40 505 85 520"/><polygon class="cls-33" points="0 535 40 505 30 555 0 610 0 535"/></svg>