<svg xmlns="http://www.w3.org/2000/svg" width="21" height="14" viewBox="0 0 21 14"><g><g><path fill="#fff" d="M13.644 9.836c0-.463.415-.878.925-.878.462 0 .878.415.878.878 0 .508-.416.923-.878.923a.926.926 0 0 1-.925-.923zM2.866 7.108c0-.509.417-.878.925-.878.51 0 .925.37.925.878a.928.928 0 0 1-.925.925.928.928 0 0 1-.925-.925zm2.683 0c0-.509.417-.878.926-.878.508 0 .924.37.924.878a.928.928 0 0 1-.924.925.929.929 0 0 1-.926-.925zm2.683 0c0-.509.416-.878.924-.878.51 0 .926.37.926.878a.929.929 0 0 1-.926.925.928.928 0 0 1-.924-.925zm2.73 0a.85.85 0 0 1 .878-.878c.508 0 .925.37.925.878a.928.928 0 0 1-.925.925c-.51 0-.879-.417-.879-.925zm-10.778 0c0-.509.416-.878.925-.878a.85.85 0 0 1 .878.878c0 .508-.37.925-.878.925a.928.928 0 0 1-.925-.925zm16.142 0c0-.509.416-.878.925-.878.509 0 .88.37.88.878s-.371.925-.88.925a.928.928 0 0 1-.925-.925zm0-2.682c0-.509.416-.925.925-.925.509 0 .88.416.88.925a.878.878 0 0 1-.88.878c-.51 0-.925-.416-.925-.878zm0 5.41c0-.463.416-.878.925-.878.509 0 .88.415.88.878 0 .508-.371.923-.88.923a.927.927 0 0 1-.925-.923zm2.683-2.728c0-.509.416-.878.925-.878.463 0 .879.37.879.878s-.416.925-.88.925a.928.928 0 0 1-.924-.925zm-5.365 5.502c0-.509.415-.924.925-.924.462 0 .878.415.878.924 0 .51-.416.88-.878.88-.51 0-.925-.37-.925-.88zm0-10.958c0-.509.415-.926.925-.926.462 0 .878.417.878.926 0 .507-.416.925-.878.925a.928.928 0 0 1-.925-.925zm0 2.774c0-.509.415-.925.925-.925.462 0 .878.416.878.925 0 .462-.416.878-.878.878-.51 0-.925-.416-.925-.878zm0 2.682c0-.509.415-.878.925-.878.462 0 .878.37.878.878s-.416.925-.878.925a.928.928 0 0 1-.925-.925z"/></g></g></svg>