<svg height="277pt" viewBox="-14 0 277 277.50116" width="277pt" xmlns="http://www.w3.org/2000/svg"><path d="m194.421875 185.890625c1.742187-.828125 2.851563-2.582031 2.851563-4.511719v-59.960937c0-2.761719-2.238282-5-5-5-2.761719 0-5 2.238281-5 5v56.800781l-58 27.601562v-74.164062l65.132812-31.019531c2.492188-1.183594 3.554688-4.167969 2.367188-6.664063-.40625-.792968-1.023438-1.464844-1.785157-1.933594-.160156-.183593-.359375-.332031-.582031-.429687l-68-32.375c-1.359375-.648437-2.941406-.648437-4.300781 0l-68 32.375c-.0625.035156-.089844.082031-.152344.113281-.121094.0625-.25.101563-.367187.171875-1.449219.917969-2.328126 2.511719-2.328126 4.226563v85.253906c0 1.925781 1.109376 3.683594 2.847657 4.511719l68 32.375c1.320312.648437 2.863281.648437 4.183593 0h.117188zm-133.121094-81.847656 20.945313 9.972656c2.488281 1.164063 5.449218.101563 6.632812-2.378906 1.179688-2.480469.136719-5.449219-2.332031-6.648438l-18.617187-8.867187 56.359374-26.835938 56.355469 26.835938-56.355469 26.839844-17.527343-8.347657c-2.488281-1.164062-5.449219-.097656-6.632813 2.378907-1.179687 2.480468-.140625 5.449218 2.332032 6.652343l16.832031 8v74.1875l-58-27.601562zm0 0"/><path d="m143.855469 16.332031 12.46875-6.964843c2.414062-1.347657 3.277343-4.394532 1.929687-6.804688-1.347656-2.410156-4.394531-3.273438-6.804687-1.929688l-26 14.511719c-1.339844.746094-2.257813 2.066407-2.5 3.582031-.238281 1.515626.230469 3.054688 1.273437 4.179688l20.640625 22.246094c1.199219 1.359375 3.046875 1.960937 4.820313 1.570312 1.773437-.386718 3.195312-1.707031 3.714844-3.449218.523437-1.738282.058593-3.621094-1.207032-4.921876l-11.457031-12.359374c54.632813 8.082031 95.675781 54.066406 97.519531 109.261718 1.847656 55.199219-36.03125 103.824219-90.003906 115.535156-2.5.539063-4.191406 2.875-3.917969 5.417969.269531 2.542969 2.414063 4.472657 4.96875 4.472657.355469 0 .710938-.039063 1.0625-.117188 58.394531-12.664062 99.523438-65.082031 97.933594-124.816406-1.59375-59.734375-45.449219-109.886719-104.4375-119.425782zm0 0"/><path d="m103.722656 232.351562c-1.214844-1.320312-3.039062-1.886718-4.785156-1.492187s-3.148438 1.695313-3.675781 3.40625c-.527344 1.714844-.09375 3.578125 1.128906 4.886719l11.457031 12.347656c-54.808594-8.09375-95.921875-54.324219-97.566406-109.699219-1.640625-55.378906 36.664062-103.960937 90.894531-115.285156 2.707031-.5625 4.441407-3.210937 3.878907-5.914063-.5625-2.703124-3.210938-4.441406-5.914063-3.878906-58.664063 12.261719-100.230469 64.632813-98.859375 124.550782 1.375 59.914062 45.296875 110.324218 104.460938 119.890624l-12.492188 6.96875c-2.410156 1.347657-3.273438 4.394532-1.929688 6.804688 1.347657 2.414062 4.394532 3.277344 6.804688 1.929688l26-14.507813c1.339844-.75 2.261719-2.070313 2.5-3.585937.238281-1.511719-.230469-3.054688-1.269531-4.179688zm0 0"/></svg>