<svg height="277pt" viewBox="-12 0 277 277.5729" width="277pt" xmlns="http://www.w3.org/2000/svg"><path d="m248.023438 170.398438h-4.96875v-44.511719c0-2.761719-2.238282-5-5-5h-23.601563v-27c0-2.761719-2.238281-5-5-5h-16.464844c-2.761719 0-5 2.238281-5 5 0 2.757812 2.238281 5 5 5h11.441407v22h-28.574219v-52.066407h29.453125c2.761718 0 5-2.238281 5-5v-23.496093c9.980468-2.640625 16.429687-12.300781 15.042968-22.53125-1.390624-10.226563-10.1875-17.8203128-20.507812-17.699219-10.324219.121094-18.9375 7.914062-20.089844 18.171875s5.519532 19.769531 15.554688 22.175781v18.378906h-29.464844c-2.761719 0-5 2.238282-5 5v25.066407h-15.855469c-2.761719 0-5 2.238281-5 5 0 2.757812 2.238281 5 5 5h15.867188v22h-34.199219v-80.503907c10.035156-2.527343 16.613281-12.132812 15.34375-22.402343-1.273438-10.269531-9.996094-17.980469-20.34375-17.980469s-19.074219 7.710938-20.347656 17.980469c-1.269532 10.269531 5.3125 19.875 15.347656 22.402343v48.503907h-14.296875c-2.761719 0-5 2.238281-5 5 0 2.757812 2.238281 5 5 5h14.296875v22h-34v-57.066407c0-2.761718-2.242188-5-5-5h-29.457031v-18.4375c10.035156-2.527343 16.617187-12.132812 15.34375-22.402343-1.269531-10.269531-9.996094-17.980469-20.34375-17.980469-10.347657 0-19.074219 7.710938-20.34375 17.980469-1.273438 10.269531 5.308593 19.875 15.34375 22.402343v23.4375c0 2.761719 2.238281 5 5 5h29.457031v20.066407h-56.371094c-11.589844.011719-20.984375 9.40625-21 21v162.6875c0 2.761719 2.238282 5 5 5h232.753906c2.761719 0 5-2.238281 5-5v-26.082031c0-2.761719-2.238281-5-5-5-2.761718 0-5 2.238281-5 5v21.082031h-222.753906v-139.882813c3.296875 2.078125 7.105469 3.183594 11 3.203125h211.769532v39.511719h-38.398438c-15.734375.261719-28.355469 13.089844-28.355469 28.828125 0 15.734375 12.621094 28.5625 28.355469 28.828125h53.367188c2.761718 0 5-2.238281 5-5v-47.664062c0-2.761719-2.238282-5-5-5zm-53.414063-149.824219c0-5.800781 4.703125-10.5 10.5-10.5 5.800781 0 10.5 4.699219 10.5 10.5 0 5.796875-4.699219 10.5-10.5 10.5-5.796875-.007813-10.492187-4.703125-10.5-10.5zm-78.453125 0c0-5.800781 4.699219-10.5 10.5-10.5 5.796875 0 10.5 4.699219 10.5 10.5 0 5.796875-4.703125 10.5-10.5 10.5-5.796875-.007813-10.496094-4.703125-10.5-10.5zm-78.457031 0c0-5.800781 4.699219-10.5 10.5-10.5 5.796875 0 10.5 4.699219 10.5 10.5 0 5.796875-4.703125 10.5-10.5 10.5-5.796875-.007813-10.496094-4.703125-10.5-10.5zm-27.414063 89.3125c.007813-6.074219 4.929688-10.996094 11-11h56.371094v22h-56.371094c-6.070312-.007813-10.992187-4.929688-11-11zm232.738282 108.175781h-48.367188c-10.402344 0-18.832031-8.433594-18.832031-18.832031 0-10.402344 8.429687-18.832031 18.832031-18.832031h48.367188zm0 0"/><path d="m195.097656 190.664062c-4.730468 0-8.566406 3.835938-8.5625 8.566407 0 4.730469 3.835938 8.566406 8.570313 8.5625 4.730469-.003907 8.5625-3.839844 8.558593-8.570313-.011718-4.726562-3.839843-8.554687-8.566406-8.558594zm0 0"/></svg>