<svg width="1924" height="1064" viewBox="0 0 1924 1064" fill="none" xmlns="http://www.w3.org/2000/svg">
<mask id="mask0" mask-type="alpha" maskUnits="userSpaceOnUse" x="0" y="0" width="1924" height="1064">
<path fill-rule="evenodd" clip-rule="evenodd" d="M1924 0H0V967.064C230.517 954.004 417.602 992.355 568.067 1023.2C636.592 1037.25 697.522 1049.74 751.5 1055.1C885.151 1068.4 1046.17 1065.44 1111 1055.1C1614 921.043 1786.5 988.074 1924 1062.11V0Z" fill="#0D78CA"/>
</mask>
<g mask="url(#mask0)">
<rect x="-125" y="-107.049" width="2247" height="1382.63" fill="#0A5DAB"/>
<path d="M1603 668.305L1924 97.0442V1268.08H679V1047.48L1603 668.305Z" fill="#1062B5"/>
<path d="M996 351.66L1924 19.0087V-7.15256e-06L743.5 -4.00183L996 351.66Z" fill="#0858A5"/>
<ellipse opacity="0.6" cx="532" cy="388.177" rx="469" ry="469.214" fill="#0F64B5"/>
<path d="M1167 170.078L737 350.16" stroke="#0C69AF" stroke-width="3"/>
<path d="M257.5 298.636C257.5 332.895 229.741 360.666 195.5 360.666C161.259 360.666 133.5 332.895 133.5 298.636C133.5 264.377 161.259 236.607 195.5 236.607C229.741 236.607 257.5 264.377 257.5 298.636Z" stroke="#0A53A2" stroke-width="5"/>
<path d="M91.5 119.555C91.5 134.474 79.411 146.567 64.5 146.567C49.589 146.567 37.5 134.474 37.5 119.555C37.5 104.635 49.589 92.5415 64.5 92.5415C79.411 92.5415 91.5 104.635 91.5 119.555Z" stroke="#0C69AD" stroke-width="3"/>
<ellipse opacity="0.8" cx="-2" cy="556.254" rx="168" ry="168.077" fill="#0D5CAA"/>
<path d="M1121.5 605.776C1121.5 695.842 1048.52 768.852 958.5 768.852C868.479 768.852 795.5 695.842 795.5 605.776C795.5 515.71 868.479 442.7 958.5 442.7C1048.52 442.7 1121.5 515.71 1121.5 605.776Z" stroke="#0C5FB0" stroke-width="7"/>
<ellipse cx="1876.5" cy="443.702" rx="31.5" ry="31.5144" fill="url(#paint0_linear)"/>
<path d="M1137 799.364L1345 1006.46V1129.01H866V1068.49L1137 799.364Z" fill="#1062B5"/>
<path d="M1924 672.532V1064.49L1658 1096.5C1668.5 1067.49 1683.2 1004.06 1658 982.448C1632.8 960.838 1600.17 966.774 1587 972.443C1484.2 677.509 1817.5 577.763 1924 672.532Z" fill="#105EB3"/>
<path d="M1728.17 386.003C1729.73 387.565 1732.27 387.566 1733.83 386.004C1735.39 384.442 1735.39 381.909 1733.83 380.347L1728.17 386.003ZM1468.83 115.226C1467.27 113.664 1464.73 113.663 1463.17 115.225C1461.61 116.787 1461.61 119.319 1463.17 120.882L1468.83 115.226ZM1708.67 405.511C1710.23 407.074 1712.77 407.074 1714.33 405.513C1715.89 403.951 1715.89 401.418 1714.33 399.856L1708.67 405.511ZM1449.33 134.735C1447.77 133.172 1445.23 133.172 1443.67 134.734C1442.11 136.295 1442.11 138.828 1443.67 140.391L1449.33 134.735ZM1690.17 424.02C1691.73 425.582 1694.27 425.583 1695.83 424.021C1697.39 422.459 1697.39 419.927 1695.83 418.364L1690.17 424.02ZM1430.83 153.243C1429.27 151.681 1426.73 151.68 1425.17 153.242C1423.61 154.804 1423.61 157.336 1425.17 158.899L1430.83 153.243ZM1670.67 443.529C1672.23 445.091 1674.77 445.092 1676.33 443.53C1677.89 441.968 1677.89 439.436 1676.33 437.873L1670.67 443.529ZM1411.33 172.752C1409.77 171.19 1407.23 171.189 1405.67 172.751C1404.11 174.313 1404.11 176.845 1405.67 178.408L1411.33 172.752ZM1652.17 462.037C1653.73 463.6 1656.27 463.6 1657.83 462.038C1659.39 460.477 1659.39 457.944 1657.83 456.382L1652.17 462.037ZM1392.83 191.261C1391.27 189.698 1388.73 189.698 1387.17 191.259C1385.61 192.821 1385.61 195.354 1387.17 196.916L1392.83 191.261ZM1632.67 481.546C1634.23 483.108 1636.77 483.109 1638.33 481.547C1639.89 479.986 1639.89 477.453 1638.33 475.89L1632.67 481.546ZM1373.33 210.77C1371.77 209.207 1369.23 209.207 1367.67 210.768C1366.11 212.33 1366.11 214.863 1367.67 216.425L1373.33 210.77ZM1614.17 500.054C1615.73 501.617 1618.27 501.617 1619.83 500.056C1621.39 498.494 1621.39 495.961 1619.83 494.399L1614.17 500.054ZM1354.83 229.278C1353.27 227.716 1350.73 227.715 1349.17 229.277C1347.61 230.838 1347.61 233.371 1349.17 234.934L1354.83 229.278ZM1594.67 519.563C1596.23 521.126 1598.77 521.126 1600.33 519.565C1601.89 518.003 1601.89 515.47 1600.33 513.908L1594.67 519.563ZM1335.33 248.787C1333.77 247.224 1331.23 247.224 1329.67 248.786C1328.11 250.347 1328.11 252.88 1329.67 254.443L1335.33 248.787ZM1576.67 537.572C1578.23 539.134 1580.77 539.135 1582.33 537.573C1583.89 536.011 1583.89 533.478 1582.33 531.916L1576.67 537.572ZM1317.33 266.795C1315.77 265.233 1313.23 265.232 1311.67 266.794C1310.11 268.356 1310.11 270.888 1311.67 272.451L1317.33 266.795ZM1557.17 557.08C1558.73 558.643 1561.27 558.643 1562.83 557.082C1564.39 555.52 1564.39 552.987 1562.83 551.425L1557.17 557.08ZM1297.83 286.304C1296.27 284.742 1293.73 284.741 1292.17 286.303C1290.61 287.864 1290.61 290.397 1292.17 291.96L1297.83 286.304ZM1538.67 575.589C1540.23 577.151 1542.77 577.152 1544.33 575.59C1545.89 574.028 1545.89 571.496 1544.33 569.933L1538.67 575.589ZM1279.33 304.812C1277.77 303.25 1275.23 303.249 1273.67 304.811C1272.11 306.373 1272.11 308.906 1273.67 310.468L1279.33 304.812ZM1519.17 595.098C1520.73 596.66 1523.27 596.661 1524.83 595.099C1526.39 593.537 1526.39 591.005 1524.83 589.442L1519.17 595.098ZM1259.83 324.321C1258.27 322.759 1255.73 322.758 1254.17 324.32C1252.61 325.882 1252.61 328.414 1254.17 329.977L1259.83 324.321ZM1501.17 613.106C1502.73 614.668 1505.27 614.669 1506.83 613.107C1508.39 611.546 1508.39 609.013 1506.83 607.45L1501.17 613.106ZM1241.83 342.33C1240.27 340.767 1237.73 340.767 1236.17 342.328C1234.61 343.89 1234.61 346.423 1236.17 347.985L1241.83 342.33ZM1482.67 631.614C1484.23 633.177 1486.77 633.177 1488.33 631.616C1489.89 630.054 1489.89 627.521 1488.33 625.959L1482.67 631.614ZM1223.33 360.838C1221.77 359.276 1219.23 359.275 1217.67 360.837C1216.11 362.398 1216.11 364.931 1217.67 366.494L1223.33 360.838ZM1463.17 651.123C1464.73 652.686 1467.27 652.686 1468.83 651.125C1470.39 649.563 1470.39 647.03 1468.83 645.468L1463.17 651.123ZM1203.83 380.347C1202.27 378.784 1199.73 378.784 1198.17 380.346C1196.61 381.907 1196.61 384.44 1198.17 386.003L1203.83 380.347ZM1474.21 131.928C1475.77 133.491 1478.31 133.491 1479.87 131.93C1481.43 130.368 1481.43 127.835 1479.87 126.273L1474.21 131.928ZM1501.95 148.366C1500.39 146.804 1497.86 146.803 1496.3 148.365C1494.73 149.927 1494.73 152.459 1496.3 154.022L1501.95 148.366ZM1518.38 176.115C1519.94 177.678 1522.47 177.678 1524.04 176.116C1525.6 174.555 1525.6 172.022 1524.04 170.46L1518.38 176.115ZM1546.12 192.553C1544.56 190.991 1542.03 190.99 1540.46 192.552C1538.9 194.113 1538.9 196.646 1540.46 198.209L1546.12 192.553ZM1562.55 220.302C1564.11 221.864 1566.64 221.865 1568.2 220.303C1569.77 218.741 1569.77 216.209 1568.2 214.646L1562.55 220.302ZM1590.29 236.74C1588.73 235.177 1586.19 235.177 1584.63 236.739C1583.07 238.3 1583.07 240.833 1584.63 242.395L1590.29 236.74ZM1606.71 264.489C1608.27 266.051 1610.81 266.052 1612.37 264.49C1613.93 262.928 1613.93 260.396 1612.37 258.833L1606.71 264.489ZM1634.45 280.927C1632.89 279.364 1630.36 279.364 1628.8 280.925C1627.23 282.487 1627.23 285.02 1628.8 286.582L1634.45 280.927ZM1650.88 308.676C1652.44 310.238 1654.97 310.239 1656.54 308.677C1658.1 307.115 1658.1 304.582 1656.54 303.02L1650.88 308.676ZM1678.62 325.113C1677.06 323.551 1674.53 323.55 1672.96 325.112C1671.4 326.674 1671.4 329.207 1672.96 330.769L1678.62 325.113ZM1695.05 352.862C1696.61 354.425 1699.14 354.425 1700.7 352.864C1702.27 351.302 1702.27 348.769 1700.7 347.207L1695.05 352.862ZM1722.79 369.3C1721.23 367.738 1718.69 367.737 1717.13 369.299C1715.57 370.861 1715.57 373.393 1717.13 374.956L1722.79 369.3ZM1454.71 151.437C1456.27 153 1458.81 153 1460.37 151.438C1461.93 149.877 1461.93 147.344 1460.37 145.782L1454.71 151.437ZM1482.45 167.875C1480.89 166.313 1478.36 166.312 1476.8 167.874C1475.23 169.436 1475.23 171.968 1476.8 173.531L1482.45 167.875ZM1498.88 195.624C1500.44 197.186 1502.97 197.187 1504.54 195.625C1506.1 194.064 1506.1 191.531 1504.54 189.968L1498.88 195.624ZM1526.62 212.062C1525.06 210.499 1522.53 210.499 1520.96 212.061C1519.4 213.622 1519.4 216.155 1520.96 217.717L1526.62 212.062ZM1543.05 239.811C1544.61 241.373 1547.14 241.374 1548.7 239.812C1550.27 238.25 1550.27 235.718 1548.7 234.155L1543.05 239.811ZM1570.79 256.249C1569.23 254.686 1566.69 254.686 1565.13 256.247C1563.57 257.809 1563.57 260.342 1565.13 261.904L1570.79 256.249ZM1587.21 283.998C1588.77 285.56 1591.31 285.561 1592.87 283.999C1594.43 282.437 1594.43 279.905 1592.87 278.342L1587.21 283.998ZM1614.95 300.435C1613.39 298.873 1610.86 298.872 1609.3 300.434C1607.73 301.996 1607.73 304.529 1609.3 306.091L1614.95 300.435ZM1631.38 328.184C1632.94 329.747 1635.47 329.747 1637.04 328.186C1638.6 326.624 1638.6 324.091 1637.04 322.529L1631.38 328.184ZM1659.12 344.622C1657.56 343.06 1655.03 343.059 1653.46 344.621C1651.9 346.183 1651.9 348.715 1653.46 350.278L1659.12 344.622ZM1675.55 372.371C1677.11 373.934 1679.64 373.934 1681.2 372.373C1682.77 370.811 1682.77 368.278 1681.2 366.716L1675.55 372.371ZM1703.29 388.809C1701.73 387.247 1699.19 387.246 1697.63 388.808C1696.07 390.37 1696.07 392.902 1697.63 394.465L1703.29 388.809ZM1436.21 169.946C1437.77 171.508 1440.31 171.509 1441.87 169.947C1443.43 168.385 1443.43 165.853 1441.87 164.29L1436.21 169.946ZM1463.95 186.383C1462.39 184.821 1459.86 184.82 1458.3 186.382C1456.73 187.944 1456.73 190.477 1458.3 192.039L1463.95 186.383ZM1480.38 214.132C1481.94 215.695 1484.47 215.695 1486.04 214.134C1487.6 212.572 1487.6 210.039 1486.04 208.477L1480.38 214.132ZM1508.12 230.57C1506.56 229.008 1504.03 229.007 1502.46 230.569C1500.9 232.131 1500.9 234.663 1502.46 236.226L1508.12 230.57ZM1524.55 258.319C1526.11 259.882 1528.64 259.882 1530.2 258.321C1531.77 256.759 1531.77 254.226 1530.2 252.664L1524.55 258.319ZM1552.29 274.757C1550.73 273.195 1548.19 273.194 1546.63 274.756C1545.07 276.318 1545.07 278.85 1546.63 280.413L1552.29 274.757ZM1568.71 302.506C1570.27 304.069 1572.81 304.069 1574.37 302.507C1575.93 300.946 1575.93 298.413 1574.37 296.851L1568.71 302.506ZM1596.45 318.944C1594.89 317.381 1592.36 317.381 1590.8 318.943C1589.23 320.504 1589.23 323.037 1590.8 324.599L1596.45 318.944ZM1612.88 346.693C1614.44 348.255 1616.97 348.256 1618.54 346.694C1620.1 345.132 1620.1 342.6 1618.54 341.037L1612.88 346.693ZM1640.62 363.131C1639.06 361.568 1636.53 361.568 1634.96 363.129C1633.4 364.691 1633.4 367.224 1634.96 368.786L1640.62 363.131ZM1657.05 390.88C1658.61 392.442 1661.14 392.443 1662.7 390.881C1664.27 389.319 1664.27 386.787 1662.7 385.224L1657.05 390.88ZM1684.79 407.318C1683.23 405.755 1680.69 405.754 1679.13 407.316C1677.57 408.878 1677.57 411.411 1679.13 412.973L1684.79 407.318ZM1416.71 189.455C1418.27 191.017 1420.81 191.018 1422.37 189.456C1423.93 187.894 1423.93 185.361 1422.37 183.799L1416.71 189.455ZM1444.45 205.892C1442.89 204.33 1440.36 204.329 1438.8 205.891C1437.23 207.453 1437.23 209.985 1438.8 211.548L1444.45 205.892ZM1460.88 233.641C1462.44 235.204 1464.97 235.204 1466.54 233.643C1468.1 232.081 1468.1 229.548 1466.54 227.986L1460.88 233.641ZM1488.62 250.079C1487.06 248.517 1484.53 248.516 1482.96 250.078C1481.4 251.64 1481.4 254.172 1482.96 255.735L1488.62 250.079ZM1505.05 277.828C1506.61 279.391 1509.14 279.391 1510.7 277.829C1512.27 276.268 1512.27 273.735 1510.7 272.173L1505.05 277.828ZM1532.79 294.266C1531.23 292.704 1528.69 292.703 1527.13 294.265C1525.57 295.826 1525.57 298.359 1527.13 299.922L1532.79 294.266ZM1549.21 322.015C1550.77 323.577 1553.31 323.578 1554.87 322.016C1556.43 320.455 1556.43 317.922 1554.87 316.359L1549.21 322.015ZM1576.95 338.453C1575.39 336.89 1572.86 336.89 1571.3 338.452C1569.73 340.013 1569.73 342.546 1571.3 344.108L1576.95 338.453ZM1593.38 366.202C1594.94 367.764 1597.47 367.765 1599.04 366.203C1600.6 364.641 1600.6 362.109 1599.04 360.546L1593.38 366.202ZM1621.12 382.64C1619.56 381.077 1617.03 381.077 1615.46 382.638C1613.9 384.2 1613.9 386.733 1615.46 388.295L1621.12 382.64ZM1637.55 410.389C1639.11 411.951 1641.64 411.952 1643.2 410.39C1644.77 408.828 1644.77 406.296 1643.2 404.733L1637.55 410.389ZM1665.29 426.826C1663.73 425.264 1661.19 425.263 1659.63 426.825C1658.07 428.387 1658.07 430.92 1659.63 432.482L1665.29 426.826ZM1398.21 207.963C1399.77 209.525 1402.31 209.526 1403.87 207.964C1405.43 206.403 1405.43 203.87 1403.87 202.307L1398.21 207.963ZM1425.95 224.401C1424.39 222.838 1421.86 222.838 1420.3 224.4C1418.73 225.961 1418.73 228.494 1420.3 230.056L1425.95 224.401ZM1442.38 252.15C1443.94 253.712 1446.47 253.713 1448.04 252.151C1449.6 250.589 1449.6 248.057 1448.04 246.494L1442.38 252.15ZM1470.12 268.588C1468.56 267.025 1466.03 267.025 1464.46 268.586C1462.9 270.148 1462.9 272.681 1464.46 274.243L1470.12 268.588ZM1486.55 296.337C1488.11 297.899 1490.64 297.9 1492.2 296.338C1493.77 294.776 1493.77 292.243 1492.2 290.681L1486.55 296.337ZM1514.29 312.774C1512.73 311.212 1510.19 311.211 1508.63 312.773C1507.07 314.335 1507.07 316.868 1508.63 318.43L1514.29 312.774ZM1530.71 340.523C1532.27 342.086 1534.81 342.086 1536.37 340.525C1537.93 338.963 1537.93 336.43 1536.37 334.868L1530.71 340.523ZM1558.45 356.961C1556.89 355.399 1554.36 355.398 1552.8 356.96C1551.23 358.522 1551.23 361.054 1552.8 362.617L1558.45 356.961ZM1574.88 384.71C1576.44 386.273 1578.97 386.273 1580.54 384.711C1582.1 383.15 1582.1 380.617 1580.54 379.055L1574.88 384.71ZM1602.62 401.148C1601.06 399.586 1598.53 399.585 1596.96 401.147C1595.4 402.709 1595.4 405.241 1596.96 406.804L1602.62 401.148ZM1619.05 428.897C1620.61 430.459 1623.14 430.46 1624.7 428.898C1626.27 427.337 1626.27 424.804 1624.7 423.241L1619.05 428.897ZM1646.79 445.335C1645.23 443.772 1642.69 443.772 1641.13 445.334C1639.57 446.895 1639.57 449.428 1641.13 450.99L1646.79 445.335ZM1378.71 227.472C1380.27 229.034 1382.81 229.035 1384.37 227.473C1385.93 225.911 1385.93 223.379 1384.37 221.816L1378.71 227.472ZM1406.45 243.91C1404.89 242.347 1402.36 242.347 1400.8 243.908C1399.23 245.47 1399.23 248.003 1400.8 249.565L1406.45 243.91ZM1422.88 271.659C1424.44 273.221 1426.97 273.222 1428.54 271.66C1430.1 270.098 1430.1 267.566 1428.54 266.003L1422.88 271.659ZM1450.62 288.097C1449.06 286.534 1446.53 286.533 1444.96 288.095C1443.4 289.657 1443.4 292.19 1444.96 293.752L1450.62 288.097ZM1467.05 315.846C1468.61 317.408 1471.14 317.409 1472.7 315.847C1474.27 314.285 1474.27 311.752 1472.7 310.19L1467.05 315.846ZM1494.79 332.283C1493.23 330.721 1490.69 330.72 1489.13 332.282C1487.57 333.844 1487.57 336.376 1489.13 337.939L1494.79 332.283ZM1511.21 360.032C1512.77 361.595 1515.31 361.595 1516.87 360.034C1518.43 358.472 1518.43 355.939 1516.87 354.377L1511.21 360.032ZM1538.95 376.47C1537.39 374.908 1534.86 374.907 1533.3 376.469C1531.73 378.031 1531.73 380.563 1533.3 382.126L1538.95 376.47ZM1555.38 404.219C1556.94 405.782 1559.47 405.782 1561.04 404.22C1562.6 402.659 1562.6 400.126 1561.04 398.564L1555.38 404.219ZM1583.12 420.657C1581.56 419.095 1579.03 419.094 1577.46 420.656C1575.9 422.217 1575.9 424.75 1577.46 426.313L1583.12 420.657ZM1599.55 448.406C1601.11 449.968 1603.64 449.969 1605.2 448.407C1606.77 446.845 1606.77 444.313 1605.2 442.75L1599.55 448.406ZM1627.29 464.844C1625.73 463.281 1623.19 463.281 1621.63 464.842C1620.07 466.404 1620.07 468.937 1621.63 470.499L1627.29 464.844ZM1360.21 245.98C1361.77 247.543 1364.31 247.543 1365.87 245.982C1367.43 244.42 1367.43 241.887 1365.87 240.325L1360.21 245.98ZM1387.95 262.418C1386.39 260.856 1383.86 260.855 1382.3 262.417C1380.73 263.979 1380.73 266.511 1382.3 268.074L1387.95 262.418ZM1404.38 290.167C1405.94 291.73 1408.47 291.73 1410.04 290.168C1411.6 288.607 1411.6 286.074 1410.04 284.512L1404.38 290.167ZM1432.12 306.605C1430.56 305.043 1428.03 305.042 1426.46 306.604C1424.9 308.165 1424.9 310.698 1426.46 312.261L1432.12 306.605ZM1448.55 334.354C1450.11 335.916 1452.64 335.917 1454.2 334.355C1455.77 332.793 1455.77 330.261 1454.2 328.698L1448.55 334.354ZM1476.29 350.792C1474.73 349.229 1472.19 349.229 1470.63 350.79C1469.07 352.352 1469.07 354.885 1470.63 356.447L1476.29 350.792ZM1492.71 378.541C1494.27 380.103 1496.81 380.104 1498.37 378.542C1499.93 376.98 1499.93 374.448 1498.37 372.885L1492.71 378.541ZM1520.45 394.979C1518.89 393.416 1516.36 393.416 1514.8 394.977C1513.23 396.539 1513.23 399.072 1514.8 400.634L1520.45 394.979ZM1536.88 422.728C1538.44 424.29 1540.97 424.291 1542.54 422.729C1544.1 421.167 1544.1 418.634 1542.54 417.072L1536.88 422.728ZM1564.62 439.165C1563.06 437.603 1560.53 437.602 1558.96 439.164C1557.4 440.726 1557.4 443.259 1558.96 444.821L1564.62 439.165ZM1581.05 466.914C1582.61 468.477 1585.14 468.477 1586.7 466.916C1588.27 465.354 1588.27 462.821 1586.7 461.259L1581.05 466.914ZM1608.79 483.352C1607.23 481.79 1604.69 481.789 1603.13 483.351C1601.57 484.913 1601.57 487.445 1603.13 489.008L1608.79 483.352ZM1340.71 265.489C1342.27 267.052 1344.81 267.052 1346.37 265.49C1347.93 263.929 1347.93 261.396 1346.37 259.834L1340.71 265.489ZM1368.45 281.927C1366.89 280.365 1364.36 280.364 1362.8 281.926C1361.23 283.487 1361.23 286.02 1362.8 287.583L1368.45 281.927ZM1384.88 309.676C1386.44 311.238 1388.97 311.239 1390.54 309.677C1392.1 308.116 1392.1 305.583 1390.54 304.02L1384.88 309.676ZM1412.62 326.114C1411.06 324.551 1408.53 324.551 1406.96 326.113C1405.4 327.674 1405.4 330.207 1406.96 331.769L1412.62 326.114ZM1429.05 353.863C1430.61 355.425 1433.14 355.426 1434.7 353.864C1436.27 352.302 1436.27 349.77 1434.7 348.207L1429.05 353.863ZM1456.79 370.301C1455.23 368.738 1452.69 368.738 1451.13 370.299C1449.57 371.861 1449.57 374.394 1451.13 375.956L1456.79 370.301ZM1473.21 398.05C1474.77 399.612 1477.31 399.613 1478.87 398.051C1480.43 396.489 1480.43 393.957 1478.87 392.394L1473.21 398.05ZM1500.95 414.487C1499.39 412.925 1496.86 412.924 1495.3 414.486C1493.73 416.048 1493.73 418.581 1495.3 420.143L1500.95 414.487ZM1517.38 442.236C1518.94 443.799 1521.47 443.799 1523.04 442.238C1524.6 440.676 1524.6 438.143 1523.04 436.581L1517.38 442.236ZM1545.12 458.674C1543.56 457.112 1541.03 457.111 1539.46 458.673C1537.9 460.235 1537.9 462.767 1539.46 464.33L1545.12 458.674ZM1561.55 486.423C1563.11 487.986 1565.64 487.986 1567.2 486.425C1568.77 484.863 1568.77 482.33 1567.2 480.768L1561.55 486.423ZM1589.29 502.861C1587.73 501.299 1585.19 501.298 1583.63 502.86C1582.07 504.422 1582.07 506.954 1583.63 508.517L1589.29 502.861ZM1322.71 283.497C1324.27 285.06 1326.81 285.06 1328.37 283.499C1329.93 281.937 1329.93 279.404 1328.37 277.842L1322.71 283.497ZM1350.45 299.935C1348.89 298.373 1346.36 298.372 1344.8 299.934C1343.23 301.496 1343.23 304.028 1344.8 305.591L1350.45 299.935ZM1366.88 327.684C1368.44 329.247 1370.97 329.247 1372.54 327.686C1374.1 326.124 1374.1 323.591 1372.54 322.029L1366.88 327.684ZM1394.62 344.122C1393.06 342.56 1390.53 342.559 1388.96 344.121C1387.4 345.683 1387.4 348.215 1388.96 349.778L1394.62 344.122ZM1411.05 371.871C1412.61 373.433 1415.14 373.434 1416.7 371.872C1418.27 370.311 1418.27 367.778 1416.7 366.215L1411.05 371.871ZM1438.79 388.309C1437.23 386.746 1434.69 386.746 1433.13 388.308C1431.57 389.869 1431.57 392.402 1433.13 393.964L1438.79 388.309ZM1455.21 416.058C1456.77 417.62 1459.31 417.621 1460.87 416.059C1462.43 414.497 1462.43 411.965 1460.87 410.402L1455.21 416.058ZM1482.95 432.496C1481.39 430.933 1478.86 430.933 1477.3 432.494C1475.73 434.056 1475.73 436.589 1477.3 438.151L1482.95 432.496ZM1499.38 460.245C1500.94 461.807 1503.47 461.808 1505.04 460.246C1506.6 458.684 1506.6 456.152 1505.04 454.589L1499.38 460.245ZM1527.12 476.683C1525.56 475.12 1523.03 475.119 1521.46 476.681C1519.9 478.243 1519.9 480.776 1521.46 482.338L1527.12 476.683ZM1543.55 504.431C1545.11 505.994 1547.64 505.995 1549.2 504.433C1550.77 502.871 1550.77 500.338 1549.2 498.776L1543.55 504.431ZM1571.29 520.869C1569.73 519.307 1567.19 519.306 1565.63 520.868C1564.07 522.43 1564.07 524.962 1565.63 526.525L1571.29 520.869ZM1303.21 303.006C1304.77 304.569 1307.31 304.569 1308.87 303.008C1310.43 301.446 1310.43 298.913 1308.87 297.351L1303.21 303.006ZM1330.95 319.444C1329.39 317.882 1326.86 317.881 1325.3 319.443C1323.73 321.005 1323.73 323.537 1325.3 325.1L1330.95 319.444ZM1347.38 347.193C1348.94 348.756 1351.47 348.756 1353.04 347.194C1354.6 345.633 1354.6 343.1 1353.04 341.538L1347.38 347.193ZM1375.12 363.631C1373.56 362.068 1371.03 362.068 1369.46 363.63C1367.9 365.191 1367.9 367.724 1369.46 369.287L1375.12 363.631ZM1391.55 391.38C1393.11 392.942 1395.64 392.943 1397.2 391.381C1398.77 389.819 1398.77 387.287 1397.2 385.724L1391.55 391.38ZM1419.29 407.818C1417.73 406.255 1415.19 406.255 1413.63 407.816C1412.07 409.378 1412.07 411.911 1413.63 413.473L1419.29 407.818ZM1435.71 435.567C1437.27 437.129 1439.81 437.13 1441.37 435.568C1442.93 434.006 1442.93 431.474 1441.37 429.911L1435.71 435.567ZM1463.45 452.005C1461.89 450.442 1459.36 450.442 1457.8 452.003C1456.23 453.565 1456.23 456.098 1457.8 457.66L1463.45 452.005ZM1479.88 479.754C1481.44 481.316 1483.97 481.317 1485.54 479.755C1487.1 478.193 1487.1 475.66 1485.54 474.098L1479.88 479.754ZM1507.62 496.191C1506.06 494.629 1503.53 494.628 1501.96 496.19C1500.4 497.752 1500.4 500.285 1501.96 501.847L1507.62 496.191ZM1524.05 523.94C1525.61 525.503 1528.14 525.503 1529.7 523.942C1531.27 522.38 1531.27 519.847 1529.7 518.285L1524.05 523.94ZM1551.79 540.378C1550.23 538.816 1547.69 538.815 1546.13 540.377C1544.57 541.939 1544.57 544.471 1546.13 546.034L1551.79 540.378ZM1284.71 321.515C1286.27 323.077 1288.81 323.078 1290.37 321.516C1291.93 319.954 1291.93 317.422 1290.37 315.859L1284.71 321.515ZM1312.45 337.953C1310.89 336.39 1308.36 336.39 1306.8 337.951C1305.23 339.513 1305.23 342.046 1306.8 343.608L1312.45 337.953ZM1328.88 365.702C1330.44 367.264 1332.97 367.265 1334.54 365.703C1336.1 364.141 1336.1 361.608 1334.54 360.046L1328.88 365.702ZM1356.62 382.139C1355.06 380.577 1352.53 380.576 1350.96 382.138C1349.4 383.7 1349.4 386.233 1350.96 387.795L1356.62 382.139ZM1373.05 409.888C1374.61 411.451 1377.14 411.451 1378.7 409.89C1380.27 408.328 1380.27 405.795 1378.7 404.233L1373.05 409.888ZM1400.79 426.326C1399.23 424.764 1396.69 424.763 1395.13 426.325C1393.57 427.887 1393.57 430.419 1395.13 431.982L1400.79 426.326ZM1417.21 454.075C1418.77 455.638 1421.31 455.638 1422.87 454.076C1424.43 452.515 1424.43 449.982 1422.87 448.42L1417.21 454.075ZM1444.95 470.513C1443.39 468.951 1440.86 468.95 1439.3 470.512C1437.73 472.073 1437.73 474.606 1439.3 476.169L1444.95 470.513ZM1461.38 498.262C1462.94 499.824 1465.47 499.825 1467.04 498.263C1468.6 496.702 1468.6 494.169 1467.04 492.606L1461.38 498.262ZM1489.12 514.7C1487.56 513.137 1485.03 513.137 1483.46 514.699C1481.9 516.26 1481.9 518.793 1483.46 520.355L1489.12 514.7ZM1505.55 542.449C1507.11 544.011 1509.64 544.012 1511.2 542.45C1512.77 540.888 1512.77 538.356 1511.2 536.793L1505.55 542.449ZM1533.29 558.887C1531.73 557.324 1529.19 557.324 1527.63 558.885C1526.07 560.447 1526.07 562.98 1527.63 564.542L1533.29 558.887ZM1265.21 341.024C1266.77 342.586 1269.31 342.587 1270.87 341.025C1272.43 339.463 1272.43 336.931 1270.87 335.368L1265.21 341.024ZM1292.95 357.461C1291.39 355.899 1288.86 355.898 1287.3 357.46C1285.73 359.022 1285.73 361.555 1287.3 363.117L1292.95 357.461ZM1309.38 385.21C1310.94 386.773 1313.47 386.773 1315.04 385.212C1316.6 383.65 1316.6 381.117 1315.04 379.555L1309.38 385.21ZM1337.12 401.648C1335.56 400.086 1333.03 400.085 1331.46 401.647C1329.9 403.209 1329.9 405.741 1331.46 407.304L1337.12 401.648ZM1353.55 429.397C1355.11 430.96 1357.64 430.96 1359.2 429.399C1360.77 427.837 1360.77 425.304 1359.2 423.742L1353.55 429.397ZM1381.29 445.835C1379.73 444.273 1377.19 444.272 1375.63 445.834C1374.07 447.396 1374.07 449.928 1375.63 451.491L1381.29 445.835ZM1397.71 473.584C1399.27 475.147 1401.81 475.147 1403.37 473.585C1404.93 472.024 1404.93 469.491 1403.37 467.929L1397.71 473.584ZM1425.45 490.022C1423.89 488.459 1421.36 488.459 1419.8 490.021C1418.23 491.582 1418.23 494.115 1419.8 495.677L1425.45 490.022ZM1441.88 517.771C1443.44 519.333 1445.97 519.334 1447.54 517.772C1449.1 516.21 1449.1 513.678 1447.54 512.115L1441.88 517.771ZM1469.62 534.209C1468.06 532.646 1465.53 532.646 1463.96 534.207C1462.4 535.769 1462.4 538.302 1463.96 539.864L1469.62 534.209ZM1486.05 561.958C1487.61 563.52 1490.14 563.521 1491.7 561.959C1493.27 560.397 1493.27 557.865 1491.7 556.302L1486.05 561.958ZM1513.79 578.396C1512.23 576.833 1509.69 576.832 1508.13 578.394C1506.57 579.956 1506.57 582.489 1508.13 584.051L1513.79 578.396ZM1247.21 359.032C1248.77 360.594 1251.31 360.595 1252.87 359.033C1254.43 357.471 1254.43 354.939 1252.87 353.376L1247.21 359.032ZM1274.95 375.47C1273.39 373.907 1270.86 373.907 1269.3 375.468C1267.73 377.03 1267.73 379.563 1269.3 381.125L1274.95 375.47ZM1291.38 403.219C1292.94 404.781 1295.47 404.782 1297.04 403.22C1298.6 401.658 1298.6 399.126 1297.04 397.563L1291.38 403.219ZM1319.12 419.656C1317.56 418.094 1315.03 418.093 1313.46 419.655C1311.9 421.217 1311.9 423.75 1313.46 425.312L1319.12 419.656ZM1335.55 447.405C1337.11 448.968 1339.64 448.969 1341.2 447.407C1342.77 445.845 1342.77 443.312 1341.2 441.75L1335.55 447.405ZM1363.29 463.843C1361.73 462.281 1359.19 462.28 1357.63 463.842C1356.07 465.404 1356.07 467.936 1357.63 469.499L1363.29 463.843ZM1379.71 491.592C1381.27 493.155 1383.81 493.155 1385.37 491.594C1386.93 490.032 1386.93 487.499 1385.37 485.937L1379.71 491.592ZM1407.45 508.03C1405.89 506.468 1403.36 506.467 1401.8 508.029C1400.23 509.591 1400.23 512.123 1401.8 513.686L1407.45 508.03ZM1423.88 535.779C1425.44 537.342 1427.97 537.342 1429.54 535.78C1431.1 534.219 1431.1 531.686 1429.54 530.124L1423.88 535.779ZM1451.62 552.217C1450.06 550.654 1447.53 550.654 1445.96 552.216C1444.4 553.777 1444.4 556.31 1445.96 557.872L1451.62 552.217ZM1468.05 579.966C1469.61 581.528 1472.14 581.529 1473.7 579.967C1475.27 578.405 1475.27 575.873 1473.7 574.31L1468.05 579.966ZM1495.79 596.404C1494.23 594.841 1491.69 594.841 1490.13 596.402C1488.57 597.964 1488.57 600.497 1490.13 602.059L1495.79 596.404ZM1228.71 377.54C1230.27 379.103 1232.81 379.103 1234.37 377.542C1235.93 375.98 1235.93 373.447 1234.37 371.885L1228.71 377.54ZM1256.45 393.978C1254.89 392.416 1252.36 392.415 1250.8 393.977C1249.23 395.539 1249.23 398.071 1250.8 399.634L1256.45 393.978ZM1272.88 421.727C1274.44 423.29 1276.97 423.29 1278.54 421.728C1280.1 420.167 1280.1 417.634 1278.54 416.072L1272.88 421.727ZM1300.62 438.165C1299.06 436.602 1296.53 436.602 1294.96 438.164C1293.4 439.725 1293.4 442.258 1294.96 443.82L1300.62 438.165ZM1317.05 465.914C1318.61 467.476 1321.14 467.477 1322.7 465.915C1324.27 464.353 1324.27 461.821 1322.7 460.258L1317.05 465.914ZM1344.79 482.352C1343.23 480.789 1340.69 480.789 1339.13 482.35C1337.57 483.912 1337.57 486.445 1339.13 488.007L1344.79 482.352ZM1361.21 510.101C1362.77 511.663 1365.31 511.664 1366.87 510.102C1368.43 508.54 1368.43 506.008 1366.87 504.445L1361.21 510.101ZM1388.95 526.539C1387.39 524.976 1384.86 524.976 1383.3 526.537C1381.73 528.099 1381.73 530.632 1383.3 532.194L1388.95 526.539ZM1405.38 554.288C1406.94 555.85 1409.47 555.851 1411.04 554.289C1412.6 552.727 1412.6 550.194 1411.04 548.632L1405.38 554.288ZM1433.12 570.725C1431.56 569.163 1429.03 569.162 1427.46 570.724C1425.9 572.286 1425.9 574.819 1427.46 576.381L1433.12 570.725ZM1449.55 598.474C1451.11 600.037 1453.64 600.037 1455.2 598.476C1456.77 596.914 1456.77 594.381 1455.2 592.819L1449.55 598.474ZM1477.29 614.912C1475.73 613.35 1473.19 613.349 1471.63 614.911C1470.07 616.473 1470.07 619.005 1471.63 620.568L1477.29 614.912ZM1209.21 397.049C1210.77 398.612 1213.31 398.612 1214.87 397.05C1216.43 395.489 1216.43 392.956 1214.87 391.394L1209.21 397.049ZM1236.95 413.487C1235.39 411.925 1232.86 411.924 1231.3 413.486C1229.73 415.047 1229.73 417.58 1231.3 419.143L1236.95 413.487ZM1253.38 441.236C1254.94 442.798 1257.47 442.799 1259.04 441.237C1260.6 439.676 1260.6 437.143 1259.04 435.58L1253.38 441.236ZM1281.12 457.674C1279.56 456.111 1277.03 456.111 1275.46 457.673C1273.9 459.234 1273.9 461.767 1275.46 463.329L1281.12 457.674ZM1297.55 485.423C1299.11 486.985 1301.64 486.986 1303.2 485.424C1304.77 483.862 1304.77 481.33 1303.2 479.767L1297.55 485.423ZM1325.29 501.861C1323.73 500.298 1321.19 500.298 1319.63 501.859C1318.07 503.421 1318.07 505.954 1319.63 507.516L1325.29 501.861ZM1341.71 529.61C1343.27 531.172 1345.81 531.173 1347.37 529.611C1348.93 528.049 1348.93 525.517 1347.37 523.954L1341.71 529.61ZM1369.45 546.047C1367.89 544.485 1365.36 544.484 1363.8 546.046C1362.23 547.608 1362.23 550.141 1363.8 551.703L1369.45 546.047ZM1385.88 573.796C1387.44 575.359 1389.97 575.359 1391.54 573.798C1393.1 572.236 1393.1 569.703 1391.54 568.141L1385.88 573.796ZM1413.62 590.234C1412.06 588.672 1409.53 588.671 1407.96 590.233C1406.4 591.795 1406.4 594.327 1407.96 595.89L1413.62 590.234ZM1430.05 617.983C1431.61 619.546 1434.14 619.546 1435.7 617.985C1437.27 616.423 1437.27 613.89 1435.7 612.328L1430.05 617.983ZM1457.79 634.421C1456.23 632.859 1453.69 632.858 1452.13 634.42C1450.57 635.982 1450.57 638.514 1452.13 640.077L1457.79 634.421ZM1463.17 120.882L1474.21 131.928L1479.87 126.273L1468.83 115.226L1463.17 120.882ZM1496.3 154.022L1518.38 176.115L1524.04 170.46L1501.95 148.366L1496.3 154.022ZM1540.46 198.209L1562.55 220.302L1568.2 214.646L1546.12 192.553L1540.46 198.209ZM1584.63 242.395L1606.71 264.489L1612.37 258.833L1590.29 236.74L1584.63 242.395ZM1628.8 286.582L1650.88 308.676L1656.54 303.02L1634.45 280.927L1628.8 286.582ZM1672.96 330.769L1695.05 352.862L1700.7 347.207L1678.62 325.113L1672.96 330.769ZM1717.13 374.956L1728.17 386.003L1733.83 380.347L1722.79 369.3L1717.13 374.956ZM1443.67 140.391L1454.71 151.437L1460.37 145.782L1449.33 134.735L1443.67 140.391ZM1476.8 173.531L1498.88 195.624L1504.54 189.968L1482.45 167.875L1476.8 173.531ZM1520.96 217.717L1543.05 239.811L1548.7 234.155L1526.62 212.062L1520.96 217.717ZM1565.13 261.904L1587.21 283.998L1592.87 278.342L1570.79 256.249L1565.13 261.904ZM1609.3 306.091L1631.38 328.184L1637.04 322.529L1614.95 300.435L1609.3 306.091ZM1653.46 350.278L1675.55 372.371L1681.2 366.716L1659.12 344.622L1653.46 350.278ZM1697.63 394.465L1708.67 405.511L1714.33 399.856L1703.29 388.809L1697.63 394.465ZM1425.17 158.899L1436.21 169.946L1441.87 164.29L1430.83 153.243L1425.17 158.899ZM1458.3 192.039L1480.38 214.132L1486.04 208.477L1463.95 186.383L1458.3 192.039ZM1502.46 236.226L1524.55 258.319L1530.2 252.664L1508.12 230.57L1502.46 236.226ZM1546.63 280.413L1568.71 302.506L1574.37 296.851L1552.29 274.757L1546.63 280.413ZM1590.8 324.599L1612.88 346.693L1618.54 341.037L1596.45 318.944L1590.8 324.599ZM1634.96 368.786L1657.05 390.88L1662.7 385.224L1640.62 363.131L1634.96 368.786ZM1679.13 412.973L1690.17 424.02L1695.83 418.364L1684.79 407.318L1679.13 412.973ZM1405.67 178.408L1416.71 189.455L1422.37 183.799L1411.33 172.752L1405.67 178.408ZM1438.8 211.548L1460.88 233.641L1466.54 227.986L1444.45 205.892L1438.8 211.548ZM1482.96 255.735L1505.05 277.828L1510.7 272.173L1488.62 250.079L1482.96 255.735ZM1527.13 299.922L1549.21 322.015L1554.87 316.359L1532.79 294.266L1527.13 299.922ZM1571.3 344.108L1593.38 366.202L1599.04 360.546L1576.95 338.453L1571.3 344.108ZM1615.46 388.295L1637.55 410.389L1643.2 404.733L1621.12 382.64L1615.46 388.295ZM1659.63 432.482L1670.67 443.529L1676.33 437.873L1665.29 426.826L1659.63 432.482ZM1387.17 196.916L1398.21 207.963L1403.87 202.307L1392.83 191.261L1387.17 196.916ZM1420.3 230.056L1442.38 252.15L1448.04 246.494L1425.95 224.401L1420.3 230.056ZM1464.46 274.243L1486.55 296.337L1492.2 290.681L1470.12 268.588L1464.46 274.243ZM1508.63 318.43L1530.71 340.523L1536.37 334.868L1514.29 312.774L1508.63 318.43ZM1552.8 362.617L1574.88 384.71L1580.54 379.055L1558.45 356.961L1552.8 362.617ZM1596.96 406.804L1619.05 428.897L1624.7 423.241L1602.62 401.148L1596.96 406.804ZM1641.13 450.99L1652.17 462.037L1657.83 456.382L1646.79 445.335L1641.13 450.99ZM1367.67 216.425L1378.71 227.472L1384.37 221.816L1373.33 210.77L1367.67 216.425ZM1400.8 249.565L1422.88 271.659L1428.54 266.003L1406.45 243.91L1400.8 249.565ZM1444.96 293.752L1467.05 315.846L1472.7 310.19L1450.62 288.097L1444.96 293.752ZM1489.13 337.939L1511.21 360.032L1516.87 354.377L1494.79 332.283L1489.13 337.939ZM1533.3 382.126L1555.38 404.219L1561.04 398.564L1538.95 376.47L1533.3 382.126ZM1577.46 426.313L1599.55 448.406L1605.2 442.75L1583.12 420.657L1577.46 426.313ZM1621.63 470.499L1632.67 481.546L1638.33 475.89L1627.29 464.844L1621.63 470.499ZM1349.17 234.934L1360.21 245.98L1365.87 240.325L1354.83 229.278L1349.17 234.934ZM1382.3 268.074L1404.38 290.167L1410.04 284.512L1387.95 262.418L1382.3 268.074ZM1426.46 312.261L1448.55 334.354L1454.2 328.698L1432.12 306.605L1426.46 312.261ZM1470.63 356.447L1492.71 378.541L1498.37 372.885L1476.29 350.792L1470.63 356.447ZM1514.8 400.634L1536.88 422.728L1542.54 417.072L1520.45 394.979L1514.8 400.634ZM1558.96 444.821L1581.05 466.914L1586.7 461.259L1564.62 439.165L1558.96 444.821ZM1603.13 489.008L1614.17 500.054L1619.83 494.399L1608.79 483.352L1603.13 489.008ZM1329.67 254.443L1340.71 265.489L1346.37 259.834L1335.33 248.787L1329.67 254.443ZM1362.8 287.583L1384.88 309.676L1390.54 304.02L1368.45 281.927L1362.8 287.583ZM1406.96 331.769L1429.05 353.863L1434.7 348.207L1412.62 326.114L1406.96 331.769ZM1451.13 375.956L1473.21 398.05L1478.87 392.394L1456.79 370.301L1451.13 375.956ZM1495.3 420.143L1517.38 442.236L1523.04 436.581L1500.95 414.487L1495.3 420.143ZM1539.46 464.33L1561.55 486.423L1567.2 480.768L1545.12 458.674L1539.46 464.33ZM1583.63 508.517L1594.67 519.563L1600.33 513.908L1589.29 502.861L1583.63 508.517ZM1311.67 272.451L1322.71 283.497L1328.37 277.842L1317.33 266.795L1311.67 272.451ZM1344.8 305.591L1366.88 327.684L1372.54 322.029L1350.45 299.935L1344.8 305.591ZM1388.96 349.778L1411.05 371.871L1416.7 366.215L1394.62 344.122L1388.96 349.778ZM1433.13 393.964L1455.21 416.058L1460.87 410.402L1438.79 388.309L1433.13 393.964ZM1477.3 438.151L1499.38 460.245L1505.04 454.589L1482.95 432.496L1477.3 438.151ZM1521.46 482.338L1543.55 504.431L1549.2 498.776L1527.12 476.683L1521.46 482.338ZM1565.63 526.525L1576.67 537.572L1582.33 531.916L1571.29 520.869L1565.63 526.525ZM1292.17 291.96L1303.21 303.006L1308.87 297.351L1297.83 286.304L1292.17 291.96ZM1325.3 325.1L1347.38 347.193L1353.04 341.538L1330.95 319.444L1325.3 325.1ZM1369.46 369.287L1391.55 391.38L1397.2 385.724L1375.12 363.631L1369.46 369.287ZM1413.63 413.473L1435.71 435.567L1441.37 429.911L1419.29 407.818L1413.63 413.473ZM1457.8 457.66L1479.88 479.754L1485.54 474.098L1463.45 452.005L1457.8 457.66ZM1501.96 501.847L1524.05 523.94L1529.7 518.285L1507.62 496.191L1501.96 501.847ZM1546.13 546.034L1557.17 557.08L1562.83 551.425L1551.79 540.378L1546.13 546.034ZM1273.67 310.468L1284.71 321.515L1290.37 315.859L1279.33 304.812L1273.67 310.468ZM1306.8 343.608L1328.88 365.702L1334.54 360.046L1312.45 337.953L1306.8 343.608ZM1350.96 387.795L1373.05 409.888L1378.7 404.233L1356.62 382.139L1350.96 387.795ZM1395.13 431.982L1417.21 454.075L1422.87 448.42L1400.79 426.326L1395.13 431.982ZM1439.3 476.169L1461.38 498.262L1467.04 492.606L1444.95 470.513L1439.3 476.169ZM1483.46 520.355L1505.55 542.449L1511.2 536.793L1489.12 514.7L1483.46 520.355ZM1527.63 564.542L1538.67 575.589L1544.33 569.933L1533.29 558.887L1527.63 564.542ZM1254.17 329.977L1265.21 341.024L1270.87 335.368L1259.83 324.321L1254.17 329.977ZM1287.3 363.117L1309.38 385.21L1315.04 379.555L1292.95 357.461L1287.3 363.117ZM1331.46 407.304L1353.55 429.397L1359.2 423.742L1337.12 401.648L1331.46 407.304ZM1375.63 451.491L1397.71 473.584L1403.37 467.929L1381.29 445.835L1375.63 451.491ZM1419.8 495.677L1441.88 517.771L1447.54 512.115L1425.45 490.022L1419.8 495.677ZM1463.96 539.864L1486.05 561.958L1491.7 556.302L1469.62 534.209L1463.96 539.864ZM1508.13 584.051L1519.17 595.098L1524.83 589.442L1513.79 578.396L1508.13 584.051ZM1236.17 347.985L1247.21 359.032L1252.87 353.376L1241.83 342.33L1236.17 347.985ZM1269.3 381.125L1291.38 403.219L1297.04 397.563L1274.95 375.47L1269.3 381.125ZM1313.46 425.312L1335.55 447.405L1341.2 441.75L1319.12 419.656L1313.46 425.312ZM1357.63 469.499L1379.71 491.592L1385.37 485.937L1363.29 463.843L1357.63 469.499ZM1401.8 513.686L1423.88 535.779L1429.54 530.124L1407.45 508.03L1401.8 513.686ZM1445.96 557.872L1468.05 579.966L1473.7 574.31L1451.62 552.217L1445.96 557.872ZM1490.13 602.059L1501.17 613.106L1506.83 607.45L1495.79 596.404L1490.13 602.059ZM1217.67 366.494L1228.71 377.54L1234.37 371.885L1223.33 360.838L1217.67 366.494ZM1250.8 399.634L1272.88 421.727L1278.54 416.072L1256.45 393.978L1250.8 399.634ZM1294.96 443.82L1317.05 465.914L1322.7 460.258L1300.62 438.165L1294.96 443.82ZM1339.13 488.007L1361.21 510.101L1366.87 504.445L1344.79 482.352L1339.13 488.007ZM1383.3 532.194L1405.38 554.288L1411.04 548.632L1388.95 526.539L1383.3 532.194ZM1427.46 576.381L1449.55 598.474L1455.2 592.819L1433.12 570.725L1427.46 576.381ZM1471.63 620.568L1482.67 631.614L1488.33 625.959L1477.29 614.912L1471.63 620.568ZM1198.17 386.003L1209.21 397.049L1214.87 391.394L1203.83 380.347L1198.17 386.003ZM1231.3 419.143L1253.38 441.236L1259.04 435.58L1236.95 413.487L1231.3 419.143ZM1275.46 463.329L1297.55 485.423L1303.2 479.767L1281.12 457.674L1275.46 463.329ZM1319.63 507.516L1341.71 529.61L1347.37 523.954L1325.29 501.861L1319.63 507.516ZM1363.8 551.703L1385.88 573.796L1391.54 568.141L1369.45 546.047L1363.8 551.703ZM1407.96 595.89L1430.05 617.983L1435.7 612.328L1413.62 590.234L1407.96 595.89ZM1452.13 640.077L1463.17 651.123L1468.83 645.468L1457.79 634.421L1452.13 640.077Z" fill="#106DB4"/>
<path d="M476 1146.52L211 881.402M456.5 1166.03L191.5 900.911M438 1184.54L173 919.419M418.5 1204.05L153.5 938.928M400 1222.56L135 957.436" stroke="#106DB4" stroke-width="8" stroke-miterlimit="1" stroke-linecap="round" stroke-dasharray="30 30"/>
<path opacity="0.8" d="M566 291.133L0 12.0055V0H1236L566 291.133Z" fill="#0854A1"/>
<path d="M305 742.338L134 814.371" stroke="#197DCB" stroke-width="3"/>
<path d="M1357 963.439L1262 1003.46" stroke="#197DCB" stroke-width="3"/>
<path d="M1521 814.371L1386 871.397" stroke="#197DCB" stroke-width="3"/>
<path d="M934 1001.46L834.5 901.911L688 1048.48" stroke="#1062B5" stroke-width="5"/>
<path d="M1695.5 105.048C1695.5 119.139 1684.08 130.56 1670 130.56C1655.92 130.56 1644.5 119.139 1644.5 105.048C1644.5 90.9571 1655.92 79.5355 1670 79.5355C1684.08 79.5355 1695.5 90.9571 1695.5 105.048Z" stroke="#0C69AE" stroke-width="3"/>
</g>
<defs>
<linearGradient id="paint0_linear" x1="1846" y1="443.702" x2="1905.5" y2="443.702" gradientUnits="userSpaceOnUse">
<stop stop-color="#0D64AB"/>
<stop offset="1" stop-color="#0D64AB" stop-opacity="0"/>
</linearGradient>
</defs>
</svg>
