<svg height="267pt" viewBox="0 0 267 267.20531" width="267pt" xmlns="http://www.w3.org/2000/svg"><path d="m262.019531 5.195312c-3.957031-3.984374-9.578125-5.839843-15.128906-4.996093-21.800781 3.753906-43.351563 8.828125-64.53125 15.199219-32.402344 9.316406-63.632813 34.96875-90.558594 74.199218l-34.359375-.128906c-1.324218 0-2.597656.523438-3.535156 1.460938l-49.347656 49.324218c-1.304688 1.308594-1.785156 3.226563-1.246094 4.992188.535156 1.765625 2.003906 3.09375 3.8125 3.449218l36.078125 7.113282c.320313.058594.644531.089844.972656.089844 2.574219.003906 4.730469-1.953126 4.980469-4.515626.25-2.566406-1.492188-4.898437-4.023438-5.390624l-26.878906-5.300782 41.199219-41.199218 25.71875.101562c-10.722656 16.84375-19.890625 34.628906-27.394531 53.128906-.699219 1.84375-.257813 3.921875 1.136718 5.316406l49.199219 49.199219 10.429688 52.871094c.355469 1.808594 1.683593 3.277344 3.449219 3.8125 1.765624.539063 3.683593.058594 4.988281-1.246094l49.289062-49.328125c.945313-.941406 1.472657-2.222656 1.464844-3.554687l-.042969-16.269531c-.011718-2.753907-2.246094-4.980469-5-4.980469s-4.992187 2.226562-5 4.980469l.054688 14.207031-41.199219 41.199219-8.136719-41.078126c19.457032-8.273437 38.109375-18.324218 55.714844-30.027343 41.199219-27.457031 68.078125-59.601563 77.671875-92.945313 6.421875-21.171875 11.496094-42.726562 15.203125-64.535156.863281-5.554688-.988281-11.1875-4.980469-15.148438zm-19.828125 76.917969c-19.660156 68.335938-110.621094 109.375-128.292968 116.773438l-19.25-19.246094 55.578124-55.582031c1.953126-1.953125 1.953126-5.117188 0-7.070313-1.953124-1.953125-5.121093-1.953125-7.074218 0l-55.574219 55.578125-19.246094-19.246094c7.378907-17.675781 48.367188-108.597656 116.773438-128.296874 20.753906-6.300782 41.882812-11.289063 63.261719-14.933594.578124-.085938 1.167968-.105469 1.75-.058594l-42.128907 42.125c-15.574219-11.855469-37.667969-9.613281-50.542969 5.128906-12.878906 14.738282-12.128906 36.9375 1.710938 50.777344s36.035156 14.585938 50.777344 1.710938c14.738281-12.875 16.980468-34.972657 5.128906-50.546876l42.121094-42.128906c.046875.585938.027344 1.175782-.058594 1.753906-3.644531 21.378907-8.632812 42.507813-14.933594 63.261719zm-37.472656-19.601562c9.199219 9.179687 10.632812 23.578125 3.421875 34.390625s-21.058594 15.023437-33.066406 10.058594c-12.011719-4.964844-18.839844-17.726563-16.308594-30.472657 2.53125-12.75 13.714844-21.929687 26.710937-21.933593 7.214844-.003907 14.132813 2.851562 19.242188 7.941406zm0 0"/><path d="m69.289062 197.921875c-1.953124-1.953125-5.117187-1.953125-7.070312 0l-48.046875 48.054687c-1.953125 1.953126-1.953125 5.117188 0 7.070313 1.949219 1.953125 5.117187 1.953125 7.070313 0l48.046874-48.058594c1.949219-1.953125 1.949219-5.113281 0-7.066406zm0 0"/><path d="m88.691406 210.457031-48.058594 48.054688c-1.359374 1.238281-1.925781 3.125-1.480468 4.910156.449218 1.785156 1.839844 3.179687 3.625 3.628906 1.78125.453125 3.667968-.109375 4.914062-1.46875l48.066406-48.058593c1.953126-1.953126 1.953126-5.117188 0-7.070313-1.953124-1.953125-5.117187-1.953125-7.070312 0zm0 0"/><path d="m56.757812 171.453125c-1.953124-1.953125-5.117187-1.953125-7.070312 0l-48.058594 48.070313c-1.300781 1.253906-1.820312 3.113281-1.363281 4.863281.457031 1.746093 1.820313 3.113281 3.570313 3.570312 1.746093.457031 3.605468-.0625 4.863281-1.363281l48.058593-48.070312c1.953126-1.953126 1.953126-5.121094 0-7.070313zm0 0"/></svg>