<?xml version="1.0" encoding="utf-8"?>
<!-- Generator: Adobe Illustrator 22.1.0, SVG Export Plug-In . SVG Version: 6.00 Build 0)  -->
<svg version="1.1" xmlns="http://www.w3.org/2000/svg" xmlns:xlink="http://www.w3.org/1999/xlink" x="0px" y="0px"
	 viewBox="0 0 850.4 510.2" style="enable-background:new 0 0 850.4 510.2;" xml:space="preserve">
<style type="text/css">
	.st0{fill:#FFFFFF;}
</style>
<g id="Слой_1">
</g>
<g id="Слой_2">
	<g>
		<path class="st0" d="M851,511.7c-283.5,0-567,0-850.6,0c0-170.2,0-340.5,0-510.7C284,1,567.5,1,851,1
			C851,171.2,851,341.4,851,511.7z M47.1,210.5c56,56,111.7,111.7,167.2,167.2c55.7-55.7,111.5-111.5,167.3-167.3
			c-0.4-0.4-0.9-1-1.5-1.5c-27.8-27.8-55.7-55.7-83.5-83.5c-1.1-1.1-2.2-1.6-3.8-1.6c-52.4,0-104.8,0-157.2,0
			c-1.5,0-2.5,0.4-3.6,1.4c-27.9,28-55.9,55.9-83.8,83.9C47.9,209.6,47.4,210.2,47.1,210.5z M616.7,144.1c0.7,3.1-0.1,5.6-2.3,7.6
			c-2.1,2-4.1,4-6.2,6c-5.6,5.6-11.2,11.2-16.8,16.8c-1,1-1.7,2.1-1.7,3.6c0,7.9,0,15.8,0.1,23.8c0,0.6,0.2,1.2,0.3,2.1
			c1-0.9,1.7-1.5,2.3-2.2c14.2-14.1,28.3-28.2,42.5-42.3c1.3-1.3,2-2.8,2-4.7c-0.1-9.5,0-19-0.1-28.6c0-0.8-0.1-1.5-0.2-2.2
			c-24.3,0-48.4,0-72.7,0c0,1.1,0,2,0,3c0,29.7,0,59.4,0,89c0,1.8,0.5,3.2,1.8,4.5c6.2,6.2,12.4,12.4,18.6,18.7
			c1.1,1.2,2.4,1.7,4.1,1.7c16.1,0,32.2-0.1,48.2,0c2.2,0,3.8-0.7,5.3-2.2c9-9.1,18.1-18.1,27.1-27.2c10.9-10.9,21.7-21.7,32.6-32.6
			c1.3-1.3,2.6-1.9,4.4-1.9c3.8,0.1,7.5,0,11.3,0c0.8,0,1.7,0.1,2.7,0.2c0,11.1,0,21.8,0,32.9c1.1,0,2.1,0,3,0
			c15.5,0,31,0.1,46.6-0.1c2.8,0,4.8,0.9,6.7,2.9c4.7,4.9,9.6,9.7,14.4,14.5c0.6,0.6,1.1,1.3,2.1,1.4c0.4-5.8,0.2-36.8-0.3-38.9
			c-17.4,0-34.9,0-52.4,0c0-4.4,0-8.5,0-12.9c1,0,1.8,0,2.7,0c9.3,0,18.6,0,27.8,0c1.7,0,3.1-0.3,4.3-1.6
			c5.5-5.6,11.1-11.1,16.6-16.7c0.4-0.4,0.7-0.9,1.2-1.7c-1.1,0-1.8,0-2.6,0c-12.8,0-25.6-0.1-38.4-0.1c-3,0-5.9,0-8.9,0
			c-0.9,0-1.8-0.1-2.7-0.2c0-4.5,0-8.6,0-12.9c1,0,1.9,0,2.7,0c9.2,0,18.4,0,27.6,0c1.9,0,3.3-0.5,4.7-1.9
			c5-5.1,10.2-10.2,15.2-15.3c0.7-0.7,1.3-1.5,2-2.4c-2.9-0.6-70.7-0.5-72.7,0.1c0,10.7,0,21.4,0,32.3c-0.8,0.1-1.3,0.1-1.9,0.1
			c-5.4,0-10.7,0-16.1,0c-7,0-6.1-0.7-11.5,4.7c-8.5,8.5-16.9,17-25.4,25.5c-0.5,0.5-1.1,0.9-2.1,1.7c0-11.3,0-22,0-32.7
			c0-10.7,0-21.4,0-32c-3.9-0.8-17.6-0.6-19.9,0.4c0,0.8,0,1.7,0,2.5c0,11,0,22.1,0,33.1c0,15.5,0,31,0,46.6c0,1.4-0.2,2.6-1.3,3.7
			c-3,3-6,6-9,9c-0.9,0.9-1.9,1.3-3.2,1.3c-11.1,0-22.2,0-33.4,0c-1.3,0-2.3-0.4-3.2-1.3c-2.2-2.3-4.5-4.6-6.8-6.8
			c-1.8-1.7-2.5-3.8-2.5-6.3c0-20.2,0-40.3,0-60.5c0-0.6,0.1-1.2,0.2-1.8C594.9,144.1,605.7,144.1,616.7,144.1z M556.6,211
			c0.8-6.7,0.6-84.3-0.3-87.2c-16.4,16.3-32.6,32.6-49,48.9c-8.3-8.3-16.5-16.4-24.7-24.6c-8.2-8.1-16.3-16.4-24.5-24.4
			c-0.2,0.1-0.3,0.2-0.5,0.3c0,28.4,0,56.8,0,85.2c2.4,0.6,18.1,0.5,19.9-0.1c0-6.1,0-12.3,0-18.4c0-6.2-0.2-12.4,0.1-18.6
			c0.4,0.1,0.6,0.1,0.7,0.1c15.6,15.5,31.2,31,46.8,46.5c0.4,0.4,0.9,0.9,1.3,1.4c0,0.1,0.1,0.2,0.1,0.2c0,0.1-0.1,0.1-0.3,0.5
			c-31.1,0-62.3,0-94,0c0.8,1,1.3,1.6,1.8,2.1c5.3,5.3,10.6,10.6,15.9,16c1.4,1.4,3,2,4.9,2c6.6-0.1,13.3-0.1,19.9-0.1
			c1.2,0,2.3,0.1,3.5,0.2c0,0.7,0.1,1.2,0.1,1.7c0,6.2,0.3,12.3-0.1,18.5c-0.3,4.4,0.8,7.6,4.3,10.5c1.9,1.6,3.8,2.4,6.2,2.4
			c13.3-0.1,26.6,0,39.8-0.1c0.9,0,1.7,0,2.7,0c0,4.5,0,8.7,0,13.2c-2.3,0-4.4,0-6.6,0c-2.2,0-4.3,0-6.5,0c-2.1,0-4.2,0-6.2,0
			c-2.2,0-4.3,0-6.5,0c-2.1,0-4.2-0.1-6.7,0.1c0.8,0.9,1.2,1.5,1.7,2c5.4,5.4,10.9,10.9,16.3,16.3c1.1,1.1,2.3,1.5,3.9,1.5
			c9.4,0,18.9,0,28.3,0c0.8,0,1.5-0.1,2.3-0.2c0-17.7,0-35.2,0-52.9c-6,0-11.8,0-17.6,0c-5.8,0-11.7,0-17.5,0
			c-5.8,0-11.6,0.1-17.4-0.1c0-4.5,0-8.6,0-12.9c0.9-0.1,1.6-0.2,2.4-0.2c14.6,0,29.1,0,43.7,0c1.8,0,3.2,0.5,4.4,1.9
			c2.8,3,5.6,5.9,8.6,8.7c2.2,2,3.2,4.4,3.2,7.4c-0.1,15.1-0.1,30.2-0.1,45.4c0,0.9,0,1.9,0,3c4,0,7.7,0.1,11.5-0.1
			c0.9,0,2-0.7,2.7-1.4c5.6-5.6,11.2-11.2,16.8-16.8c0.4-0.5,0.8-1,1.5-2c-4.4,0-8.2,0-12.1,0c-0.4-4.4-0.5-8.5,0.2-12.8
			c1,0,1.7,0,2.5,0c6.6,0,13.1,0,19.7,0.1c2.1,0,3.7-0.6,5.1-2.1c5.3-5.4,10.6-10.7,15.9-16c0.5-0.5,0.9-1,1.6-2c-1.3,0-2,0-2.8,0
			c-10.6,0-21.3-0.1-31.9,0c-2.2,0-4-0.7-5.5-2.3c-1.6-1.8-3.3-3.4-5-5.1c-19-19-38-38-57-57c-0.8-0.8-1.5-1.6-2.2-2.5
			c5-5,9.8-9.9,15-15.1c0.1,1.4,0.2,2.1,0.2,2.9c0,4.5,0,9-0.1,13.4c-0.1,2.2,0.6,3.9,2.3,5.5c5.1,4.9,10.1,10,15.2,15
			C555,209.6,555.6,210.1,556.6,211z M419.7,254c0-4.6,0-8.7,0-13.1c1.9,0,3.7,0,5.4,0c1.7,0,3.4,0,5,0c1.8,0,3.5,0.1,5.3,0
			c1.7-0.1,3.4,0.4,5.2-0.3c-0.3-0.4-0.4-0.7-0.6-0.9c-5.9-5.9-11.7-11.8-17.6-17.7c-0.9-0.9-2-1.2-3.3-1.1c-5.8,0-11.5,0-17.3,0
			c-0.8,0-1.5,0.1-2.6,0.2c0,3.4,0,6.6,0,9.8c0.1,13.2,0.1,26.4,0.3,39.6c0,1.2,0.2,2.3,0.3,3.6c1.1,0,2,0,2.8,0
			c11.4,0,22.9,0,34.3,0c1.4,0,2.6,0.2,3.7,1.3c3.3,3.4,6.8,6.8,10.1,10.2c0.3,0.3,0.5,0.8,0.9,1.3c-19.5,0-38.8,0-58.3,0
			c0-22.1,0-44,0-66.1c-2.6,0-4.9,0.2-7.2,0c-3-0.3-5.1,0.9-7.2,3c-11,11.2-22.1,22.2-33.2,33.3c-17.8,17.8-35.5,35.5-53.3,53.2
			c-1.5,1.5-2.3,3.1-2.2,5.3c0.1,7.1,0,14.2,0,21.4c0,0.9,0.1,1.8,0.2,3.4c1.1-1.1,1.9-1.8,2.6-2.5C319,311.9,345,286,371,260
			c0.4-0.4,0.8-0.8,1.2-1.2c0.3-0.3,0.8-0.4,1.5-0.8c0,9.9,0.4,19.4-0.1,29.1c-0.7,0.1-1.3,0.2-1.8,0.2c-4.8,0-9.6,0-14.4,0
			c-1.8,0-3.3,0.3-4.6,1.6c-5.5,5.5-10.9,11-16.4,16.5c-0.4,0.4-0.7,1-1.1,1.5c3.9,0.6,169.7,0.3,171.5-0.3c-0.4-0.5-0.8-1-1.2-1.5
			c-16.4-16.4-32.8-32.8-49.2-49.3c-1.3-1.3-2.8-1.9-4.7-1.9c-9.8,0-19.5,0-29.3,0C421.6,254,420.7,254,419.7,254z M740.3,254
			c0-4.6,0-8.8,0-13.2c3,0,5.9,0,8.7,0c2.9,0,5.8,0,8.6,0s5.8,0,8.6,0c3,0,5.9,0,8.9,0c2.9,0,5.8,0,8.6,0c2.8,0,5.7,0.1,9-0.1
			c-0.9-1-1.4-1.7-2.1-2.3c-5-5.1-10.1-10-15-15.2c-1.7-1.8-3.5-2.4-5.9-2.4c-26.2,0.1-52.5,0-78.7,0c-6,0-12,0-18,0
			c-1.5,0-2.8,0.4-3.9,1.5c-5.5,5.6-11.1,11.1-16.6,16.6c-0.5,0.5-0.9,1.2-1.6,2.2c5.7,0,10.9,0,16.2,0c0.1,1.3,0.2,2.4,0.2,3.5
			c0,13.1,0,26.2,0,39.4c0,2.4-0.7,4.2-2.5,5.9c-5.1,4.9-10.1,10-15.1,15.1c-0.6,0.6-1.5,1.2-1.6,2.3c13.1-0.1,26,0.2,39.2-0.1
			c0-11.2,0-22.1,0-33.1c0-10.9-0.2-21.9,0.1-32.9c11,0,21.7,0,32.5,0c0,2.8,0,5.5,0,8.2c0,2.7,0,5.4,0,8.2c0,2.8,0,5.6,0,8.4
			c0,2.7-0.2,5.4,0.2,8.2c17.7,0,35.1,0,52.5,0c0,4.4,0,8.6,0,13c-0.9,0-1.7,0-2.5,0c-11.8,0-23.7,0.1-35.5,0.1c-4.8,0-9.6,0-14.4,0
			c-1.8,0-3.2,0.5-4.5,1.8c-5.4,5.5-10.8,10.9-16.2,16.3c-0.4,0.4-0.6,0.8-0.9,1.3c4.2,0.9,90.1,0.7,94.1-0.1
			c0.5-3,0.3-50.7-0.2-52.6C775.3,254,758,254,740.3,254z M373.8,190.2c-0.1,0.2-0.2,0.4-0.3,0.5c0.5,0.6,1,1.2,1.6,1.7
			c5.3,5.3,10.7,10.6,15.9,16c1.3,1.3,2.7,1.8,4.5,1.8c9.1-0.1,18.2,0,27.3,0c0.9,0,1.9-0.1,2.7-0.2c0.6-2.8,0.4-50.8-0.2-53
			c-17.3,0-34.7,0-52.2,0c0-4.4,0-8.6,0-13.1c17.5,0,34.9,0,52.9,0c-1.1-1.2-1.8-2.1-2.6-2.9c-5-5-10-9.9-14.9-15
			c-1.6-1.6-3.2-2.3-5.5-2.3c-15.8,0.1-31.7,0.1-47.5,0.1c-0.8,0-1.5,0-2.5,0c0,1.2,0,2.1,0,3c0,7,0,13.9,0,20.9
			c0,6.4-0.1,12.8-0.2,19.2c0,2.5,0.6,4.6,2.6,6.2c0.6,0.5,1.3,1,1.8,1.6c1.6,2,3.7,2.5,6.2,2.5c13.1-0.1,26.2,0,39.3,0
			c0.9,0,1.9,0,3,0c0,4.5,0.1,8.7,0,13.1C394.9,190.2,384.3,190.2,373.8,190.2z M655.4,287.1c-1.1-0.1-1.7-0.2-2.2-0.2
			c-15.5,0-31,0-46.5,0c-1.7,0-2.9,0.6-4,1.8c-5.3,5.3-10.6,10.6-15.9,15.9c-0.6,0.6-1.1,1.3-1.9,2.2c0.8,0.1,1.2,0.2,1.5,0.2
			c15.7,0,31.3,0,47,0c1.7,0,3-0.7,4.2-1.9c5.2-5.3,10.5-10.5,15.7-15.8C653.9,288.8,654.5,288.1,655.4,287.1z M452,209.9
			c0-1,0.1-1.8,0.1-2.6c0-11.6,0-23.2,0.1-34.8c0-2-0.6-3.5-2-4.9c-4.9-4.7-9.7-9.6-14.4-14.4c-1-1-1.9-2.1-2.9-3.2
			c-1.1,3-1.1,55.6,0,59.8C439,209.9,445.3,209.9,452,209.9z M418.2,123.9c-0.1,0.1-0.1,0.3-0.2,0.4c11.2,11,22.2,22,33.6,33.1
			c0.6-3.6,0.4-31.9-0.1-33.6C440.4,123.9,429.3,123.9,418.2,123.9z"/>
		<path d="M47.1,210.5c0.3-0.4,0.8-0.9,1.3-1.4c27.9-27.9,55.9-55.9,83.8-83.9c1.1-1.1,2.1-1.4,3.6-1.4c52.4,0,104.8,0,157.2,0
			c1.6,0,2.7,0.5,3.8,1.6c27.8,27.9,55.6,55.7,83.5,83.5c0.6,0.6,1.1,1.1,1.5,1.5C325.8,266.3,270,322.1,214.3,377.8
			C158.8,322.3,103.1,266.5,47.1,210.5z M351.5,210.5c-0.4-0.5-1-1-1.5-1.6c-20.6-20.6-41.3-41.3-61.9-62c-1.3-1.3-2.6-1.8-4.4-1.8
			c-20.9,0-41.8,0-62.6,0c-25.4,0-50.7,0-76.1,0c-1.5,0-2.7,0.2-3.8,1.4c-20.9,21-41.8,41.9-62.8,62.8c-0.4,0.4-0.8,0.9-1,1.2
			c45.8,45.8,91.5,91.5,137,137.1C260,302.1,305.6,256.4,351.5,210.5z"/>
		<path d="M616.7,144.1c-11,0-21.7,0-32.7,0c-0.1,0.6-0.2,1.2-0.2,1.8c0,20.2,0,40.3,0,60.5c0,2.4,0.7,4.5,2.5,6.3
			c2.3,2.2,4.5,4.5,6.8,6.8c0.9,0.9,1.9,1.3,3.2,1.3c11.1,0,22.2,0,33.4,0c1.3,0,2.3-0.4,3.2-1.3c3-3,6-6,9-9
			c1.1-1.1,1.3-2.3,1.3-3.7c0-15.5,0-31,0-46.6c0-11,0-22.1,0-33.1c0-0.9,0-1.7,0-2.5c2.3-1,16-1.2,19.9-0.4c0,10.6,0,21.3,0,32
			c0,10.7,0,21.4,0,32.7c1-0.8,1.6-1.2,2.1-1.7c8.5-8.5,17-17,25.4-25.5c5.4-5.4,4.5-4.7,11.5-4.7c5.4,0,10.7,0,16.1,0
			c0.5,0,1.1-0.1,1.9-0.1c0-10.9,0-21.6,0-32.3c2-0.6,69.8-0.6,72.7-0.1c-0.8,0.9-1.4,1.7-2,2.4c-5.1,5.1-10.2,10.2-15.2,15.3
			c-1.3,1.4-2.8,1.9-4.7,1.9c-9.2,0-18.4,0-27.6,0c-0.9,0-1.7,0-2.7,0c0,4.3,0,8.5,0,12.9c0.8,0.1,1.8,0.2,2.7,0.2c3,0,5.9,0,8.9,0
			c12.8,0,25.6,0,38.4,0.1c0.7,0,1.4,0,2.6,0c-0.5,0.8-0.8,1.3-1.2,1.7c-5.5,5.6-11.1,11.1-16.6,16.7c-1.2,1.3-2.7,1.6-4.3,1.6
			c-9.3,0-18.6,0-27.8,0c-0.9,0-1.7,0-2.7,0c0,4.4,0,8.5,0,12.9c17.5,0,35,0,52.4,0c0.6,2,0.8,33,0.3,38.9c-1,0-1.5-0.8-2.1-1.4
			c-4.8-4.8-9.7-9.6-14.4-14.5c-1.9-2-3.9-2.9-6.7-2.9c-15.5,0.1-31,0.1-46.6,0.1c-0.9,0-1.9,0-3,0c0-11,0-21.8,0-32.9
			c-1-0.1-1.9-0.2-2.7-0.2c-3.8,0-7.5,0.1-11.3,0c-1.8-0.1-3.2,0.6-4.4,1.9c-10.8,10.9-21.7,21.7-32.6,32.6
			c-9,9.1-18.1,18.1-27.1,27.2c-1.5,1.5-3.1,2.2-5.3,2.2c-16.1-0.1-32.2,0-48.2,0c-1.6,0-2.9-0.5-4.1-1.7
			c-6.2-6.2-12.4-12.5-18.6-18.7c-1.3-1.3-1.8-2.7-1.8-4.5c0-29.7,0-59.4,0-89c0-0.9,0-1.9,0-3c24.3,0,48.3,0,72.7,0
			c0.1,0.7,0.2,1.5,0.2,2.2c0,9.5,0,19,0.1,28.6c0,1.9-0.6,3.4-2,4.7c-14.2,14.1-28.4,28.2-42.5,42.3c-0.7,0.7-1.4,1.3-2.3,2.2
			c-0.2-1-0.3-1.6-0.3-2.1c0-7.9,0-15.8-0.1-23.8c0-1.5,0.7-2.6,1.7-3.6c5.6-5.6,11.2-11.2,16.8-16.8c2-2,4.1-4.1,6.2-6
			C616.6,149.7,617.3,147.3,616.7,144.1z"/>
		<path d="M556.6,211c-0.9-0.8-1.6-1.4-2.2-2c-5-5-10-10.1-15.2-15c-1.6-1.6-2.3-3.3-2.3-5.5c0.1-4.5,0.1-9,0.1-13.4
			c0-0.8-0.1-1.5-0.2-2.9c-5.2,5.2-10,10-15,15.1c0.8,0.9,1.5,1.7,2.2,2.5c19,19,38,38,57,57c1.7,1.7,3.4,3.4,5,5.1
			c1.5,1.7,3.3,2.3,5.5,2.3c10.6-0.1,21.3,0,31.9,0c0.8,0,1.5,0,2.8,0c-0.8,0.9-1.2,1.5-1.6,2c-5.3,5.3-10.6,10.6-15.9,16
			c-1.5,1.5-3.1,2.1-5.1,2.1c-6.6-0.1-13.1-0.1-19.7-0.1c-0.8,0-1.6,0-2.5,0c-0.6,4.3-0.6,8.4-0.2,12.8c3.9,0,7.7,0,12.1,0
			c-0.7,0.9-1,1.5-1.5,2c-5.6,5.6-11.2,11.2-16.8,16.8c-0.7,0.7-1.8,1.4-2.7,1.4c-3.7,0.2-7.5,0.1-11.5,0.1c0-1.2,0-2.1,0-3
			c0-15.1,0-30.2,0.1-45.4c0-3-0.9-5.3-3.2-7.4c-3-2.8-5.8-5.7-8.6-8.7c-1.3-1.3-2.6-1.9-4.4-1.9c-14.6,0.1-29.1,0-43.7,0
			c-0.8,0-1.6,0.1-2.4,0.2c0,4.3,0,8.5,0,12.9c5.8,0.2,11.6,0.1,17.4,0.1c5.8,0,11.7,0,17.5,0c5.8,0,11.6,0,17.6,0
			c0,17.7,0,35.2,0,52.9c-0.8,0.1-1.5,0.2-2.3,0.2c-9.4,0-18.9,0-28.3,0c-1.5,0-2.8-0.4-3.9-1.5c-5.4-5.5-10.9-10.9-16.3-16.3
			c-0.5-0.5-0.9-1.1-1.7-2c2.5-0.2,4.6-0.1,6.7-0.1c2.2,0,4.3,0,6.5,0c2.1,0,4.2,0,6.2,0c2.2,0,4.3,0,6.5,0c2.1,0,4.3,0,6.6,0
			c0-4.4,0-8.6,0-13.2c-1,0-1.8,0-2.7,0c-13.3,0-26.6,0-39.8,0.1c-2.5,0-4.3-0.8-6.2-2.4c-3.4-2.8-4.5-6.1-4.3-10.5
			c0.4-6.1,0.1-12.3,0.1-18.5c0-0.5-0.1-0.9-0.1-1.7c-1.2-0.1-2.4-0.2-3.5-0.2c-6.6,0-13.3,0-19.9,0.1c-2,0-3.6-0.6-4.9-2
			c-5.3-5.3-10.6-10.7-15.9-16c-0.5-0.5-1-1.2-1.8-2.1c31.7,0,62.9,0,94,0c0.2-0.4,0.2-0.4,0.3-0.5c0-0.1,0-0.2-0.1-0.2
			c-0.4-0.5-0.8-1-1.3-1.4c-15.6-15.5-31.2-31-46.8-46.5c-0.1-0.1-0.3-0.1-0.7-0.1c-0.4,6.2-0.1,12.4-0.1,18.6c0,6.2,0,12.3,0,18.4
			c-1.8,0.6-17.5,0.7-19.9,0.1c0-28.4,0-56.8,0-85.2c0.2-0.1,0.3-0.2,0.5-0.3c8.3,8,16.4,16.2,24.5,24.4
			c8.2,8.1,16.3,16.2,24.7,24.6c16.4-16.4,32.6-32.6,49-48.9C557.1,126.7,557.4,204.3,556.6,211z"/>
		<path d="M419.7,254c1.1,0,1.9,0,2.8,0c9.8,0,19.5,0,29.3,0c1.9,0,3.4,0.6,4.7,1.9c16.4,16.4,32.8,32.8,49.2,49.3
			c0.4,0.4,0.8,0.9,1.2,1.5c-1.9,0.6-167.6,0.9-171.5,0.3c0.4-0.6,0.7-1.1,1.1-1.5c5.5-5.5,10.9-11,16.4-16.5
			c1.3-1.3,2.8-1.6,4.6-1.6c4.8,0.1,9.6,0,14.4,0c0.5,0,1.1-0.1,1.8-0.2c0.4-9.6,0.1-19.2,0.1-29.1c-0.7,0.4-1.1,0.5-1.5,0.8
			c-0.4,0.3-0.8,0.8-1.2,1.2c-26,26-51.9,51.9-77.9,77.9c-0.7,0.7-1.4,1.4-2.6,2.5c-0.1-1.6-0.2-2.5-0.2-3.4c0-7.1,0.1-14.2,0-21.4
			c0-2.2,0.7-3.8,2.2-5.3c17.8-17.7,35.6-35.5,53.3-53.2c11.1-11.1,22.2-22.2,33.2-33.3c2.1-2.1,4.1-3.3,7.2-3c2.3,0.2,4.6,0,7.2,0
			c0,22.1,0,44.1,0,66.1c19.5,0,38.8,0,58.3,0c-0.3-0.5-0.5-1-0.9-1.3c-3.4-3.4-6.8-6.8-10.1-10.2c-1.1-1.1-2.3-1.3-3.7-1.3
			c-11.4,0-22.9,0-34.3,0c-0.9,0-1.7,0-2.8,0c-0.1-1.3-0.3-2.4-0.3-3.6c-0.1-13.2-0.2-26.4-0.3-39.6c0-3.2,0-6.4,0-9.8
			c1.1-0.1,1.8-0.2,2.6-0.2c5.8,0,11.5,0,17.3,0c1.3,0,2.4,0.2,3.3,1.1c5.9,5.9,11.7,11.8,17.6,17.7c0.2,0.2,0.3,0.5,0.6,0.9
			c-1.8,0.7-3.5,0.2-5.2,0.3c-1.8,0.1-3.5,0-5.3,0c-1.7,0-3.4,0-5,0c-1.7,0-3.5,0-5.4,0C419.7,245.3,419.7,249.5,419.7,254z"/>
		<path d="M740.3,254c17.6,0,35,0,52.2,0c0.5,1.9,0.7,49.5,0.2,52.6c-4,0.8-89.9,0.9-94.1,0.1c0.3-0.5,0.6-0.9,0.9-1.3
			c5.4-5.5,10.8-10.9,16.2-16.3c1.3-1.3,2.7-1.8,4.5-1.8c4.8,0,9.6,0,14.4,0c11.8,0,23.7,0,35.5-0.1c0.8,0,1.6,0,2.5,0
			c0-4.4,0-8.6,0-13c-17.5,0-34.9,0-52.5,0c-0.3-2.9-0.1-5.6-0.2-8.2c0-2.8,0-5.6,0-8.4c0-2.7,0-5.4,0-8.2c0-2.7,0-5.4,0-8.2
			c-10.9,0-21.6,0-32.5,0c-0.2,11-0.1,21.9-0.1,32.9c0,10.9,0,21.9,0,33.1c-13.2,0.4-26.1,0-39.2,0.1c0.1-1.2,1-1.7,1.6-2.3
			c5-5.1,10-10.1,15.1-15.1c1.8-1.7,2.5-3.5,2.5-5.9c-0.1-13.1,0-26.2,0-39.4c0-1.1-0.1-2.2-0.2-3.5c-5.3,0-10.5,0-16.2,0
			c0.7-1,1.1-1.7,1.6-2.2c5.5-5.6,11.1-11.1,16.6-16.6c1.1-1.1,2.4-1.5,3.9-1.5c6,0,12,0,18,0c26.2,0,52.5,0,78.7,0
			c2.4,0,4.2,0.6,5.9,2.4c4.9,5.1,10,10.1,15,15.2c0.6,0.6,1.1,1.3,2.1,2.3c-3.3,0.3-6.2,0.1-9,0.1c-2.9,0-5.8,0-8.6,0
			c-3,0-5.9,0-8.9,0c-2.9,0-5.8,0-8.6,0s-5.8,0-8.6,0c-2.9,0-5.7,0-8.7,0C740.3,245.3,740.3,249.4,740.3,254z"/>
		<path d="M373.8,190.2c10.5,0,21,0,31.9,0c0.1-4.4,0.1-8.6,0-13.1c-1.1,0-2.1,0-3,0c-13.1,0-26.2,0-39.3,0c-2.5,0-4.6-0.5-6.2-2.5
			c-0.5-0.6-1.1-1.1-1.8-1.6c-2-1.6-2.6-3.7-2.6-6.2c0.1-6.4,0.2-12.8,0.2-19.2c0-7,0-13.9,0-20.9c0-0.9,0-1.7,0-3
			c0.9,0,1.7,0,2.5,0c15.8,0,31.7,0,47.5-0.1c2.3,0,3.9,0.7,5.5,2.3c4.9,5.1,9.9,10,14.9,15c0.8,0.8,1.4,1.6,2.6,2.9
			c-18,0-35.3,0-52.9,0c0,4.4,0,8.6,0,13.1c17.5,0,34.9,0,52.2,0c0.7,2.2,0.9,50.3,0.2,53c-0.9,0.1-1.8,0.2-2.7,0.2
			c-9.1,0-18.2,0-27.3,0c-1.8,0-3.2-0.5-4.5-1.8c-5.3-5.4-10.6-10.6-15.9-16c-0.6-0.6-1.1-1.2-1.6-1.7
			C373.7,190.5,373.7,190.3,373.8,190.2z"/>
		<path d="M655.4,287.1c-0.9,1-1.5,1.7-2.1,2.3c-5.2,5.3-10.5,10.5-15.7,15.8c-1.2,1.2-2.5,1.9-4.2,1.9c-15.7,0-31.3,0-47,0
			c-0.4,0-0.7-0.1-1.5-0.2c0.8-0.9,1.3-1.6,1.9-2.2c5.3-5.3,10.6-10.6,15.9-15.9c1.1-1.1,2.3-1.8,4-1.8c15.5,0,31,0,46.5,0
			C653.7,287,654.2,287.1,655.4,287.1z"/>
		<path d="M452,209.9c-6.6,0-12.9,0-19.2,0c-1.1-4.2-1.1-56.7,0-59.8c1,1.1,1.9,2.2,2.9,3.2c4.8,4.8,9.6,9.6,14.4,14.4
			c1.4,1.4,2,2.9,2,4.9c-0.1,11.6-0.1,23.2-0.1,34.8C452.1,208.1,452,208.9,452,209.9z"/>
		<path d="M418.2,123.9c11.1,0,22.2,0,33.2,0c0.6,1.7,0.7,30,0.1,33.6c-11.4-11.1-22.4-22.2-33.6-33.1
			C418.1,124.2,418.1,124,418.2,123.9z"/>
		<path class="st0" d="M351.5,210.5c-45.9,45.9-91.6,91.6-137.1,137.1c-45.5-45.5-91.2-91.2-137-137.1c0.2-0.2,0.6-0.8,1-1.2
			c20.9-20.9,41.9-41.8,62.8-62.8c1.2-1.2,2.4-1.4,3.8-1.4c25.4,0,50.7,0,76.1,0c20.9,0,41.8,0,62.6,0c1.8,0,3.1,0.5,4.4,1.8
			c20.6,20.7,41.3,41.3,61.9,62C350.6,209.5,351.1,210.1,351.5,210.5z M230.9,207.3c-5.5-25.4-30.6-43.2-57.5-38.8
			c-22.9,3.8-40.6,23.5-41.9,46.3c-1.4,24.7,14.7,45.8,37.2,51.8c11.4,3,22.5,2.2,33.3-2.7c15.3-6.9,24.6-18.9,28.8-34.9
			c13.9,0,27.7,0,41.7,0c0,5.4,0,10.7,0,16c4.4,0.5,19.9,0.3,21.7-0.3c0-5.2,0-10.4,0-15.9c5.5,0,10.9,0,16.1,0
			c0.5-4.2,0.3-19.8-0.2-21.6C283.8,207.3,257.4,207.3,230.9,207.3z"/>
		<path d="M230.9,207.3c26.5,0,52.9,0,79.2,0c0.5,1.8,0.7,17.4,0.2,21.6c-5.3,0-10.6,0-16.1,0c0,5.5,0,10.8,0,15.9
			c-1.9,0.6-17.4,0.8-21.7,0.3c0-5.3,0-10.6,0-16c-14.1,0-27.8,0-41.7,0c-4.2,16-13.5,28-28.8,34.9c-10.7,4.9-21.9,5.7-33.3,2.7
			c-22.5-6-38.6-27.1-37.2-51.8c1.3-22.9,19-42.6,41.9-46.3C200.3,164.2,225.5,181.9,230.9,207.3z M210.2,218.3
			c0.1-15.6-12.7-28.5-28.2-28.6c-15.8-0.1-28.7,12.6-28.8,28.3c-0.1,15.7,12.7,28.7,28.4,28.7C197.2,246.7,210.1,234,210.2,218.3z"
			/>
		<path class="st0" d="M210.2,218.3c-0.1,15.7-13,28.5-28.7,28.4c-15.7,0-28.5-13-28.4-28.7c0.1-15.7,13-28.4,28.8-28.3
			C197.5,189.7,210.3,202.7,210.2,218.3z"/>
	</g>
</g>
</svg>
