<?xml version="1.0" encoding="utf-8"?>
<svg id="master-artboard" viewBox="0 0 500 480" version="1.1" xmlns="http://www.w3.org/2000/svg" x="0px" y="0px" style="enable-background:new 0 0 2800 1800;" width="500px" height="480px"><rect id="ee-background" x="0" y="0" width="500" height="480" style="fill: white; fill-opacity: 0; pointer-events: none;"/>





<g transform="matrix(1, 0, 0, 1, -332.5429992675781, -957.53515625)">
		<path class="st0" d="M727.4,1320.2H439.8c-9.6,0-17.5-7.8-17.5-17.5v-200.9c0-9.6,7.8-17.5,17.5-17.5h86.8c3.2,0,5.8,2.6,5.8,5.8&#10;&#9;&#9;&#9;s-2.6,5.8-5.8,5.8h-86.8c-3.2,0-5.8,2.6-5.8,5.8v200.9c0,3.2,2.6,5.8,5.8,5.8h287.7c3.2,0,5.8-2.6,5.8-5.8v-200.9&#10;&#9;&#9;&#9;c0-3.2-2.6-5.8-5.8-5.8h-86.7c-3.2,0-5.8-2.6-5.8-5.8s2.6-5.8,5.8-5.8h86.7c9.6,0,17.5,7.8,17.5,17.5v200.9&#10;&#9;&#9;&#9;C744.9,1312.4,737.1,1320.2,727.4,1320.2z" style="fill: #198ee8;"/>
	</g><path class="st0" d="M700.4,1297.1H466.8c-9.6,0-17.5-7.8-17.5-17.5v-154.4c0-9.6,7.8-17.5,17.5-17.5h59.7c3.2,0,5.8,2.6,5.8,5.8&#10;&#9;&#9;&#9;c0,3.2-2.6,5.8-5.8,5.8h-59.7c-3.2,0-5.8,2.6-5.8,5.8v154.4c0,3.2,2.6,5.8,5.8,5.8h233.6c3.2,0,5.8-2.6,5.8-5.8v-154.4&#10;&#9;&#9;&#9;c0-3.2-2.6-5.8-5.8-5.8h-59.7c-3.2,0-5.8-2.6-5.8-5.8c0-3.2,2.6-5.8,5.8-5.8h59.7c9.6,0,17.5,7.8,17.5,17.5v154.4&#10;&#9;&#9;&#9;C717.9,1289.3,710,1297.1,700.4,1297.1z" style="fill: #198ee8;" transform="matrix(1, 0, 0, 1, -332.5429992675781, -957.53515625)"/><path class="st0" d="M583.6,1383.6H428.1c-15,0-26.1-4.4-33.2-12.9c-10.7-12.9-7.6-30.4-7.4-31.2c0.3-1.4,1.1-2.7,2.2-3.6&#10;&#9;&#9;&#9;l34.9-26.2c2.6-1.9,6.2-1.4,8.2,1.2c1.9,2.6,1.4,6.2-1.2,8.2l-32.9,24.7c-0.3,4-0.3,13,5.2,19.5c4.8,5.7,12.9,8.6,24.2,8.6h155.5&#10;&#9;&#9;&#9;c3.2,0,5.8,2.6,5.8,5.8C589.4,1381,586.8,1383.6,583.6,1383.6z" style="fill: #198ee8;" transform="matrix(1, 0, 0, 1, -332.5429992675781, -957.53515625)"/><path class="st0" d="M739.1,1383.6H583.6c-3.2,0-5.8-2.6-5.8-5.8c0-3.2,2.6-5.8,5.8-5.8h155.5c11.3,0,19.5-2.9,24.3-8.7&#10;&#9;&#9;&#9;c5.4-6.5,5.5-15.5,5.2-19.5l-32.9-24.7c-2.6-1.9-3.1-5.6-1.2-8.2c1.9-2.6,5.6-3.1,8.2-1.2l34.9,26.2c1.2,0.9,2,2.2,2.2,3.6&#10;&#9;&#9;&#9;c0.1,0.7,3.3,18.2-7.4,31.2C765.2,1379.3,754,1383.6,739.1,1383.6z" style="fill: #198ee8;" transform="matrix(1, 0, 0, 1, -332.5429992675781, -957.53515625)"/><path class="st0" d="M606.4,1363.6h-43.9c-1.6,0-3.1-0.6-4.2-1.7l-15.2-15.4H393.2c-3.2,0-5.8-2.6-5.8-5.8c0-3.2,2.6-5.8,5.8-5.8&#10;&#9;&#9;&#9;h152.4c1.6,0,3.1,0.6,4.2,1.7l15.2,15.4h38.9l13.5-15.2c1.1-1.3,2.7-2,4.4-2H774c3.2,0,5.8,2.6,5.8,5.8c0,3.2-2.6,5.8-5.8,5.8&#10;&#9;&#9;&#9;H624.2l-13.5,15.2C609.7,1362.9,608.1,1363.6,606.4,1363.6z" style="fill: #198ee8;" transform="matrix(1, 0, 0, 1, -332.5429992675781, -957.53515625)"/><path class="st0" d="M544,1222.3c-3.2,0-5.8-2.6-5.8-5.8v-156H415.7c-3.2,0-5.8-2.6-5.8-5.8c0-3.2,2.6-5.8,5.8-5.8H544&#10;&#9;&#9;&#9;c3.2,0,5.8,2.6,5.8,5.8v161.8C549.8,1219.7,547.2,1222.3,544,1222.3z" style="fill: #198ee8;" transform="matrix(1, 0, 0, 1, -332.5429992675781, -957.53515625)"/><path class="st0" d="M623.2,1222.3c-3.2,0-5.8-2.6-5.8-5.8v-161.8c0-3.2,2.6-5.8,5.8-5.8h128.3c3.2,0,5.8,2.6,5.8,5.8&#10;&#9;&#9;&#9;c0,3.2-2.6,5.8-5.8,5.8H629v156C629,1219.7,626.4,1222.3,623.2,1222.3z" style="fill: #198ee8;" transform="matrix(1, 0, 0, 1, -332.5429992675781, -957.53515625)"/><path class="st0" d="M584.8,1222.3c-3.2,0-5.8-2.6-5.8-5.8v-199.8h-72.5c-3.2,0-5.8-2.6-5.8-5.8c0-3.2,2.6-5.8,5.8-5.8h78.3&#10;&#9;&#9;&#9;c3.2,0,5.8,2.6,5.8,5.8v205.6C590.7,1219.7,588,1222.3,584.8,1222.3z" style="fill: #198ee8;" transform="matrix(1, 0, 0, 1, -332.5429992675781, -957.53515625)"/><g transform="matrix(1, 0, 0, 1, -332.5429992675781, -957.53515625)">
			
				<path d="M 551.3 1234 A 7.3 7.3 0 0 1 544 1241.3 A 7.3 7.3 0 0 1 536.7 1234 A 7.3 7.3 0 0 1 544 1226.7 A 7.3 7.3 0 0 1 551.3 1234 Z" transform="matrix(0.2298 -0.9732 0.9732 0.2298 -781.9668 1479.9244)" class="st0" style="fill: #198ee8;"/>
		</g><path d="M 592.099988 1234 A 7.3 7.3 0 0 1 584.799988 1241.3 A 7.3 7.3 0 0 1 577.499988 1234 A 7.3 7.3 0 0 1 584.799988 1226.7 A 7.3 7.3 0 0 1 592.099988 1234 Z" transform="matrix(0.7071001529693604, -0.7071001529693604, 0.7071001529693604, 0.7071001529693604, -1033.8155212402344, -182.573486328125)" class="st0" style="fill: #198ee8;"/><path d="M 630.500012 1234 A 7.3 7.3 0 0 1 623.200012 1241.3 A 7.3 7.3 0 0 1 615.900012 1234 A 7.3 7.3 0 0 1 623.200012 1226.7 A 7.3 7.3 0 0 1 630.500012 1234 Z" transform="matrix(0.7071001529693604, -0.7071001529693604, 0.7071001529693604, 0.7071001529693604, -1022.5873107910156, -155.466064453125)" class="st0" style="fill: #198ee8;"/><path d="M 400.000012 1054.699951 A 7.3 7.3 0 0 1 392.700012 1061.999951 A 7.3 7.3 0 0 1 385.400012 1054.699951 A 7.3 7.3 0 0 1 392.700012 1047.399951 A 7.3 7.3 0 0 1 400.000012 1054.699951 Z" transform="matrix(0.7071001529693604, -0.7071001529693604, 0.7071001529693604, 0.7071001529693604, -963.2715148925781, -370.9405517578125)" class="st0" style="fill: #198ee8;"/><path d="M 780.099988 1054.699951 A 7.3 7.3 0 0 1 772.799988 1061.999951 A 7.3 7.3 0 0 1 765.499988 1054.699951 A 7.3 7.3 0 0 1 772.799988 1047.399951 A 7.3 7.3 0 0 1 780.099988 1054.699951 Z" transform="matrix(0.7071001529693604, -0.7071001529693604, 0.7071001529693604, 0.7071001529693604, -851.9521789550781, -102.192138671875)" class="st0" style="fill: #198ee8;"/><path d="M 494.400006 1010.900024 A 7.3 7.3 0 0 1 487.100006 1018.200025 A 7.3 7.3 0 0 1 479.800006 1010.900024 A 7.3 7.3 0 0 1 487.100006 1003.600024 A 7.3 7.3 0 0 1 494.400006 1010.900024 Z" class="st0" style="fill: #198ee8;" transform="matrix(1, 0, 0, 1, -332.5429992675781, -957.53515625)"/><path d="M 680.3 1010.900024 A 7.3 7.3 0 0 1 673 1018.200025 A 7.3 7.3 0 0 1 665.7 1010.900024 A 7.3 7.3 0 0 1 673 1003.600024 A 7.3 7.3 0 0 1 680.3 1010.900024 Z" class="st0" style="fill: #198ee8;" transform="matrix(1, 0, 0, 1, -332.5429992675781, -957.53515625)"/><path class="st0" d="M544,1054.7" style="fill: #198ee8;" transform="matrix(1, 0, 0, 1, -332.5429992675781, -957.53515625)"/><path class="st0" d="M652.3,1016.7h-67.5c-3.2,0-5.8-2.6-5.8-5.8c0-3.2,2.6-5.8,5.8-5.8h67.5c3.2,0,5.8,2.6,5.8,5.8&#10;&#9;&#9;&#9;C658.2,1014.1,655.6,1016.7,652.3,1016.7z" style="fill: #198ee8;" transform="matrix(1, 0, 0, 1, -332.5429992675781, -957.53515625)"/>



</svg>