<svg height="274pt" viewBox="-18 0 274 274.44357" width="274pt" xmlns="http://www.w3.org/2000/svg"><path d="m234.652344 89.863281c-1.328125-.035156-2.609375.464844-3.570313 1.378907-.957031.917968-1.515625 2.175781-1.542969 3.503906-2.242187 97.277344-83.332031 152.25-99.566406 162.28125l-10.070312 6.46875-10.066406-6.46875c-12.804688-8.097656-24.78125-17.4375-35.75-27.886719l17.695312-15.417969h28.121094c2.761718 0 5-2.238281 5-5v-24.402344c24.09375-2.542968 42.378906-22.863281 42.378906-47.089843 0-24.226563-18.285156-44.542969-42.378906-47.089844v-26.398437h28c1.550781 0 3.015625-.71875 3.960937-1.945313l16.640625-21.582031 57.636719 31.730468c2.417969 1.332032 5.460937.453126 6.792969-1.96875 1.332031-2.417968.449218-5.457031-1.96875-6.789062l-113.660156-62.570312c-1.503907-.824219-3.320313-.824219-4.824219 0l-113.628907 62.566406c-1.503906.824218-2.476562 2.367187-2.578124 4.078125l-.699219 11.625c-4.269531 70.90625 30.90625 122.074219 62.085937 153.070312.078125.109375.105469.238281.191406.335938.195313.171875.402344.324219.625.460937 12.476563 12.378906 26.257813 23.367188 41.101563 32.777344l12.617187 8.113281c1.648438 1.066407 3.769532 1.066407 5.417969 0l12.613281-8.113281c17.003907-10.503906 101.949219-68.101562 104.308594-170.558594.03125-1.324218-.464844-2.609375-1.382812-3.566406-.914063-.960938-2.175782-1.515625-3.5-1.542969zm-77.386719 47.359375c0 20.632813-16.726563 37.359375-37.363281 37.359375-20.632813 0-37.359375-16.726562-37.359375-37.359375 0-20.632812 16.726562-37.359375 37.359375-37.359375 20.625.019531 37.339844 16.734375 37.363281 37.359375zm-146.710937-57.738281.535156-8.871094 108.8125-59.90625 44.730468 24.628907-14.183593 18.398437h-30.546875c-2.761719 0-5 2.238281-5 5v31.410156c-24.089844 2.546875-42.375 22.867188-42.375 47.089844 0 24.226563 18.285156 44.546875 42.375 47.089844v19.414062h-25c-1.207032 0-2.371094.4375-3.28125 1.230469l-19.671875 17.144531c-28.996094-29.789062-60.300781-77.476562-56.394531-142.628906zm0 0"/><path d="m114.902344 117.257812c0 2.761719 2.238281 5 5 5 8.265625 0 14.964844 6.699219 14.964844 14.964844s-6.699219 14.964844-14.964844 14.964844c-8.261719 0-14.960938-6.699219-14.960938-14.964844 0-2.761718-2.238281-5-5-5-2.761718 0-5 2.238282-5 5 0 13.785156 11.175782 24.964844 24.960938 24.964844 13.789062 0 24.964844-11.179688 24.964844-24.964844 0-13.789062-11.175782-24.964844-24.964844-24.964844-2.761719 0-5 2.238282-5 5zm0 0"/></svg>