<svg width="959" height="875" viewBox="0 0 959 875" fill="none" xmlns="http://www.w3.org/2000/svg">
<mask id="mask0" mask-type="alpha" maskUnits="userSpaceOnUse" x="0" y="0" width="959" height="875">
<path d="M683.227 865L958.227 781V0H59.2274L12.2274 205C-2.27256 242.167 -15.7726 338.8 46.2274 428C128.627 510.4 347.894 715 447.227 807C484.027 842.2 527.227 860.333 544.227 865C604.627 883 662.061 872.5 683.227 865Z" fill="url(#paint0_linear)"/>
</mask>
<g mask="url(#mask0)">
<path d="M683.225 865L958.225 781V0H59.225L12.225 205C-2.275 242.167 -15.775 338.8 46.225 428C128.625 510.4 347.892 715 447.225 807C484.025 842.2 527.225 860.333 544.225 865C604.625 883 662.058 872.5 683.225 865Z" fill="url(#paint1_linear)"/>
<g filter="url(#filter0_d)">
<rect x="364.228" y="639.982" width="1017" height="147" rx="73.5" transform="rotate(-44.3547 364.228 639.982)" fill="#2F4FC6"/>
</g>
<g filter="url(#filter1_d)">
<rect x="458.228" y="104.3" width="1017" height="147" rx="73.5" transform="rotate(-45.4136 458.228 104.3)" fill="#345CD5"/>
</g>
<circle cx="234.228" cy="130" r="7" fill="#496FDD"/>
<circle cx="234.228" cy="106" r="7" fill="#496FDD"/>
<circle cx="234.228" cy="82" r="7" fill="#496FDD"/>
<circle cx="234.228" cy="58" r="7" fill="#496FDD"/>
<circle cx="234.228" cy="34" r="7" fill="#496FDD"/>
<circle cx="234.228" cy="10" r="7" fill="#496FDD"/>
<circle cx="210.228" cy="130" r="7" fill="#496FDD"/>
<circle cx="210.228" cy="106" r="7" fill="#496FDD"/>
<circle cx="210.228" cy="82" r="7" fill="#496FDD"/>
<circle cx="210.228" cy="58" r="7" fill="#496FDD"/>
<circle cx="210.228" cy="34" r="7" fill="#496FDD"/>
<circle cx="210.228" cy="10" r="7" fill="#496FDD"/>
<circle cx="186.228" cy="130" r="7" fill="#496FDD"/>
<circle cx="186.228" cy="106" r="7" fill="#496FDD"/>
<circle cx="186.228" cy="82" r="7" fill="#496FDD"/>
<circle cx="186.228" cy="58" r="7" fill="#496FDD"/>
<circle cx="186.228" cy="34" r="7" fill="#496FDD"/>
<circle cx="186.228" cy="10" r="7" fill="#496FDD"/>
<circle cx="162.228" cy="130" r="7" fill="#496FDD"/>
<circle cx="162.228" cy="106" r="7" fill="#496FDD"/>
<circle cx="162.228" cy="82" r="7" fill="#496FDD"/>
<circle cx="162.228" cy="58" r="7" fill="#496FDD"/>
<circle cx="162.228" cy="34" r="7" fill="#496FDD"/>
<circle cx="162.228" cy="10" r="7" fill="#496FDD"/>
<circle cx="138.228" cy="130" r="7" fill="#496FDD"/>
<circle cx="138.228" cy="106" r="7" fill="#496FDD"/>
<circle cx="138.228" cy="82" r="7" fill="#496FDD"/>
<circle cx="138.228" cy="58" r="7" fill="#496FDD"/>
<circle cx="138.228" cy="34" r="7" fill="#496FDD"/>
<circle cx="138.228" cy="10" r="7" fill="#496FDD"/>
<circle cx="114.228" cy="130" r="7" fill="#496FDD"/>
<circle cx="114.228" cy="106" r="7" fill="#496FDD"/>
<circle cx="114.228" cy="82" r="7" fill="#496FDD"/>
<circle cx="114.228" cy="58" r="7" fill="#496FDD"/>
<circle cx="114.228" cy="34" r="7" fill="#496FDD"/>
<circle cx="114.228" cy="10" r="7" fill="#496FDD"/>
<circle cx="90.2275" cy="130" r="7" fill="#496FDD"/>
<circle cx="90.2275" cy="106" r="7" fill="#496FDD"/>
<circle cx="90.2275" cy="82" r="7" fill="#496FDD"/>
<circle cx="90.2275" cy="58" r="7" fill="#496FDD"/>
<circle cx="90.2275" cy="34" r="7" fill="#496FDD"/>
<circle cx="90.2275" cy="10" r="7" fill="#496FDD"/>
<circle cx="66.2275" cy="130" r="7" fill="#496FDD"/>
<circle cx="66.2275" cy="106" r="7" fill="#496FDD"/>
<circle cx="66.2275" cy="82" r="7" fill="#496FDD"/>
<circle cx="66.2275" cy="58" r="7" fill="#496FDD"/>
<circle cx="66.2275" cy="34" r="7" fill="#496FDD"/>
<circle cx="66.2275" cy="10" r="7" fill="#496FDD"/>
<circle cx="42.2275" cy="130" r="7" fill="#496FDD"/>
<circle cx="42.2275" cy="106" r="7" fill="#496FDD"/>
<circle cx="42.2275" cy="82" r="7" fill="#496FDD"/>
<circle cx="42.2275" cy="58" r="7" fill="#496FDD"/>
<circle cx="42.2275" cy="34" r="7" fill="#496FDD"/>
<circle cx="42.2275" cy="10" r="7" fill="#496FDD"/>
<circle cx="18.2275" cy="130" r="7" fill="#496FDD"/>
<circle cx="18.2275" cy="106" r="7" fill="#496FDD"/>
<circle cx="18.2275" cy="82" r="7" fill="#496FDD"/>
<circle cx="18.2275" cy="58" r="7" fill="#496FDD"/>
<circle cx="18.2275" cy="34" r="7" fill="#496FDD"/>
<circle cx="18.2275" cy="10" r="7" fill="#496FDD"/>
</g>
<defs>
<filter id="filter0_d" x="346.666" y="-82.5618" width="865.073" height="851.215" filterUnits="userSpaceOnUse" color-interpolation-filters="sRGB">
<feFlood flood-opacity="0" result="BackgroundImageFix"/>
<feColorMatrix in="SourceAlpha" type="matrix" values="0 0 0 0 0 0 0 0 0 0 0 0 0 0 0 0 0 0 127 0"/>
<feOffset dy="6"/>
<feGaussianBlur stdDeviation="24"/>
<feColorMatrix type="matrix" values="0 0 0 0 0.188235 0 0 0 0 0.188235 0 0 0 0 0.188235 0 0 0 0.25 0"/>
<feBlend mode="normal" in2="BackgroundImageFix" result="effect1_dropShadow"/>
<feBlend mode="normal" in="SourceGraphic" in2="effect1_dropShadow" result="shape"/>
</filter>
<filter id="filter1_d" x="440.669" y="-631.558" width="853.726" height="862.607" filterUnits="userSpaceOnUse" color-interpolation-filters="sRGB">
<feFlood flood-opacity="0" result="BackgroundImageFix"/>
<feColorMatrix in="SourceAlpha" type="matrix" values="0 0 0 0 0 0 0 0 0 0 0 0 0 0 0 0 0 0 127 0"/>
<feOffset dy="6"/>
<feGaussianBlur stdDeviation="24"/>
<feColorMatrix type="matrix" values="0 0 0 0 0.188235 0 0 0 0 0.188235 0 0 0 0 0.188235 0 0 0 0.25 0"/>
<feBlend mode="normal" in2="BackgroundImageFix" result="effect1_dropShadow"/>
<feBlend mode="normal" in="SourceGraphic" in2="effect1_dropShadow" result="shape"/>
</filter>
<linearGradient id="paint0_linear" x1="958.228" y1="781" x2="59.2275" y2="7.22543e-06" gradientUnits="userSpaceOnUse">
<stop stop-color="#2538B0"/>
<stop offset="0.794345" stop-color="#315BD3"/>
</linearGradient>
<linearGradient id="paint1_linear" x1="958.225" y1="781" x2="59.225" y2="7.22543e-06" gradientUnits="userSpaceOnUse">
<stop stop-color="#2538B0"/>
<stop offset="0.794345" stop-color="#315BD3"/>
</linearGradient>
</defs>
</svg>
